<svg xmlns="http://www.w3.org/2000/svg" width="1117" height="381" viewBox="89 168 1117 381" preserveAspectRatio="xMidYMid meet"><polyline stroke="black" fill="none" stroke-width="3" points="99,184 100,185 101,185 102,185 103,185 105,186 107,187 111,189 115,191 119,194 123,196 129,200 133,204 138,209 140,214 143,219 147,225 151,231 156,238 163,252 166,259 169,267 173,275 176,283 179,292 185,311 188,322 190,333 195,357 197,369 198,380 198,392 198,405 197,418 196,443 192,468 190,480 184,501 181,510 178,517 176,522 172,528 166,532 163,533 159,533 155,532 150,530 140,520 134,512 128,501 124,490 122,466 122,433 123,416 125,400 127,383 130,366 134,349 144,318 155,287 166,260 178,240 190,221 197,213 210,203 224,195 240,191 257,191 292,209 297,214 312,235 328,273 337,319 340,367 343,395 343,408 342,435 341,469 332,499 326,511 317,523 313,526 310,526 300,523 285,501 279,476 279,391 291,348 303,308 310,291 329,243 342,221 349,211 361,198 376,189 398,186 424,193 440,204 448,212 468,235 487,273 499,321 508,369 508,384 506,432 500,482 490,509 464,534 443,539 435,538 413,524 397,484 397,436 411,366 428,310 457,245 482,208 489,199 514,183 541,178 574,191 579,197 610,237 631,275 645,314 648,327 653,367 653,407 651,420 646,455 629,490 617,511 610,517 599,518 584,501 579,493 569,457 569,404 576,358 579,343 592,294 616,241 638,212 645,204 665,187 692,181 717,186 727,191 753,212 780,251 795,313 800,378 794,433 784,470 782,478 770,503 753,525 744,528 740,526 718,502 716,493 710,437 720,354 747,274 781,219 807,192 813,188 846,182 881,198 889,206 917,245 939,310 944,371 944,421 942,433 938,468 937,476 931,502 922,524 905,537 887,534 880,530 862,497 860,485 864,419 884,327 913,241 955,191 962,186 991,181 1031,200 1069,242 1075,252 1097,319 1102,389 1085,463 1062,506 1059,510 1043,518 1039,518 1019,491 1018,480 1023,405 1028,388 1067,313 1077,299 1117,242 1126,234 1170,204 1179,198 1196,189 1196,189 " /><circle stroke="red" fill="none" stroke-width="1" cx="99" cy="184" r="6" /><circle stroke="red" fill="none" stroke-width="1" cx="100" cy="185" r="6" /><circle stroke="red" fill="none" stroke-width="1" cx="101" cy="185" r="6" /><circle stroke="red" fill="none" stroke-width="1" cx="102" cy="185" r="6" /><circle stroke="red" fill="none" stroke-width="1" cx="103" cy="185" r="6" /><circle stroke="red" fill="none" stroke-width="1" cx="105" cy="186" r="6" /><circle stroke="red" fill="none" stroke-width="1" cx="107" cy="187" r="6" /><circle stroke="red" fill="none" stroke-width="1" cx="111" cy="189" r="6" /><circle stroke="red" fill="none" stroke-width="1" cx="115" cy="191" r="6" /><circle stroke="red" fill="none" stroke-width="1" cx="119" cy="194" r="6" /><circle stroke="red" fill="none" stroke-width="1" cx="123" cy="196" r="6" /><circle stroke="red" fill="none" stroke-width="1" cx="129" cy="200" r="6" /><circle stroke="red" fill="none" stroke-width="1" cx="133" cy="204" r="6" /><circle stroke="red" fill="none" stroke-width="1" cx="138" cy="209" r="6" /><circle stroke="red" fill="none" stroke-width="1" cx="140" cy="214" r="6" /><circle stroke="red" fill="none" stroke-width="1" cx="143" cy="219" r="6" /><circle stroke="red" fill="none" stroke-width="1" cx="147" cy="225" r="6" /><circle stroke="red" fill="none" stroke-width="1" cx="151" cy="231" r="6" /><circle stroke="red" fill="none" stroke-width="1" cx="156" cy="238" r="6" /><circle stroke="red" fill="none" stroke-width="1" cx="163" cy="252" r="6" /><circle stroke="red" fill="none" stroke-width="1" cx="166" cy="259" r="6" /><circle stroke="red" fill="none" stroke-width="1" cx="169" cy="267" r="6" /><circle stroke="red" fill="none" stroke-width="1" cx="173" cy="275" r="6" /><circle stroke="red" fill="none" stroke-width="1" cx="176" cy="283" r="6" /><circle stroke="red" fill="none" stroke-width="1" cx="179" cy="292" r="6" /><circle stroke="red" fill="none" stroke-width="1" cx="185" cy="311" r="6" /><circle stroke="red" fill="none" stroke-width="1" cx="188" cy="322" r="6" /><circle stroke="red" fill="none" stroke-width="1" cx="190" cy="333" r="6" /><circle stroke="red" fill="none" stroke-width="1" cx="195" cy="357" r="6" /><circle stroke="red" fill="none" stroke-width="1" cx="197" cy="369" r="6" /><circle stroke="red" fill="none" stroke-width="1" cx="198" cy="380" r="6" /><circle stroke="red" fill="none" stroke-width="1" cx="198" cy="392" r="6" /><circle stroke="red" fill="none" stroke-width="1" cx="198" cy="405" r="6" /><circle stroke="red" fill="none" stroke-width="1" cx="197" cy="418" r="6" /><circle stroke="red" fill="none" stroke-width="1" cx="196" cy="443" r="6" /><circle stroke="red" fill="none" stroke-width="1" cx="192" cy="468" r="6" /><circle stroke="red" fill="none" stroke-width="1" cx="190" cy="480" r="6" /><circle stroke="red" fill="none" stroke-width="1" cx="184" cy="501" r="6" /><circle stroke="red" fill="none" stroke-width="1" cx="181" cy="510" r="6" /><circle stroke="red" fill="none" stroke-width="1" cx="178" cy="517" r="6" /><circle stroke="red" fill="none" stroke-width="1" cx="176" cy="522" r="6" /><circle stroke="red" fill="none" stroke-width="1" cx="172" cy="528" r="6" /><circle stroke="red" fill="none" stroke-width="1" cx="166" cy="532" r="6" /><circle stroke="red" fill="none" stroke-width="1" cx="163" cy="533" r="6" /><circle stroke="red" fill="none" stroke-width="1" cx="159" cy="533" r="6" /><circle stroke="red" fill="none" stroke-width="1" cx="155" cy="532" r="6" /><circle stroke="red" fill="none" stroke-width="1" cx="150" cy="530" r="6" /><circle stroke="red" fill="none" stroke-width="1" cx="140" cy="520" r="6" /><circle stroke="red" fill="none" stroke-width="1" cx="134" cy="512" r="6" /><circle stroke="red" fill="none" stroke-width="1" cx="128" cy="501" r="6" /><circle stroke="red" fill="none" stroke-width="1" cx="124" cy="490" r="6" /><circle stroke="red" fill="none" stroke-width="1" cx="122" cy="466" r="6" /><circle stroke="red" fill="none" stroke-width="1" cx="122" cy="433" r="6" /><circle stroke="red" fill="none" stroke-width="1" cx="123" cy="416" r="6" /><circle stroke="red" fill="none" stroke-width="1" cx="125" cy="400" r="6" /><circle stroke="red" fill="none" stroke-width="1" cx="127" cy="383" r="6" /><circle stroke="red" fill="none" stroke-width="1" cx="130" cy="366" r="6" /><circle stroke="red" fill="none" stroke-width="1" cx="134" cy="349" r="6" /><circle stroke="red" fill="none" stroke-width="1" cx="144" cy="318" r="6" /><circle stroke="red" fill="none" stroke-width="1" cx="155" cy="287" r="6" /><circle stroke="red" fill="none" stroke-width="1" cx="166" cy="260" r="6" /><circle stroke="red" fill="none" stroke-width="1" cx="178" cy="240" r="6" /><circle stroke="red" fill="none" stroke-width="1" cx="190" cy="221" r="6" /><circle stroke="red" fill="none" stroke-width="1" cx="197" cy="213" r="6" /><circle stroke="red" fill="none" stroke-width="1" cx="210" cy="203" r="6" /><circle stroke="red" fill="none" stroke-width="1" cx="224" cy="195" r="6" /><circle stroke="red" fill="none" stroke-width="1" cx="240" cy="191" r="6" /><circle stroke="red" fill="none" stroke-width="1" cx="257" cy="191" r="6" /><circle stroke="red" fill="none" stroke-width="1" cx="292" cy="209" r="6" /><circle stroke="red" fill="none" stroke-width="1" cx="297" cy="214" r="6" /><circle stroke="red" fill="none" stroke-width="1" cx="312" cy="235" r="6" /><circle stroke="red" fill="none" stroke-width="1" cx="328" cy="273" r="6" /><circle stroke="red" fill="none" stroke-width="1" cx="337" cy="319" r="6" /><circle stroke="red" fill="none" stroke-width="1" cx="340" cy="367" r="6" /><circle stroke="red" fill="none" stroke-width="1" cx="343" cy="395" r="6" /><circle stroke="red" fill="none" stroke-width="1" cx="343" cy="408" r="6" /><circle stroke="red" fill="none" stroke-width="1" cx="342" cy="435" r="6" /><circle stroke="red" fill="none" stroke-width="1" cx="341" cy="469" r="6" /><circle stroke="red" fill="none" stroke-width="1" cx="332" cy="499" r="6" /><circle stroke="red" fill="none" stroke-width="1" cx="326" cy="511" r="6" /><circle stroke="red" fill="none" stroke-width="1" cx="317" cy="523" r="6" /><circle stroke="red" fill="none" stroke-width="1" cx="313" cy="526" r="6" /><circle stroke="red" fill="none" stroke-width="1" cx="310" cy="526" r="6" /><circle stroke="red" fill="none" stroke-width="1" cx="300" cy="523" r="6" /><circle stroke="red" fill="none" stroke-width="1" cx="285" cy="501" r="6" /><circle stroke="red" fill="none" stroke-width="1" cx="279" cy="476" r="6" /><circle stroke="red" fill="none" stroke-width="1" cx="279" cy="391" r="6" /><circle stroke="red" fill="none" stroke-width="1" cx="291" cy="348" r="6" /><circle stroke="red" fill="none" stroke-width="1" cx="303" cy="308" r="6" /><circle stroke="red" fill="none" stroke-width="1" cx="310" cy="291" r="6" /><circle stroke="red" fill="none" stroke-width="1" cx="329" cy="243" r="6" /><circle stroke="red" fill="none" stroke-width="1" cx="342" cy="221" r="6" /><circle stroke="red" fill="none" stroke-width="1" cx="349" cy="211" r="6" /><circle stroke="red" fill="none" stroke-width="1" cx="361" cy="198" r="6" /><circle stroke="red" fill="none" stroke-width="1" cx="376" cy="189" r="6" /><circle stroke="red" fill="none" stroke-width="1" cx="398" cy="186" r="6" /><circle stroke="red" fill="none" stroke-width="1" cx="424" cy="193" r="6" /><circle stroke="red" fill="none" stroke-width="1" cx="440" cy="204" r="6" /><circle stroke="red" fill="none" stroke-width="1" cx="448" cy="212" r="6" /><circle stroke="red" fill="none" stroke-width="1" cx="468" cy="235" r="6" /><circle stroke="red" fill="none" stroke-width="1" cx="487" cy="273" r="6" /><circle stroke="red" fill="none" stroke-width="1" cx="499" cy="321" r="6" /><circle stroke="red" fill="none" stroke-width="1" cx="508" cy="369" r="6" /><circle stroke="red" fill="none" stroke-width="1" cx="508" cy="384" r="6" /><circle stroke="red" fill="none" stroke-width="1" cx="506" cy="432" r="6" /><circle stroke="red" fill="none" stroke-width="1" cx="500" cy="482" r="6" /><circle stroke="red" fill="none" stroke-width="1" cx="490" cy="509" r="6" /><circle stroke="red" fill="none" stroke-width="1" cx="464" cy="534" r="6" /><circle stroke="red" fill="none" stroke-width="1" cx="443" cy="539" r="6" /><circle stroke="red" fill="none" stroke-width="1" cx="435" cy="538" r="6" /><circle stroke="red" fill="none" stroke-width="1" cx="413" cy="524" r="6" /><circle stroke="red" fill="none" stroke-width="1" cx="397" cy="484" r="6" /><circle stroke="red" fill="none" stroke-width="1" cx="397" cy="436" r="6" /><circle stroke="red" fill="none" stroke-width="1" cx="411" cy="366" r="6" /><circle stroke="red" fill="none" stroke-width="1" cx="428" cy="310" r="6" /><circle stroke="red" fill="none" stroke-width="1" cx="457" cy="245" r="6" /><circle stroke="red" fill="none" stroke-width="1" cx="482" cy="208" r="6" /><circle stroke="red" fill="none" stroke-width="1" cx="489" cy="199" r="6" /><circle stroke="red" fill="none" stroke-width="1" cx="514" cy="183" r="6" /><circle stroke="red" fill="none" stroke-width="1" cx="541" cy="178" r="6" /><circle stroke="red" fill="none" stroke-width="1" cx="574" cy="191" r="6" /><circle stroke="red" fill="none" stroke-width="1" cx="579" cy="197" r="6" /><circle stroke="red" fill="none" stroke-width="1" cx="610" cy="237" r="6" /><circle stroke="red" fill="none" stroke-width="1" cx="631" cy="275" r="6" /><circle stroke="red" fill="none" stroke-width="1" cx="645" cy="314" r="6" /><circle stroke="red" fill="none" stroke-width="1" cx="648" cy="327" r="6" /><circle stroke="red" fill="none" stroke-width="1" cx="653" cy="367" r="6" /><circle stroke="red" fill="none" stroke-width="1" cx="653" cy="407" r="6" /><circle stroke="red" fill="none" stroke-width="1" cx="651" cy="420" r="6" /><circle stroke="red" fill="none" stroke-width="1" cx="646" cy="455" r="6" /><circle stroke="red" fill="none" stroke-width="1" cx="629" cy="490" r="6" /><circle stroke="red" fill="none" stroke-width="1" cx="617" cy="511" r="6" /><circle stroke="red" fill="none" stroke-width="1" cx="610" cy="517" r="6" /><circle stroke="red" fill="none" stroke-width="1" cx="599" cy="518" r="6" /><circle stroke="red" fill="none" stroke-width="1" cx="584" cy="501" r="6" /><circle stroke="red" fill="none" stroke-width="1" cx="579" cy="493" r="6" /><circle stroke="red" fill="none" stroke-width="1" cx="569" cy="457" r="6" /><circle stroke="red" fill="none" stroke-width="1" cx="569" cy="404" r="6" /><circle stroke="red" fill="none" stroke-width="1" cx="576" cy="358" r="6" /><circle stroke="red" fill="none" stroke-width="1" cx="579" cy="343" r="6" /><circle stroke="red" fill="none" stroke-width="1" cx="592" cy="294" r="6" /><circle stroke="red" fill="none" stroke-width="1" cx="616" cy="241" r="6" /><circle stroke="red" fill="none" stroke-width="1" cx="638" cy="212" r="6" /><circle stroke="red" fill="none" stroke-width="1" cx="645" cy="204" r="6" /><circle stroke="red" fill="none" stroke-width="1" cx="665" cy="187" r="6" /><circle stroke="red" fill="none" stroke-width="1" cx="692" cy="181" r="6" /><circle stroke="red" fill="none" stroke-width="1" cx="717" cy="186" r="6" /><circle stroke="red" fill="none" stroke-width="1" cx="727" cy="191" r="6" /><circle stroke="red" fill="none" stroke-width="1" cx="753" cy="212" r="6" /><circle stroke="red" fill="none" stroke-width="1" cx="780" cy="251" r="6" /><circle stroke="red" fill="none" stroke-width="1" cx="795" cy="313" r="6" /><circle stroke="red" fill="none" stroke-width="1" cx="800" cy="378" r="6" /><circle stroke="red" fill="none" stroke-width="1" cx="794" cy="433" r="6" /><circle stroke="red" fill="none" stroke-width="1" cx="784" cy="470" r="6" /><circle stroke="red" fill="none" stroke-width="1" cx="782" cy="478" r="6" /><circle stroke="red" fill="none" stroke-width="1" cx="770" cy="503" r="6" /><circle stroke="red" fill="none" stroke-width="1" cx="753" cy="525" r="6" /><circle stroke="red" fill="none" stroke-width="1" cx="744" cy="528" r="6" /><circle stroke="red" fill="none" stroke-width="1" cx="740" cy="526" r="6" /><circle stroke="red" fill="none" stroke-width="1" cx="718" cy="502" r="6" /><circle stroke="red" fill="none" stroke-width="1" cx="716" cy="493" r="6" /><circle stroke="red" fill="none" stroke-width="1" cx="710" cy="437" r="6" /><circle stroke="red" fill="none" stroke-width="1" cx="720" cy="354" r="6" /><circle stroke="red" fill="none" stroke-width="1" cx="747" cy="274" r="6" /><circle stroke="red" fill="none" stroke-width="1" cx="781" cy="219" r="6" /><circle stroke="red" fill="none" stroke-width="1" cx="807" cy="192" r="6" /><circle stroke="red" fill="none" stroke-width="1" cx="813" cy="188" r="6" /><circle stroke="red" fill="none" stroke-width="1" cx="846" cy="182" r="6" /><circle stroke="red" fill="none" stroke-width="1" cx="881" cy="198" r="6" /><circle stroke="red" fill="none" stroke-width="1" cx="889" cy="206" r="6" /><circle stroke="red" fill="none" stroke-width="1" cx="917" cy="245" r="6" /><circle stroke="red" fill="none" stroke-width="1" cx="939" cy="310" r="6" /><circle stroke="red" fill="none" stroke-width="1" cx="944" cy="371" r="6" /><circle stroke="red" fill="none" stroke-width="1" cx="944" cy="421" r="6" /><circle stroke="red" fill="none" stroke-width="1" cx="942" cy="433" r="6" /><circle stroke="red" fill="none" stroke-width="1" cx="938" cy="468" r="6" /><circle stroke="red" fill="none" stroke-width="1" cx="937" cy="476" r="6" /><circle stroke="red" fill="none" stroke-width="1" cx="931" cy="502" r="6" /><circle stroke="red" fill="none" stroke-width="1" cx="922" cy="524" r="6" /><circle stroke="red" fill="none" stroke-width="1" cx="905" cy="537" r="6" /><circle stroke="red" fill="none" stroke-width="1" cx="887" cy="534" r="6" /><circle stroke="red" fill="none" stroke-width="1" cx="880" cy="530" r="6" /><circle stroke="red" fill="none" stroke-width="1" cx="862" cy="497" r="6" /><circle stroke="red" fill="none" stroke-width="1" cx="860" cy="485" r="6" /><circle stroke="red" fill="none" stroke-width="1" cx="864" cy="419" r="6" /><circle stroke="red" fill="none" stroke-width="1" cx="884" cy="327" r="6" /><circle stroke="red" fill="none" stroke-width="1" cx="913" cy="241" r="6" /><circle stroke="red" fill="none" stroke-width="1" cx="955" cy="191" r="6" /><circle stroke="red" fill="none" stroke-width="1" cx="962" cy="186" r="6" /><circle stroke="red" fill="none" stroke-width="1" cx="991" cy="181" r="6" /><circle stroke="red" fill="none" stroke-width="1" cx="1031" cy="200" r="6" /><circle stroke="red" fill="none" stroke-width="1" cx="1069" cy="242" r="6" /><circle stroke="red" fill="none" stroke-width="1" cx="1075" cy="252" r="6" /><circle stroke="red" fill="none" stroke-width="1" cx="1097" cy="319" r="6" /><circle stroke="red" fill="none" stroke-width="1" cx="1102" cy="389" r="6" /><circle stroke="red" fill="none" stroke-width="1" cx="1085" cy="463" r="6" /><circle stroke="red" fill="none" stroke-width="1" cx="1062" cy="506" r="6" /><circle stroke="red" fill="none" stroke-width="1" cx="1059" cy="510" r="6" /><circle stroke="red" fill="none" stroke-width="1" cx="1043" cy="518" r="6" /><circle stroke="red" fill="none" stroke-width="1" cx="1039" cy="518" r="6" /><circle stroke="red" fill="none" stroke-width="1" cx="1019" cy="491" r="6" /><circle stroke="red" fill="none" stroke-width="1" cx="1018" cy="480" r="6" /><circle stroke="red" fill="none" stroke-width="1" cx="1023" cy="405" r="6" /><circle stroke="red" fill="none" stroke-width="1" cx="1028" cy="388" r="6" /><circle stroke="red" fill="none" stroke-width="1" cx="1067" cy="313" r="6" /><circle stroke="red" fill="none" stroke-width="1" cx="1077" cy="299" r="6" /><circle stroke="red" fill="none" stroke-width="1" cx="1117" cy="242" r="6" /><circle stroke="red" fill="none" stroke-width="1" cx="1126" cy="234" r="6" /><circle stroke="red" fill="none" stroke-width="1" cx="1170" cy="204" r="6" /><circle stroke="red" fill="none" stroke-width="1" cx="1179" cy="198" r="6" /><circle stroke="red" fill="none" stroke-width="1" cx="1196" cy="189" r="6" /><circle stroke="red" fill="none" stroke-width="1" cx="1196" cy="189" r="6" /></svg>