<svg xmlns="http://www.w3.org/2000/svg" width="800" height="400" viewBox="-10 -5 1010 1010" preserveAspectRatio="none"><line x1="0" y1="1000" x2="1000" y2="1000" stroke="black" stroke-width="2" /><line x1="0" y1="0"    x2="0"    y2="1000" stroke="black" stroke-width="2" /><line y1="1000" y2="1000" x1 ="-5" x2="10" stroke="black" /><line y1="952.3809523809524" y2="952.3809523809524" x1 ="-5" x2="10" stroke="black" /><line y1="904.7619047619048" y2="904.7619047619048" x1 ="-5" x2="10" stroke="black" /><line y1="857.1428571428571" y2="857.1428571428571" x1 ="-5" x2="10" stroke="black" /><line y1="809.5238095238095" y2="809.5238095238095" x1 ="-5" x2="10" stroke="black" /><line y1="761.9047619047619" y2="761.9047619047619" x1 ="-5" x2="10" stroke="black" /><line y1="714.2857142857142" y2="714.2857142857142" x1 ="-5" x2="10" stroke="black" /><line y1="666.6666666666667" y2="666.6666666666667" x1 ="-5" x2="10" stroke="black" /><line y1="619.047619047619" y2="619.047619047619" x1 ="-5" x2="10" stroke="black" /><line y1="571.4285714285714" y2="571.4285714285714" x1 ="-5" x2="10" stroke="black" /><line y1="523.8095238095239" y2="523.8095238095239" x1 ="-5" x2="10" stroke="black" /><line y1="476.19047619047615" y2="476.19047619047615" x1 ="-5" x2="10" stroke="black" /><line y1="428.57142857142856" y2="428.57142857142856" x1 ="-5" x2="10" stroke="black" /><line y1="380.95238095238096" y2="380.95238095238096" x1 ="-5" x2="10" stroke="black" /><line y1="333.33333333333337" y2="333.33333333333337" x1 ="-5" x2="10" stroke="black" /><line y1="285.71428571428567" y2="285.71428571428567" x1 ="-5" x2="10" stroke="black" /><line y1="238.09523809523807" y2="238.09523809523807" x1 ="-5" x2="10" stroke="black" /><line y1="190.47619047619048" y2="190.47619047619048" x1 ="-5" x2="10" stroke="black" /><line y1="142.8571428571429" y2="142.8571428571429" x1 ="-5" x2="10" stroke="black" /><line y1="95.23809523809518" y2="95.23809523809518" x1 ="-5" x2="10" stroke="black" /><line y1="47.61904761904759" y2="47.61904761904759" x1 ="-5" x2="10" stroke="black" /><line y1="0" y2="0" x1 ="-5" x2="10" stroke="black" /><line y1="0" y2="1000" x1 ="-2.948290667827706" x2="-2.948290667827706" stroke="#aaa"  stroke-width="2" /><line y1="0" y2="1000" x1 ="5.429427631057868" x2="5.429427631057868" stroke="#aaa"  stroke-width="2" /><line y1="0" y2="1000" x1 ="14.069329920137186" x2="14.069329920137186" stroke="#aaa"  stroke-width="2" /><line y1="0" y2="1000" x1 ="22.770657786713574" x2="22.770657786713574" stroke="#aaa"  stroke-width="2" /><line y1="0" y2="1000" x1 ="31.521430485458705" x2="31.521430485458705" stroke="#aaa"  stroke-width="2" /><line y1="0" y2="1000" x1 ="40.38613094867489" x2="40.38613094867489" stroke="#aaa"  stroke-width="2" /><line y1="0" y2="1000" x1 ="51.31437654409296" x2="51.31437654409296" stroke="#aaa"  stroke-width="2" /><line y1="0" y2="1000" x1 ="63.70774147626047" x2="63.70774147626047" stroke="#aaa"  stroke-width="2" /><line y1="0" y2="1000" x1 ="74.6157332816245" x2="74.6157332816245" stroke="#aaa"  stroke-width="2" /><line y1="0" y2="1000" x1 ="86.01977874142223" x2="86.01977874142223" stroke="#aaa"  stroke-width="2" /><line y1="0" y2="1000" x1 ="98.534857661437" x2="98.534857661437" stroke="#aaa"  stroke-width="2" /><line y1="0" y2="1000" x1 ="109.35016560217282" x2="109.35016560217282" stroke="#aaa"  stroke-width="2" /><line y1="0" y2="1000" x1 ="123.30983638169216" x2="123.30983638169216" stroke="#aaa"  stroke-width="2" /><line y1="0" y2="1000" x1 ="140.2593478384217" x2="140.2593478384217" stroke="#aaa"  stroke-width="2" /><line y1="0" y2="1000" x1 ="154.73267715396818" x2="154.73267715396818" stroke="#aaa"  stroke-width="2" /><line y1="0" y2="1000" x1 ="173.72025592515786" x2="173.72025592515786" stroke="#aaa"  stroke-width="2" /><line y1="0" y2="1000" x1 ="196.14546524046665" x2="196.14546524046665" stroke="#aaa"  stroke-width="2" /><line y1="0" y2="1000" x1 ="212.09366741217715" x2="212.09366741217715" stroke="#aaa"  stroke-width="2" /><line y1="0" y2="1000" x1 ="232.28425115027446" x2="232.28425115027446" stroke="#aaa"  stroke-width="2" /><line y1="0" y2="1000" x1 ="259.5228314682972" x2="259.5228314682972" stroke="#aaa"  stroke-width="2" /><line y1="0" y2="1000" x1 ="285.2682611907956" x2="285.2682611907956" stroke="#aaa"  stroke-width="2" /><line y1="0" y2="1000" x1 ="311.79510890406556" x2="311.79510890406556" stroke="#aaa"  stroke-width="2" /><line y1="0" y2="1000" x1 ="342.7114520311929" x2="342.7114520311929" stroke="#aaa"  stroke-width="2" /><line y1="0" y2="1000" x1 ="376.50817221554047" x2="376.50817221554047" stroke="#aaa"  stroke-width="2" /><line y1="0" y2="1000" x1 ="410.20238133083234" x2="410.20238133083234" stroke="#aaa"  stroke-width="2" /><line y1="0" y2="1000" x1 ="444.52054200147717" x2="444.52054200147717" stroke="#aaa"  stroke-width="2" /><line y1="0" y2="1000" x1 ="478.6461914570748" x2="478.6461914570748" stroke="#aaa"  stroke-width="2" /><line y1="0" y2="1000" x1 ="512.9387438239298" x2="512.9387438239298" stroke="#aaa"  stroke-width="2" /><line y1="0" y2="1000" x1 ="547.1788247493259" x2="547.1788247493259" stroke="#aaa"  stroke-width="2" /><line y1="0" y2="1000" x1 ="582.2190750942211" x2="582.2190750942211" stroke="#aaa"  stroke-width="2" /><line y1="0" y2="1000" x1 ="618.5854689013006" x2="618.5854689013006" stroke="#aaa"  stroke-width="2" /><line y1="0" y2="1000" x1 ="663.3856699972262" x2="663.3856699972262" stroke="#aaa"  stroke-width="2" /><line y1="0" y2="1000" x1 ="698.8438943555284" x2="698.8438943555284" stroke="#aaa"  stroke-width="2" /><line y1="0" y2="1000" x1 ="736.221320534194" x2="736.221320534194" stroke="#aaa"  stroke-width="2" /><line y1="0" y2="1000" x1 ="781.1802084019081" x2="781.1802084019081" stroke="#aaa"  stroke-width="2" /><line y1="0" y2="1000" x1 ="826.6410690088152" x2="826.6410690088152" stroke="#aaa"  stroke-width="2" /><line y1="0" y2="1000" x1 ="864.3859040855486" x2="864.3859040855486" stroke="#aaa"  stroke-width="2" /><line y1="0" y2="1000" x1 ="921.0970217141437" x2="921.0970217141437" stroke="#aaa"  stroke-width="2" /><line y1="0" y2="1000" x1 ="977.5765710063127" x2="977.5765710063127" stroke="#aaa"  stroke-width="2" /><polyline stroke="#368" fill="none" stroke-width="3" points="-3.0304740533725614,1000 0,999.7531812046137 11.21633711100118,999.5786539606718 13.466457281069198,999.4041267167298 15.951698093040081,999.2295994727879 17.616663065482612,998.839344691408 19.320407511675164,998.4490899100281 20.674578063752033,997.6685803472683 22.726954027986455,996.8880707845085 24.56996960990431,996.0154345647989 26.482001888956738,995.2349250020391 28.30522382131765,993.9763911480428 30.958084071365654,992.9891159664976 32.80877738147172,991.7550219895661 34.38275657968431,990.8151640176037 36.14081375887605,989.7975040538383 38.498491014369726,988.5389701998421 39.96648948616209,987.2804363458459 42.752480315250175,985.7790962254968 45.268097487085356,983.0473127558375 48.278022593464634,981.7181528651839 48.796935590027346,980.226991439284 51.282415070567936,978.6659723137644 53.16919527690989,977.1748108878645 55.76372586643619,975.5191000740393 58.29882381313618,972.0416693738592 60.69832007520858,970.0517526283303 63.220077699507634,968.1004787214309 66.13939473248544,963.8218907434104 68.82897575747808,961.6986751834778 69.55246377941614,959.7709587668043 72.17968101972033,957.6766318395009 74.13562122856096,955.4077776682556 77.01529040939313,953.1322208112961 79.7117067354771,948.7655505629707 82.84841362848866,944.346873674944 85.53886761764822,942.2236581150114 88.72038562901899,938.4119255712995 92.13096220483514,936.7562147574744 92.17456174147962,935.4270548668208 95.25417661120467,934.4871968948584 98.63510627751475,933.2286630408621 101.988473475979,931.970129186866 104.95296640460634,931.4182255822575 105.21455945558891,930.7201166064898 108.86685737048988,930.0005223451692 109.31405265041572,929.0606643732068 112.76906681264543,926.5924764193438 115.8947913036618,924.8472039799243 116.66589141243904,922.6603838812784 119.40715804438537,920.6175948646929 123.13151239769275,916.4144222356871 126.10972355799413,910.6550231856028 129.54001103103414,907.6829313171351 129.7254786050457,904.8687640676147 133.20260525395773,901.8813388633216 133.4884299392358,898.8685315104303 136.89583201462634,895.8205442306371 139.65916329531865,890.1356691951127 143.1829379768023,884.3948104522096 147.0097383645856,879.3065106333825 150.54326646126205,875.2358707783208 154.68423566779234,871.3138587649053 157.9536477053009,869.4586087135076 160.9575018753457,866.5961490826701 164.6449052271269,863.7819818331498 168.20364214434915,860.9036047878674 173.68841607880395,857.9366416408543 179.51929852311488,851.0677140315415 180.4345594508638,849.83362005461 185.5926275879864,845.3295996935626 191.05169358233928,838.1336570803567 196.28244359458853,829.9531870293813 201.48763314098431,821.5595333383626 206.48485606697955,816.644801525717 206.93527358104527,814.3759473544716 211.55641987521855,809.6604808896434 217.23821711135898,803.723988573316 221.90756611891632,798.2576348105879 226.90011228738155,795.9161061223086 231.781249322234,793.2981974631793 236.6787534972211,792.4255612434697 236.84957349124505,791.9019795116437 241.5887036649155,790.0798615907345 246.5978080125937,785.4327152572862 251.44644078531266,780.9456337315793 259.49071803897533,766.1108179965137 263.8874741884672,758.3193932587781 268.72214130628714,751.0309215751406 268.85019981343606,747.8222772351187 275.4439705001611,738.8125459733221 279.8740865750874,734.3527003989421 280.10669723656514,732.2223238893041 284.73100927650955,729.1346217455075 289.7512437088753,726.0816418542113 296.4764559515634,722.2065081627317 301.55865041226787,717.5072183029199 306.38401560495856,714.118512193356 306.443799997315,712.1439618302655 311.27016832755476,706.8244584702106 316.13832106264175,699.4096176239927 321.58655212924714,690.7744864881456 328.6820480277185,682.2511934083575 328.9248594255694,679.6332847492283 335.4862647781984,671.2487082250167 342.1267661456071,662.4597407933705 348.9473849506199,657.4346895389216 355.7077459865754,651.1396004767842 362.5704836450988,647.3720750771172 362.7818589529456,645.964991452357 369.25087591055154,641.413877738438 375.9919559653751,633.8950139627392 382.8450095163916,625.5177062535256 389.4747411990769,613.0588567383357 396.0934297182921,602.8449116554084 402.82410924301,590.4227887098002 409.67087038576574,582.6294095195724 409.78666111997006,580.6394927740434 416.5634415113241,575.459237223253 423.3688526468748,570.6668830842112 430.3244651048827,564.4766991880342 430.4184907246077,563.1135978375999 437.3561987667565,554.281415633496 443.97174759572187,546.7040384167424 450.80829070123883,539.472205592798 451.2457759223587,537.1437217340867 457.5382146158552,530.1083036102859 464.30268815098316,523.1272138526081 464.35711375649845,520.8316663610738 471.17628210278184,514.6611964764162 478.19319882378284,507.870314726507 485.07156541742813,503.64906385222656 492.0493902068735,502.0400021676949 498.8437145099022,500.11228575102143 505.6278381807794,496.1554794551209 505.68747926777183,494.5089927287427 512.3627256720982,487.988116760466 519.2302574422177,478.7381728315428 526.0829028595572,470.61749687625365 526.3027940495825,467.947743408713 533.1164734356433,459.10005555728037 539.8171673290857,448.945929115191 546.7215633879582,442.5930415423378 547.0369915221338,440.73779149094025 553.5879487151645,436.1566591127041 560.5250140197277,431.3294740591093 567.4071541823316,426.87988494654144 567.6433432048076,424.9286110396421 574.2971458113362,419.09564004136905 581.6269633852216,410.8170859722434 591.351213799722,399.6842175694251 600.0571622481259,388.3064332846276 609.2072706125102,378.65048579484323 617.8865078790415,371.96128660572197 618.5649545560393,370.52209808308066 626.7897879180528,365.68230939170587 635.8044552040395,360.82994979943805 644.6790524920344,359.174238985613 644.7371388982147,358.3937294228533 653.6996690871841,352.71153403632786 654.2252437508475,351.1024723517962 662.7794536010697,341.2730087265048 672.25213358542,326.68248938008844 681.2014058916571,311.9465597846721 690.0634226362359,300.66151428769695 698.9376030358986,294.11965207395747 699.1834889851976,292.8611182199613 708.6823069299642,287.007296499263 717.8950483888991,280.29083143955506 717.9806928855978,278.31628107646463 726.7313048738911,269.93715557234873 735.7373825926859,257.96072018629275 744.57154171248,247.2788543962315 753.6122037577403,238.552492199134 753.7506150612813,236.42927663920136 762.6364595795841,230.28106057536934 763.136686494665,228.87397695060918 771.6712244267222,224.21700923318667 780.6262810585654,220.06854400300153 789.6001238250893,216.33349787663144 798.7068843491598,213.14867453673253 798.9143644608761,211.7415909119726 807.818078793307,205.1811306160348 808.2024194025338,203.05791505610227 816.9799467437598,191.51798152880247 826.0164269821618,175.08644773872857 835.5656537091426,159.24671813630607 844.5821796917573,147.85020937898582 845.8079746931088,146.34886925863657 854.6248546253194,141.2129028268613 863.7388717161399,133.48428152939152 873.6238671843457,123.59919647763115 873.9611907106048,121.5638765501003 885.7143324147121,109.25630242275258 897.3937326177748,97.00826941846924 908.8891157055554,83.75683515905746 920.5587407110102,75.24605924778962 921.0685300022055,74.37342302807986 931.6930029316552,71.2513847770407 932.3404739718111,70.55327580127289 943.1340385804826,64.6890565204792 943.6128434801814,62.761340103805765 954.4363893428011,49.642741182406326 954.8827942024493,46.55011054043109 965.6211820770535,31.796621565209307 966.135040302591,28.793941324511138 976.9229856734361,16.64077832884243 977.2962700914329,14.539192014339505 988.5447510646043,5.244899347442811 988.5926150562188,3.3570985664483715 1000,0 " /><polyline stroke="#f60" fill="none" stroke-width="3" points="-3.0304740533725614,1000 0,995.2380952380952 11.21633711100118,990.4761904761905 13.466457281069198,985.7142857142857 15.951698093040081,980.952380952381 17.616663065482612,976.1904761904761 19.320407511675164,971.4285714285714 20.674578063752033,966.6666666666666 22.726954027986455,961.9047619047619 24.56996960990431,957.1428571428571 26.482001888956738,952.3809523809524 28.30522382131765,947.6190476190476 30.958084071365654,942.8571428571429 32.80877738147172,938.0952380952381 34.38275657968431,933.3333333333334 36.14081375887605,928.5714285714286 38.498491014369726,923.8095238095239 39.96648948616209,919.047619047619 42.752480315250175,914.2857142857143 45.268097487085356,909.5238095238095 48.278022593464634,904.7619047619048 48.796935590027346,900 51.282415070567936,895.2380952380952 53.16919527690989,890.4761904761905 55.76372586643619,885.7142857142857 58.29882381313618,880.952380952381 60.69832007520858,876.1904761904761 63.220077699507634,871.4285714285714 66.13939473248544,866.6666666666666 68.82897575747808,861.9047619047619 69.55246377941614,857.1428571428571 72.17968101972033,852.3809523809524 74.13562122856096,847.6190476190476 77.01529040939313,842.8571428571429 79.7117067354771,838.0952380952381 82.84841362848866,833.3333333333334 85.53886761764822,828.5714285714286 88.72038562901899,823.8095238095239 92.13096220483514,819.047619047619 92.17456174147962,814.2857142857142 95.25417661120467,809.5238095238095 98.63510627751475,804.7619047619048 101.988473475979,800 104.95296640460634,795.2380952380952 105.21455945558891,790.4761904761905 108.86685737048988,785.7142857142858 109.31405265041572,780.952380952381 112.76906681264543,776.1904761904761 115.8947913036618,771.4285714285714 116.66589141243904,766.6666666666666 119.40715804438537,761.9047619047619 123.13151239769275,757.1428571428571 126.10972355799413,752.3809523809524 129.54001103103414,747.6190476190476 129.7254786050457,742.8571428571429 133.20260525395773,738.0952380952381 133.4884299392358,733.3333333333333 136.89583201462634,728.5714285714286 139.65916329531865,723.8095238095239 143.1829379768023,719.047619047619 147.0097383645856,714.2857142857142 150.54326646126205,709.5238095238095 154.68423566779234,704.7619047619048 157.9536477053009,700 160.9575018753457,695.2380952380952 164.6449052271269,690.4761904761905 168.20364214434915,685.7142857142858 173.68841607880395,680.952380952381 179.51929852311488,676.1904761904761 180.4345594508638,671.4285714285714 185.5926275879864,666.6666666666667 191.05169358233928,661.9047619047619 196.28244359458853,657.1428571428571 201.48763314098431,652.3809523809524 206.48485606697955,647.6190476190476 206.93527358104527,642.8571428571429 211.55641987521855,638.0952380952381 217.23821711135898,633.3333333333333 221.90756611891632,628.5714285714286 226.90011228738155,623.8095238095239 231.781249322234,619.047619047619 236.6787534972211,614.2857142857142 236.84957349124505,609.5238095238095 241.5887036649155,604.7619047619048 246.5978080125937,600 251.44644078531266,595.2380952380952 259.49071803897533,590.4761904761905 263.8874741884672,585.7142857142858 268.72214130628714,580.952380952381 268.85019981343606,576.1904761904761 275.4439705001611,571.4285714285714 279.8740865750874,566.6666666666667 280.10669723656514,561.9047619047619 284.73100927650955,557.1428571428571 289.7512437088753,552.3809523809524 296.4764559515634,547.6190476190476 301.55865041226787,542.8571428571429 306.38401560495856,538.0952380952381 306.443799997315,533.3333333333333 311.27016832755476,528.5714285714286 316.13832106264175,523.8095238095239 321.58655212924714,519.047619047619 328.6820480277185,514.2857142857142 328.9248594255694,509.5238095238095 335.4862647781984,504.76190476190476 342.1267661456071,500 348.9473849506199,495.23809523809524 355.7077459865754,490.4761904761905 362.5704836450988,485.71428571428567 362.7818589529456,480.95238095238096 369.25087591055154,476.19047619047615 375.9919559653751,471.42857142857144 382.8450095163916,466.66666666666663 389.4747411990769,461.9047619047619 396.0934297182921,457.1428571428571 402.82410924301,452.3809523809524 409.67087038576574,447.6190476190476 409.78666111997006,442.8571428571429 416.5634415113241,438.0952380952381 423.3688526468748,433.33333333333337 430.3244651048827,428.57142857142856 430.4184907246077,423.80952380952385 437.3561987667565,419.04761904761904 443.97174759572187,414.28571428571433 450.80829070123883,409.5238095238095 451.2457759223587,404.7619047619048 457.5382146158552,400 464.30268815098316,395.2380952380952 464.35711375649845,390.4761904761905 471.17628210278184,385.71428571428567 478.19319882378284,380.95238095238096 485.07156541742813,376.19047619047615 492.0493902068735,371.42857142857144 498.8437145099022,366.66666666666663 505.6278381807794,361.9047619047619 505.68747926777183,357.1428571428571 512.3627256720982,352.3809523809524 519.2302574422177,347.6190476190476 526.0829028595572,342.8571428571429 526.3027940495825,338.0952380952381 533.1164734356433,333.33333333333337 539.8171673290857,328.57142857142856 546.7215633879582,323.80952380952385 547.0369915221338,319.04761904761904 553.5879487151645,314.28571428571433 560.5250140197277,309.5238095238095 567.4071541823316,304.7619047619048 567.6433432048076,300 574.2971458113362,295.2380952380952 581.6269633852216,290.4761904761905 591.351213799722,285.71428571428567 600.0571622481259,280.95238095238096 609.2072706125102,276.19047619047615 617.8865078790415,271.42857142857144 618.5649545560393,266.66666666666663 626.7897879180528,261.9047619047619 635.8044552040395,257.1428571428571 644.6790524920344,252.3809523809524 644.7371388982147,247.6190476190476 653.6996690871841,242.8571428571429 654.2252437508475,238.09523809523807 662.7794536010697,233.33333333333337 672.25213358542,228.57142857142856 681.2014058916571,223.80952380952385 690.0634226362359,219.04761904761904 698.9376030358986,214.28571428571433 699.1834889851976,209.52380952380952 708.6823069299642,204.76190476190482 717.8950483888991,200 717.9806928855978,195.23809523809518 726.7313048738911,190.47619047619048 735.7373825926859,185.71428571428567 744.57154171248,180.95238095238096 753.6122037577403,176.19047619047615 753.7506150612813,171.42857142857144 762.6364595795841,166.66666666666663 763.136686494665,161.90476190476193 771.6712244267222,157.1428571428571 780.6262810585654,152.3809523809524 789.6001238250893,147.6190476190476 798.7068843491598,142.8571428571429 798.9143644608761,138.09523809523807 807.818078793307,133.33333333333337 808.2024194025338,128.57142857142856 816.9799467437598,123.80952380952385 826.0164269821618,119.04761904761904 835.5656537091426,114.28571428571433 844.5821796917573,109.52380952380952 845.8079746931088,104.76190476190482 854.6248546253194,100 863.7388717161399,95.23809523809518 873.6238671843457,90.47619047619048 873.9611907106048,85.71428571428567 885.7143324147121,80.95238095238096 897.3937326177748,76.19047619047615 908.8891157055554,71.42857142857144 920.5587407110102,66.66666666666663 921.0685300022055,61.904761904761926 931.6930029316552,57.14285714285711 932.3404739718111,52.38095238095241 943.1340385804826,47.61904761904759 943.6128434801814,42.85714285714289 954.4363893428011,38.095238095238074 954.8827942024493,33.33333333333337 965.6211820770535,28.571428571428555 966.135040302591,23.809523809523853 976.9229856734361,19.047619047619037 977.2962700914329,14.285714285714334 988.5447510646043,9.523809523809518 988.5926150562188,4.761904761904816 1000,0 " /></svg>