<svg xmlns="http://www.w3.org/2000/svg" width="1130" height="384" viewBox="77 168 1130 384" preserveAspectRatio="xMidYMid meet"><polyline stroke="black" fill="none" stroke-width="3" points="87,186 87,187 190,396 113,518 110,506 231,187 316,427 315,444 255,432 384,179 476,460 395,409 547,178 558,184 617,518 591,250 768,301 702,542 783,203 931,383 846,510 938,200 1067,303 1026,517 1012,363 1188,195 1194,194 1197,193 1197,193 " /><circle stroke="red" fill="none" stroke-width="1" cx="87" cy="186" r="6" /><circle stroke="red" fill="none" stroke-width="1" cx="87" cy="187" r="6" /><circle stroke="red" fill="none" stroke-width="1" cx="190" cy="396" r="6" /><circle stroke="red" fill="none" stroke-width="1" cx="113" cy="518" r="6" /><circle stroke="red" fill="none" stroke-width="1" cx="110" cy="506" r="6" /><circle stroke="red" fill="none" stroke-width="1" cx="231" cy="187" r="6" /><circle stroke="red" fill="none" stroke-width="1" cx="316" cy="427" r="6" /><circle stroke="red" fill="none" stroke-width="1" cx="315" cy="444" r="6" /><circle stroke="red" fill="none" stroke-width="1" cx="255" cy="432" r="6" /><circle stroke="red" fill="none" stroke-width="1" cx="384" cy="179" r="6" /><circle stroke="red" fill="none" stroke-width="1" cx="476" cy="460" r="6" /><circle stroke="red" fill="none" stroke-width="1" cx="395" cy="409" r="6" /><circle stroke="red" fill="none" stroke-width="1" cx="547" cy="178" r="6" /><circle stroke="red" fill="none" stroke-width="1" cx="558" cy="184" r="6" /><circle stroke="red" fill="none" stroke-width="1" cx="617" cy="518" r="6" /><circle stroke="red" fill="none" stroke-width="1" cx="591" cy="250" r="6" /><circle stroke="red" fill="none" stroke-width="1" cx="768" cy="301" r="6" /><circle stroke="red" fill="none" stroke-width="1" cx="702" cy="542" r="6" /><circle stroke="red" fill="none" stroke-width="1" cx="783" cy="203" r="6" /><circle stroke="red" fill="none" stroke-width="1" cx="931" cy="383" r="6" /><circle stroke="red" fill="none" stroke-width="1" cx="846" cy="510" r="6" /><circle stroke="red" fill="none" stroke-width="1" cx="938" cy="200" r="6" /><circle stroke="red" fill="none" stroke-width="1" cx="1067" cy="303" r="6" /><circle stroke="red" fill="none" stroke-width="1" cx="1026" cy="517" r="6" /><circle stroke="red" fill="none" stroke-width="1" cx="1012" cy="363" r="6" /><circle stroke="red" fill="none" stroke-width="1" cx="1188" cy="195" r="6" /><circle stroke="red" fill="none" stroke-width="1" cx="1194" cy="194" r="6" /><circle stroke="red" fill="none" stroke-width="1" cx="1197" cy="193" r="6" /><circle stroke="red" fill="none" stroke-width="1" cx="1197" cy="193" r="6" /></svg>