<svg xmlns="http://www.w3.org/2000/svg" width="800" height="400" viewBox="-10 -5 1010 1010" preserveAspectRatio="none"><line x1="0" y1="1000" x2="1000" y2="1000" stroke="black" stroke-width="2" /><line x1="0" y1="0"    x2="0"    y2="1000" stroke="black" stroke-width="2" /><line y1="1000" y2="1000" x1 ="-5" x2="10" stroke="black" /><line y1="629.6296296296296" y2="629.6296296296296" x1 ="-5" x2="10" stroke="black" /><line y1="259.25925925925924" y2="259.25925925925924" x1 ="-5" x2="10" stroke="black" /><line y1="0" y2="1000" x1 ="-0.28850852362373314" x2="-0.28850852362373314" stroke="#aaa"  stroke-width="2" /><line y1="0" y2="1000" x1 ="147.11184976363876" x2="147.11184976363876" stroke="#aaa"  stroke-width="2" /><line y1="0" y2="1000" x1 ="334.25217244260756" x2="334.25217244260756" stroke="#aaa"  stroke-width="2" /><line y1="0" y2="1000" x1 ="478.0822148406833" x2="478.0822148406833" stroke="#aaa"  stroke-width="2" /><line y1="0" y2="1000" x1 ="664.5990200348946" x2="664.5990200348946" stroke="#aaa"  stroke-width="2" /><line y1="0" y2="1000" x1 ="838.2165096025147" x2="838.2165096025147" stroke="#aaa"  stroke-width="2" /><line y1="0" y2="1000" x1 ="960.0675208641975" x2="960.0675208641975" stroke="#aaa"  stroke-width="2" /><polyline stroke="#368" fill="none" stroke-width="3" points="-1.0240558657576373,1000 0,999.7967273275572 52.49321827225899,952.4337584429321 100.08748592055724,923.1081967626769 100.63100711406254,920.5938526648267 147.09190317264762,851.2418162325639 193.63626426217442,799.4870609230736 194.86108449985454,796.0254520464101 241.56525788139209,783.5875561660156 287.9217990859325,725.8602644787234 334.4956382884954,665.7571721229415 382.07556347819855,646.3002499995647 428.894416534575,590.0906695980038 429.06502526343576,587.5436703126011 478.06436505282215,518.5994649108944 524.5216465545775,463.86662281632584 571.2997960479028,426.42359791509057 617.9436024714229,375.6310486186768 664.5811616029691,304.78184653099515 711.2774240187885,257.4127711919407 757.5878165169293,226.34860973180412 797.863391136422,160.61763218533906 838.1983725024077,127.06224532099202 878.5700737524693,82.7707205699486 919.2765139395467,51.33763984111363 959.6069071594593,1.8792640263575322 959.6935450766855,0.6428046309886213 1000,0 " /><polyline stroke="#f60" fill="none" stroke-width="3" points="-1.0240558657576373,1000 0,962.9629629629629 52.49321827225899,925.9259259259259 100.08748592055724,888.8888888888889 100.63100711406254,851.8518518518518 147.09190317264762,814.8148148148148 193.63626426217442,777.7777777777778 194.86108449985454,740.7407407407408 241.56525788139209,703.7037037037037 287.9217990859325,666.6666666666667 334.4956382884954,629.6296296296296 382.07556347819855,592.5925925925926 428.894416534575,555.5555555555555 429.06502526343576,518.5185185185185 478.06436505282215,481.4814814814815 524.5216465545775,444.44444444444446 571.2997960479028,407.4074074074074 617.9436024714229,370.3703703703703 664.5811616029691,333.33333333333337 711.2774240187885,296.2962962962963 757.5878165169293,259.25925925925924 797.863391136422,222.22222222222217 838.1983725024077,185.18518518518522 878.5700737524693,148.14814814814815 919.2765139395467,111.11111111111109 959.6069071594593,74.07407407407402 959.6935450766855,37.03703703703707 1000,0 " /></svg>