<svg xmlns="http://www.w3.org/2000/svg" width="1166" height="412" viewBox="68 119 1166 412" preserveAspectRatio="xMidYMid meet"><polyline stroke="black" fill="none" stroke-width="3" points="78,146 79,146 80,146 81,146 83,146 86,147 89,148 93,150 99,152 107,156 115,162 124,169 134,176 143,184 152,193 159,204 166,215 173,227 179,240 185,254 190,268 194,283 198,299 201,315 202,330 203,346 203,362 205,379 206,395 204,410 200,426 195,442 191,457 186,471 183,482 179,490 176,497 171,503 166,507 161,510 157,512 153,512 149,509 143,503 137,493 130,481 125,467 122,451 122,434 122,416 124,396 127,375 131,353 136,332 143,308 151,286 161,262 168,243 179,222 188,206 199,191 207,180 217,169 228,160 238,154 247,150 255,148 276,150 301,176 309,190 311,195 314,205 319,220 323,238 326,255 327,273 328,291 329,310 329,331 329,352 328,374 327,393 325,412 323,429 321,446 319,459 316,471 313,480 310,488 307,493 304,496 302,498 299,498 296,496 290,490 284,480 279,467 276,453 274,438 273,421 273,402 274,384 277,363 280,342 286,319 293,296 300,275 309,254 318,235 328,216 338,200 351,183 362,171 371,161 376,156 386,151 397,147 408,146 418,147 431,153 441,159 448,167 454,177 462,191 470,207 476,222 481,239 485,257 488,277 491,295 494,315 496,334 497,355 496,376 492,398 488,417 485,436 483,452 479,468 473,483 468,495 463,505 459,513 454,518 451,521 446,521 441,519 435,512 431,501 427,486 425,468 423,448 422,428 422,406 423,384 426,361 428,340 431,318 436,293 443,269 450,245 458,223 465,205 474,187 480,174 489,160 498,149 507,140 515,134 538,129 551,132 558,134 567,138 580,144 592,153 602,164 612,178 620,190 628,206 635,221 640,236 645,251 652,308 651,330 652,337 651,351 650,372 648,392 644,412 640,433 637,452 632,468 626,482 620,493 614,502 609,509 604,514 600,517 596,519 592,519 587,516 581,509 576,498 572,484 569,465 567,446 566,425 567,403 569,381 578,313 588,284 590,278 595,263 603,244 630,191 643,177 647,173 653,167 663,157 673,151 683,146 694,143 704,142 715,143 726,147 738,153 750,162 760,173 771,187 777,201 783,218 786,234 790,254 793,274 796,293 798,312 799,331 799,352 798,372 796,392 792,411 787,429 780,446 774,461 767,474 761,485 754,493 748,499 743,502 739,504 735,504 730,501 726,495 722,486 720,472 718,456 716,439 715,421 716,401 717,382 720,360 723,339 729,317 734,298 741,277 748,258 756,240 766,223 777,206 787,191 797,177 806,165 816,154 825,147 834,142 844,139 852,137 861,137 871,140 880,144 890,153 898,163 907,176 914,189 921,202 927,216 934,231 941,248 947,265 951,282 953,297 955,316 956,334 957,352 957,369 956,387 954,403 952,419 947,434 942,447 937,458 933,468 928,477 922,484 915,490 909,495 902,498 896,500 890,501 884,500 878,496 873,491 869,482 866,469 863,453 862,435 863,416 864,396 868,375 873,351 879,329 884,307 889,285 897,263 906,242 916,223 925,208 934,193 944,180 955,168 964,159 974,153 985,148 996,144 1005,143 1013,143 1023,145 1034,151 1045,159 1055,169 1063,180 1070,192 1076,204 1081,217 1085,231 1088,247 1090,263 1091,281 1091,296 1091,314 1091,329 1091,347 1090,363 1087,380 1084,396 1080,411 1077,425 1073,438 1069,450 1064,463 1059,474 1055,482 1051,489 1047,494 1042,499 1039,502 1036,503 1034,503 1031,501 1028,496 1025,488 1023,475 1022,460 1021,444 1022,426 1023,409 1026,392 1029,374 1034,356 1040,338 1048,320 1055,305 1062,288 1070,272 1081,254 1093,240 1104,228 1142,194 1154,184 1158,182 1168,175 1183,166 1199,157 1215,151 1224,147 1224,147 " /><circle stroke="red" fill="none" stroke-width="1" cx="78" cy="146" r="6" /><circle stroke="red" fill="none" stroke-width="1" cx="79" cy="146" r="6" /><circle stroke="red" fill="none" stroke-width="1" cx="80" cy="146" r="6" /><circle stroke="red" fill="none" stroke-width="1" cx="81" cy="146" r="6" /><circle stroke="red" fill="none" stroke-width="1" cx="83" cy="146" r="6" /><circle stroke="red" fill="none" stroke-width="1" cx="86" cy="147" r="6" /><circle stroke="red" fill="none" stroke-width="1" cx="89" cy="148" r="6" /><circle stroke="red" fill="none" stroke-width="1" cx="93" cy="150" r="6" /><circle stroke="red" fill="none" stroke-width="1" cx="99" cy="152" r="6" /><circle stroke="red" fill="none" stroke-width="1" cx="107" cy="156" r="6" /><circle stroke="red" fill="none" stroke-width="1" cx="115" cy="162" r="6" /><circle stroke="red" fill="none" stroke-width="1" cx="124" cy="169" r="6" /><circle stroke="red" fill="none" stroke-width="1" cx="134" cy="176" r="6" /><circle stroke="red" fill="none" stroke-width="1" cx="143" cy="184" r="6" /><circle stroke="red" fill="none" stroke-width="1" cx="152" cy="193" r="6" /><circle stroke="red" fill="none" stroke-width="1" cx="159" cy="204" r="6" /><circle stroke="red" fill="none" stroke-width="1" cx="166" cy="215" r="6" /><circle stroke="red" fill="none" stroke-width="1" cx="173" cy="227" r="6" /><circle stroke="red" fill="none" stroke-width="1" cx="179" cy="240" r="6" /><circle stroke="red" fill="none" stroke-width="1" cx="185" cy="254" r="6" /><circle stroke="red" fill="none" stroke-width="1" cx="190" cy="268" r="6" /><circle stroke="red" fill="none" stroke-width="1" cx="194" cy="283" r="6" /><circle stroke="red" fill="none" stroke-width="1" cx="198" cy="299" r="6" /><circle stroke="red" fill="none" stroke-width="1" cx="201" cy="315" r="6" /><circle stroke="red" fill="none" stroke-width="1" cx="202" cy="330" r="6" /><circle stroke="red" fill="none" stroke-width="1" cx="203" cy="346" r="6" /><circle stroke="red" fill="none" stroke-width="1" cx="203" cy="362" r="6" /><circle stroke="red" fill="none" stroke-width="1" cx="205" cy="379" r="6" /><circle stroke="red" fill="none" stroke-width="1" cx="206" cy="395" r="6" /><circle stroke="red" fill="none" stroke-width="1" cx="204" cy="410" r="6" /><circle stroke="red" fill="none" stroke-width="1" cx="200" cy="426" r="6" /><circle stroke="red" fill="none" stroke-width="1" cx="195" cy="442" r="6" /><circle stroke="red" fill="none" stroke-width="1" cx="191" cy="457" r="6" /><circle stroke="red" fill="none" stroke-width="1" cx="186" cy="471" r="6" /><circle stroke="red" fill="none" stroke-width="1" cx="183" cy="482" r="6" /><circle stroke="red" fill="none" stroke-width="1" cx="179" cy="490" r="6" /><circle stroke="red" fill="none" stroke-width="1" cx="176" cy="497" r="6" /><circle stroke="red" fill="none" stroke-width="1" cx="171" cy="503" r="6" /><circle stroke="red" fill="none" stroke-width="1" cx="166" cy="507" r="6" /><circle stroke="red" fill="none" stroke-width="1" cx="161" cy="510" r="6" /><circle stroke="red" fill="none" stroke-width="1" cx="157" cy="512" r="6" /><circle stroke="red" fill="none" stroke-width="1" cx="153" cy="512" r="6" /><circle stroke="red" fill="none" stroke-width="1" cx="149" cy="509" r="6" /><circle stroke="red" fill="none" stroke-width="1" cx="143" cy="503" r="6" /><circle stroke="red" fill="none" stroke-width="1" cx="137" cy="493" r="6" /><circle stroke="red" fill="none" stroke-width="1" cx="130" cy="481" r="6" /><circle stroke="red" fill="none" stroke-width="1" cx="125" cy="467" r="6" /><circle stroke="red" fill="none" stroke-width="1" cx="122" cy="451" r="6" /><circle stroke="red" fill="none" stroke-width="1" cx="122" cy="434" r="6" /><circle stroke="red" fill="none" stroke-width="1" cx="122" cy="416" r="6" /><circle stroke="red" fill="none" stroke-width="1" cx="124" cy="396" r="6" /><circle stroke="red" fill="none" stroke-width="1" cx="127" cy="375" r="6" /><circle stroke="red" fill="none" stroke-width="1" cx="131" cy="353" r="6" /><circle stroke="red" fill="none" stroke-width="1" cx="136" cy="332" r="6" /><circle stroke="red" fill="none" stroke-width="1" cx="143" cy="308" r="6" /><circle stroke="red" fill="none" stroke-width="1" cx="151" cy="286" r="6" /><circle stroke="red" fill="none" stroke-width="1" cx="161" cy="262" r="6" /><circle stroke="red" fill="none" stroke-width="1" cx="168" cy="243" r="6" /><circle stroke="red" fill="none" stroke-width="1" cx="179" cy="222" r="6" /><circle stroke="red" fill="none" stroke-width="1" cx="188" cy="206" r="6" /><circle stroke="red" fill="none" stroke-width="1" cx="199" cy="191" r="6" /><circle stroke="red" fill="none" stroke-width="1" cx="207" cy="180" r="6" /><circle stroke="red" fill="none" stroke-width="1" cx="217" cy="169" r="6" /><circle stroke="red" fill="none" stroke-width="1" cx="228" cy="160" r="6" /><circle stroke="red" fill="none" stroke-width="1" cx="238" cy="154" r="6" /><circle stroke="red" fill="none" stroke-width="1" cx="247" cy="150" r="6" /><circle stroke="red" fill="none" stroke-width="1" cx="255" cy="148" r="6" /><circle stroke="red" fill="none" stroke-width="1" cx="276" cy="150" r="6" /><circle stroke="red" fill="none" stroke-width="1" cx="301" cy="176" r="6" /><circle stroke="red" fill="none" stroke-width="1" cx="309" cy="190" r="6" /><circle stroke="red" fill="none" stroke-width="1" cx="311" cy="195" r="6" /><circle stroke="red" fill="none" stroke-width="1" cx="314" cy="205" r="6" /><circle stroke="red" fill="none" stroke-width="1" cx="319" cy="220" r="6" /><circle stroke="red" fill="none" stroke-width="1" cx="323" cy="238" r="6" /><circle stroke="red" fill="none" stroke-width="1" cx="326" cy="255" r="6" /><circle stroke="red" fill="none" stroke-width="1" cx="327" cy="273" r="6" /><circle stroke="red" fill="none" stroke-width="1" cx="328" cy="291" r="6" /><circle stroke="red" fill="none" stroke-width="1" cx="329" cy="310" r="6" /><circle stroke="red" fill="none" stroke-width="1" cx="329" cy="331" r="6" /><circle stroke="red" fill="none" stroke-width="1" cx="329" cy="352" r="6" /><circle stroke="red" fill="none" stroke-width="1" cx="328" cy="374" r="6" /><circle stroke="red" fill="none" stroke-width="1" cx="327" cy="393" r="6" /><circle stroke="red" fill="none" stroke-width="1" cx="325" cy="412" r="6" /><circle stroke="red" fill="none" stroke-width="1" cx="323" cy="429" r="6" /><circle stroke="red" fill="none" stroke-width="1" cx="321" cy="446" r="6" /><circle stroke="red" fill="none" stroke-width="1" cx="319" cy="459" r="6" /><circle stroke="red" fill="none" stroke-width="1" cx="316" cy="471" r="6" /><circle stroke="red" fill="none" stroke-width="1" cx="313" cy="480" r="6" /><circle stroke="red" fill="none" stroke-width="1" cx="310" cy="488" r="6" /><circle stroke="red" fill="none" stroke-width="1" cx="307" cy="493" r="6" /><circle stroke="red" fill="none" stroke-width="1" cx="304" cy="496" r="6" /><circle stroke="red" fill="none" stroke-width="1" cx="302" cy="498" r="6" /><circle stroke="red" fill="none" stroke-width="1" cx="299" cy="498" r="6" /><circle stroke="red" fill="none" stroke-width="1" cx="296" cy="496" r="6" /><circle stroke="red" fill="none" stroke-width="1" cx="290" cy="490" r="6" /><circle stroke="red" fill="none" stroke-width="1" cx="284" cy="480" r="6" /><circle stroke="red" fill="none" stroke-width="1" cx="279" cy="467" r="6" /><circle stroke="red" fill="none" stroke-width="1" cx="276" cy="453" r="6" /><circle stroke="red" fill="none" stroke-width="1" cx="274" cy="438" r="6" /><circle stroke="red" fill="none" stroke-width="1" cx="273" cy="421" r="6" /><circle stroke="red" fill="none" stroke-width="1" cx="273" cy="402" r="6" /><circle stroke="red" fill="none" stroke-width="1" cx="274" cy="384" r="6" /><circle stroke="red" fill="none" stroke-width="1" cx="277" cy="363" r="6" /><circle stroke="red" fill="none" stroke-width="1" cx="280" cy="342" r="6" /><circle stroke="red" fill="none" stroke-width="1" cx="286" cy="319" r="6" /><circle stroke="red" fill="none" stroke-width="1" cx="293" cy="296" r="6" /><circle stroke="red" fill="none" stroke-width="1" cx="300" cy="275" r="6" /><circle stroke="red" fill="none" stroke-width="1" cx="309" cy="254" r="6" /><circle stroke="red" fill="none" stroke-width="1" cx="318" cy="235" r="6" /><circle stroke="red" fill="none" stroke-width="1" cx="328" cy="216" r="6" /><circle stroke="red" fill="none" stroke-width="1" cx="338" cy="200" r="6" /><circle stroke="red" fill="none" stroke-width="1" cx="351" cy="183" r="6" /><circle stroke="red" fill="none" stroke-width="1" cx="362" cy="171" r="6" /><circle stroke="red" fill="none" stroke-width="1" cx="371" cy="161" r="6" /><circle stroke="red" fill="none" stroke-width="1" cx="376" cy="156" r="6" /><circle stroke="red" fill="none" stroke-width="1" cx="386" cy="151" r="6" /><circle stroke="red" fill="none" stroke-width="1" cx="397" cy="147" r="6" /><circle stroke="red" fill="none" stroke-width="1" cx="408" cy="146" r="6" /><circle stroke="red" fill="none" stroke-width="1" cx="418" cy="147" r="6" /><circle stroke="red" fill="none" stroke-width="1" cx="431" cy="153" r="6" /><circle stroke="red" fill="none" stroke-width="1" cx="441" cy="159" r="6" /><circle stroke="red" fill="none" stroke-width="1" cx="448" cy="167" r="6" /><circle stroke="red" fill="none" stroke-width="1" cx="454" cy="177" r="6" /><circle stroke="red" fill="none" stroke-width="1" cx="462" cy="191" r="6" /><circle stroke="red" fill="none" stroke-width="1" cx="470" cy="207" r="6" /><circle stroke="red" fill="none" stroke-width="1" cx="476" cy="222" r="6" /><circle stroke="red" fill="none" stroke-width="1" cx="481" cy="239" r="6" /><circle stroke="red" fill="none" stroke-width="1" cx="485" cy="257" r="6" /><circle stroke="red" fill="none" stroke-width="1" cx="488" cy="277" r="6" /><circle stroke="red" fill="none" stroke-width="1" cx="491" cy="295" r="6" /><circle stroke="red" fill="none" stroke-width="1" cx="494" cy="315" r="6" /><circle stroke="red" fill="none" stroke-width="1" cx="496" cy="334" r="6" /><circle stroke="red" fill="none" stroke-width="1" cx="497" cy="355" r="6" /><circle stroke="red" fill="none" stroke-width="1" cx="496" cy="376" r="6" /><circle stroke="red" fill="none" stroke-width="1" cx="492" cy="398" r="6" /><circle stroke="red" fill="none" stroke-width="1" cx="488" cy="417" r="6" /><circle stroke="red" fill="none" stroke-width="1" cx="485" cy="436" r="6" /><circle stroke="red" fill="none" stroke-width="1" cx="483" cy="452" r="6" /><circle stroke="red" fill="none" stroke-width="1" cx="479" cy="468" r="6" /><circle stroke="red" fill="none" stroke-width="1" cx="473" cy="483" r="6" /><circle stroke="red" fill="none" stroke-width="1" cx="468" cy="495" r="6" /><circle stroke="red" fill="none" stroke-width="1" cx="463" cy="505" r="6" /><circle stroke="red" fill="none" stroke-width="1" cx="459" cy="513" r="6" /><circle stroke="red" fill="none" stroke-width="1" cx="454" cy="518" r="6" /><circle stroke="red" fill="none" stroke-width="1" cx="451" cy="521" r="6" /><circle stroke="red" fill="none" stroke-width="1" cx="446" cy="521" r="6" /><circle stroke="red" fill="none" stroke-width="1" cx="441" cy="519" r="6" /><circle stroke="red" fill="none" stroke-width="1" cx="435" cy="512" r="6" /><circle stroke="red" fill="none" stroke-width="1" cx="431" cy="501" r="6" /><circle stroke="red" fill="none" stroke-width="1" cx="427" cy="486" r="6" /><circle stroke="red" fill="none" stroke-width="1" cx="425" cy="468" r="6" /><circle stroke="red" fill="none" stroke-width="1" cx="423" cy="448" r="6" /><circle stroke="red" fill="none" stroke-width="1" cx="422" cy="428" r="6" /><circle stroke="red" fill="none" stroke-width="1" cx="422" cy="406" r="6" /><circle stroke="red" fill="none" stroke-width="1" cx="423" cy="384" r="6" /><circle stroke="red" fill="none" stroke-width="1" cx="426" cy="361" r="6" /><circle stroke="red" fill="none" stroke-width="1" cx="428" cy="340" r="6" /><circle stroke="red" fill="none" stroke-width="1" cx="431" cy="318" r="6" /><circle stroke="red" fill="none" stroke-width="1" cx="436" cy="293" r="6" /><circle stroke="red" fill="none" stroke-width="1" cx="443" cy="269" r="6" /><circle stroke="red" fill="none" stroke-width="1" cx="450" cy="245" r="6" /><circle stroke="red" fill="none" stroke-width="1" cx="458" cy="223" r="6" /><circle stroke="red" fill="none" stroke-width="1" cx="465" cy="205" r="6" /><circle stroke="red" fill="none" stroke-width="1" cx="474" cy="187" r="6" /><circle stroke="red" fill="none" stroke-width="1" cx="480" cy="174" r="6" /><circle stroke="red" fill="none" stroke-width="1" cx="489" cy="160" r="6" /><circle stroke="red" fill="none" stroke-width="1" cx="498" cy="149" r="6" /><circle stroke="red" fill="none" stroke-width="1" cx="507" cy="140" r="6" /><circle stroke="red" fill="none" stroke-width="1" cx="515" cy="134" r="6" /><circle stroke="red" fill="none" stroke-width="1" cx="538" cy="129" r="6" /><circle stroke="red" fill="none" stroke-width="1" cx="551" cy="132" r="6" /><circle stroke="red" fill="none" stroke-width="1" cx="558" cy="134" r="6" /><circle stroke="red" fill="none" stroke-width="1" cx="567" cy="138" r="6" /><circle stroke="red" fill="none" stroke-width="1" cx="580" cy="144" r="6" /><circle stroke="red" fill="none" stroke-width="1" cx="592" cy="153" r="6" /><circle stroke="red" fill="none" stroke-width="1" cx="602" cy="164" r="6" /><circle stroke="red" fill="none" stroke-width="1" cx="612" cy="178" r="6" /><circle stroke="red" fill="none" stroke-width="1" cx="620" cy="190" r="6" /><circle stroke="red" fill="none" stroke-width="1" cx="628" cy="206" r="6" /><circle stroke="red" fill="none" stroke-width="1" cx="635" cy="221" r="6" /><circle stroke="red" fill="none" stroke-width="1" cx="640" cy="236" r="6" /><circle stroke="red" fill="none" stroke-width="1" cx="645" cy="251" r="6" /><circle stroke="red" fill="none" stroke-width="1" cx="652" cy="308" r="6" /><circle stroke="red" fill="none" stroke-width="1" cx="651" cy="330" r="6" /><circle stroke="red" fill="none" stroke-width="1" cx="652" cy="337" r="6" /><circle stroke="red" fill="none" stroke-width="1" cx="651" cy="351" r="6" /><circle stroke="red" fill="none" stroke-width="1" cx="650" cy="372" r="6" /><circle stroke="red" fill="none" stroke-width="1" cx="648" cy="392" r="6" /><circle stroke="red" fill="none" stroke-width="1" cx="644" cy="412" r="6" /><circle stroke="red" fill="none" stroke-width="1" cx="640" cy="433" r="6" /><circle stroke="red" fill="none" stroke-width="1" cx="637" cy="452" r="6" /><circle stroke="red" fill="none" stroke-width="1" cx="632" cy="468" r="6" /><circle stroke="red" fill="none" stroke-width="1" cx="626" cy="482" r="6" /><circle stroke="red" fill="none" stroke-width="1" cx="620" cy="493" r="6" /><circle stroke="red" fill="none" stroke-width="1" cx="614" cy="502" r="6" /><circle stroke="red" fill="none" stroke-width="1" cx="609" cy="509" r="6" /><circle stroke="red" fill="none" stroke-width="1" cx="604" cy="514" r="6" /><circle stroke="red" fill="none" stroke-width="1" cx="600" cy="517" r="6" /><circle stroke="red" fill="none" stroke-width="1" cx="596" cy="519" r="6" /><circle stroke="red" fill="none" stroke-width="1" cx="592" cy="519" r="6" /><circle stroke="red" fill="none" stroke-width="1" cx="587" cy="516" r="6" /><circle stroke="red" fill="none" stroke-width="1" cx="581" cy="509" r="6" /><circle stroke="red" fill="none" stroke-width="1" cx="576" cy="498" r="6" /><circle stroke="red" fill="none" stroke-width="1" cx="572" cy="484" r="6" /><circle stroke="red" fill="none" stroke-width="1" cx="569" cy="465" r="6" /><circle stroke="red" fill="none" stroke-width="1" cx="567" cy="446" r="6" /><circle stroke="red" fill="none" stroke-width="1" cx="566" cy="425" r="6" /><circle stroke="red" fill="none" stroke-width="1" cx="567" cy="403" r="6" /><circle stroke="red" fill="none" stroke-width="1" cx="569" cy="381" r="6" /><circle stroke="red" fill="none" stroke-width="1" cx="578" cy="313" r="6" /><circle stroke="red" fill="none" stroke-width="1" cx="588" cy="284" r="6" /><circle stroke="red" fill="none" stroke-width="1" cx="590" cy="278" r="6" /><circle stroke="red" fill="none" stroke-width="1" cx="595" cy="263" r="6" /><circle stroke="red" fill="none" stroke-width="1" cx="603" cy="244" r="6" /><circle stroke="red" fill="none" stroke-width="1" cx="630" cy="191" r="6" /><circle stroke="red" fill="none" stroke-width="1" cx="643" cy="177" r="6" /><circle stroke="red" fill="none" stroke-width="1" cx="647" cy="173" r="6" /><circle stroke="red" fill="none" stroke-width="1" cx="653" cy="167" r="6" /><circle stroke="red" fill="none" stroke-width="1" cx="663" cy="157" r="6" /><circle stroke="red" fill="none" stroke-width="1" cx="673" cy="151" r="6" /><circle stroke="red" fill="none" stroke-width="1" cx="683" cy="146" r="6" /><circle stroke="red" fill="none" stroke-width="1" cx="694" cy="143" r="6" /><circle stroke="red" fill="none" stroke-width="1" cx="704" cy="142" r="6" /><circle stroke="red" fill="none" stroke-width="1" cx="715" cy="143" r="6" /><circle stroke="red" fill="none" stroke-width="1" cx="726" cy="147" r="6" /><circle stroke="red" fill="none" stroke-width="1" cx="738" cy="153" r="6" /><circle stroke="red" fill="none" stroke-width="1" cx="750" cy="162" r="6" /><circle stroke="red" fill="none" stroke-width="1" cx="760" cy="173" r="6" /><circle stroke="red" fill="none" stroke-width="1" cx="771" cy="187" r="6" /><circle stroke="red" fill="none" stroke-width="1" cx="777" cy="201" r="6" /><circle stroke="red" fill="none" stroke-width="1" cx="783" cy="218" r="6" /><circle stroke="red" fill="none" stroke-width="1" cx="786" cy="234" r="6" /><circle stroke="red" fill="none" stroke-width="1" cx="790" cy="254" r="6" /><circle stroke="red" fill="none" stroke-width="1" cx="793" cy="274" r="6" /><circle stroke="red" fill="none" stroke-width="1" cx="796" cy="293" r="6" /><circle stroke="red" fill="none" stroke-width="1" cx="798" cy="312" r="6" /><circle stroke="red" fill="none" stroke-width="1" cx="799" cy="331" r="6" /><circle stroke="red" fill="none" stroke-width="1" cx="799" cy="352" r="6" /><circle stroke="red" fill="none" stroke-width="1" cx="798" cy="372" r="6" /><circle stroke="red" fill="none" stroke-width="1" cx="796" cy="392" r="6" /><circle stroke="red" fill="none" stroke-width="1" cx="792" cy="411" r="6" /><circle stroke="red" fill="none" stroke-width="1" cx="787" cy="429" r="6" /><circle stroke="red" fill="none" stroke-width="1" cx="780" cy="446" r="6" /><circle stroke="red" fill="none" stroke-width="1" cx="774" cy="461" r="6" /><circle stroke="red" fill="none" stroke-width="1" cx="767" cy="474" r="6" /><circle stroke="red" fill="none" stroke-width="1" cx="761" cy="485" r="6" /><circle stroke="red" fill="none" stroke-width="1" cx="754" cy="493" r="6" /><circle stroke="red" fill="none" stroke-width="1" cx="748" cy="499" r="6" /><circle stroke="red" fill="none" stroke-width="1" cx="743" cy="502" r="6" /><circle stroke="red" fill="none" stroke-width="1" cx="739" cy="504" r="6" /><circle stroke="red" fill="none" stroke-width="1" cx="735" cy="504" r="6" /><circle stroke="red" fill="none" stroke-width="1" cx="730" cy="501" r="6" /><circle stroke="red" fill="none" stroke-width="1" cx="726" cy="495" r="6" /><circle stroke="red" fill="none" stroke-width="1" cx="722" cy="486" r="6" /><circle stroke="red" fill="none" stroke-width="1" cx="720" cy="472" r="6" /><circle stroke="red" fill="none" stroke-width="1" cx="718" cy="456" r="6" /><circle stroke="red" fill="none" stroke-width="1" cx="716" cy="439" r="6" /><circle stroke="red" fill="none" stroke-width="1" cx="715" cy="421" r="6" /><circle stroke="red" fill="none" stroke-width="1" cx="716" cy="401" r="6" /><circle stroke="red" fill="none" stroke-width="1" cx="717" cy="382" r="6" /><circle stroke="red" fill="none" stroke-width="1" cx="720" cy="360" r="6" /><circle stroke="red" fill="none" stroke-width="1" cx="723" cy="339" r="6" /><circle stroke="red" fill="none" stroke-width="1" cx="729" cy="317" r="6" /><circle stroke="red" fill="none" stroke-width="1" cx="734" cy="298" r="6" /><circle stroke="red" fill="none" stroke-width="1" cx="741" cy="277" r="6" /><circle stroke="red" fill="none" stroke-width="1" cx="748" cy="258" r="6" /><circle stroke="red" fill="none" stroke-width="1" cx="756" cy="240" r="6" /><circle stroke="red" fill="none" stroke-width="1" cx="766" cy="223" r="6" /><circle stroke="red" fill="none" stroke-width="1" cx="777" cy="206" r="6" /><circle stroke="red" fill="none" stroke-width="1" cx="787" cy="191" r="6" /><circle stroke="red" fill="none" stroke-width="1" cx="797" cy="177" r="6" /><circle stroke="red" fill="none" stroke-width="1" cx="806" cy="165" r="6" /><circle stroke="red" fill="none" stroke-width="1" cx="816" cy="154" r="6" /><circle stroke="red" fill="none" stroke-width="1" cx="825" cy="147" r="6" /><circle stroke="red" fill="none" stroke-width="1" cx="834" cy="142" r="6" /><circle stroke="red" fill="none" stroke-width="1" cx="844" cy="139" r="6" /><circle stroke="red" fill="none" stroke-width="1" cx="852" cy="137" r="6" /><circle stroke="red" fill="none" stroke-width="1" cx="861" cy="137" r="6" /><circle stroke="red" fill="none" stroke-width="1" cx="871" cy="140" r="6" /><circle stroke="red" fill="none" stroke-width="1" cx="880" cy="144" r="6" /><circle stroke="red" fill="none" stroke-width="1" cx="890" cy="153" r="6" /><circle stroke="red" fill="none" stroke-width="1" cx="898" cy="163" r="6" /><circle stroke="red" fill="none" stroke-width="1" cx="907" cy="176" r="6" /><circle stroke="red" fill="none" stroke-width="1" cx="914" cy="189" r="6" /><circle stroke="red" fill="none" stroke-width="1" cx="921" cy="202" r="6" /><circle stroke="red" fill="none" stroke-width="1" cx="927" cy="216" r="6" /><circle stroke="red" fill="none" stroke-width="1" cx="934" cy="231" r="6" /><circle stroke="red" fill="none" stroke-width="1" cx="941" cy="248" r="6" /><circle stroke="red" fill="none" stroke-width="1" cx="947" cy="265" r="6" /><circle stroke="red" fill="none" stroke-width="1" cx="951" cy="282" r="6" /><circle stroke="red" fill="none" stroke-width="1" cx="953" cy="297" r="6" /><circle stroke="red" fill="none" stroke-width="1" cx="955" cy="316" r="6" /><circle stroke="red" fill="none" stroke-width="1" cx="956" cy="334" r="6" /><circle stroke="red" fill="none" stroke-width="1" cx="957" cy="352" r="6" /><circle stroke="red" fill="none" stroke-width="1" cx="957" cy="369" r="6" /><circle stroke="red" fill="none" stroke-width="1" cx="956" cy="387" r="6" /><circle stroke="red" fill="none" stroke-width="1" cx="954" cy="403" r="6" /><circle stroke="red" fill="none" stroke-width="1" cx="952" cy="419" r="6" /><circle stroke="red" fill="none" stroke-width="1" cx="947" cy="434" r="6" /><circle stroke="red" fill="none" stroke-width="1" cx="942" cy="447" r="6" /><circle stroke="red" fill="none" stroke-width="1" cx="937" cy="458" r="6" /><circle stroke="red" fill="none" stroke-width="1" cx="933" cy="468" r="6" /><circle stroke="red" fill="none" stroke-width="1" cx="928" cy="477" r="6" /><circle stroke="red" fill="none" stroke-width="1" cx="922" cy="484" r="6" /><circle stroke="red" fill="none" stroke-width="1" cx="915" cy="490" r="6" /><circle stroke="red" fill="none" stroke-width="1" cx="909" cy="495" r="6" /><circle stroke="red" fill="none" stroke-width="1" cx="902" cy="498" r="6" /><circle stroke="red" fill="none" stroke-width="1" cx="896" cy="500" r="6" /><circle stroke="red" fill="none" stroke-width="1" cx="890" cy="501" r="6" /><circle stroke="red" fill="none" stroke-width="1" cx="884" cy="500" r="6" /><circle stroke="red" fill="none" stroke-width="1" cx="878" cy="496" r="6" /><circle stroke="red" fill="none" stroke-width="1" cx="873" cy="491" r="6" /><circle stroke="red" fill="none" stroke-width="1" cx="869" cy="482" r="6" /><circle stroke="red" fill="none" stroke-width="1" cx="866" cy="469" r="6" /><circle stroke="red" fill="none" stroke-width="1" cx="863" cy="453" r="6" /><circle stroke="red" fill="none" stroke-width="1" cx="862" cy="435" r="6" /><circle stroke="red" fill="none" stroke-width="1" cx="863" cy="416" r="6" /><circle stroke="red" fill="none" stroke-width="1" cx="864" cy="396" r="6" /><circle stroke="red" fill="none" stroke-width="1" cx="868" cy="375" r="6" /><circle stroke="red" fill="none" stroke-width="1" cx="873" cy="351" r="6" /><circle stroke="red" fill="none" stroke-width="1" cx="879" cy="329" r="6" /><circle stroke="red" fill="none" stroke-width="1" cx="884" cy="307" r="6" /><circle stroke="red" fill="none" stroke-width="1" cx="889" cy="285" r="6" /><circle stroke="red" fill="none" stroke-width="1" cx="897" cy="263" r="6" /><circle stroke="red" fill="none" stroke-width="1" cx="906" cy="242" r="6" /><circle stroke="red" fill="none" stroke-width="1" cx="916" cy="223" r="6" /><circle stroke="red" fill="none" stroke-width="1" cx="925" cy="208" r="6" /><circle stroke="red" fill="none" stroke-width="1" cx="934" cy="193" r="6" /><circle stroke="red" fill="none" stroke-width="1" cx="944" cy="180" r="6" /><circle stroke="red" fill="none" stroke-width="1" cx="955" cy="168" r="6" /><circle stroke="red" fill="none" stroke-width="1" cx="964" cy="159" r="6" /><circle stroke="red" fill="none" stroke-width="1" cx="974" cy="153" r="6" /><circle stroke="red" fill="none" stroke-width="1" cx="985" cy="148" r="6" /><circle stroke="red" fill="none" stroke-width="1" cx="996" cy="144" r="6" /><circle stroke="red" fill="none" stroke-width="1" cx="1005" cy="143" r="6" /><circle stroke="red" fill="none" stroke-width="1" cx="1013" cy="143" r="6" /><circle stroke="red" fill="none" stroke-width="1" cx="1023" cy="145" r="6" /><circle stroke="red" fill="none" stroke-width="1" cx="1034" cy="151" r="6" /><circle stroke="red" fill="none" stroke-width="1" cx="1045" cy="159" r="6" /><circle stroke="red" fill="none" stroke-width="1" cx="1055" cy="169" r="6" /><circle stroke="red" fill="none" stroke-width="1" cx="1063" cy="180" r="6" /><circle stroke="red" fill="none" stroke-width="1" cx="1070" cy="192" r="6" /><circle stroke="red" fill="none" stroke-width="1" cx="1076" cy="204" r="6" /><circle stroke="red" fill="none" stroke-width="1" cx="1081" cy="217" r="6" /><circle stroke="red" fill="none" stroke-width="1" cx="1085" cy="231" r="6" /><circle stroke="red" fill="none" stroke-width="1" cx="1088" cy="247" r="6" /><circle stroke="red" fill="none" stroke-width="1" cx="1090" cy="263" r="6" /><circle stroke="red" fill="none" stroke-width="1" cx="1091" cy="281" r="6" /><circle stroke="red" fill="none" stroke-width="1" cx="1091" cy="296" r="6" /><circle stroke="red" fill="none" stroke-width="1" cx="1091" cy="314" r="6" /><circle stroke="red" fill="none" stroke-width="1" cx="1091" cy="329" r="6" /><circle stroke="red" fill="none" stroke-width="1" cx="1091" cy="347" r="6" /><circle stroke="red" fill="none" stroke-width="1" cx="1090" cy="363" r="6" /><circle stroke="red" fill="none" stroke-width="1" cx="1087" cy="380" r="6" /><circle stroke="red" fill="none" stroke-width="1" cx="1084" cy="396" r="6" /><circle stroke="red" fill="none" stroke-width="1" cx="1080" cy="411" r="6" /><circle stroke="red" fill="none" stroke-width="1" cx="1077" cy="425" r="6" /><circle stroke="red" fill="none" stroke-width="1" cx="1073" cy="438" r="6" /><circle stroke="red" fill="none" stroke-width="1" cx="1069" cy="450" r="6" /><circle stroke="red" fill="none" stroke-width="1" cx="1064" cy="463" r="6" /><circle stroke="red" fill="none" stroke-width="1" cx="1059" cy="474" r="6" /><circle stroke="red" fill="none" stroke-width="1" cx="1055" cy="482" r="6" /><circle stroke="red" fill="none" stroke-width="1" cx="1051" cy="489" r="6" /><circle stroke="red" fill="none" stroke-width="1" cx="1047" cy="494" r="6" /><circle stroke="red" fill="none" stroke-width="1" cx="1042" cy="499" r="6" /><circle stroke="red" fill="none" stroke-width="1" cx="1039" cy="502" r="6" /><circle stroke="red" fill="none" stroke-width="1" cx="1036" cy="503" r="6" /><circle stroke="red" fill="none" stroke-width="1" cx="1034" cy="503" r="6" /><circle stroke="red" fill="none" stroke-width="1" cx="1031" cy="501" r="6" /><circle stroke="red" fill="none" stroke-width="1" cx="1028" cy="496" r="6" /><circle stroke="red" fill="none" stroke-width="1" cx="1025" cy="488" r="6" /><circle stroke="red" fill="none" stroke-width="1" cx="1023" cy="475" r="6" /><circle stroke="red" fill="none" stroke-width="1" cx="1022" cy="460" r="6" /><circle stroke="red" fill="none" stroke-width="1" cx="1021" cy="444" r="6" /><circle stroke="red" fill="none" stroke-width="1" cx="1022" cy="426" r="6" /><circle stroke="red" fill="none" stroke-width="1" cx="1023" cy="409" r="6" /><circle stroke="red" fill="none" stroke-width="1" cx="1026" cy="392" r="6" /><circle stroke="red" fill="none" stroke-width="1" cx="1029" cy="374" r="6" /><circle stroke="red" fill="none" stroke-width="1" cx="1034" cy="356" r="6" /><circle stroke="red" fill="none" stroke-width="1" cx="1040" cy="338" r="6" /><circle stroke="red" fill="none" stroke-width="1" cx="1048" cy="320" r="6" /><circle stroke="red" fill="none" stroke-width="1" cx="1055" cy="305" r="6" /><circle stroke="red" fill="none" stroke-width="1" cx="1062" cy="288" r="6" /><circle stroke="red" fill="none" stroke-width="1" cx="1070" cy="272" r="6" /><circle stroke="red" fill="none" stroke-width="1" cx="1081" cy="254" r="6" /><circle stroke="red" fill="none" stroke-width="1" cx="1093" cy="240" r="6" /><circle stroke="red" fill="none" stroke-width="1" cx="1104" cy="228" r="6" /><circle stroke="red" fill="none" stroke-width="1" cx="1142" cy="194" r="6" /><circle stroke="red" fill="none" stroke-width="1" cx="1154" cy="184" r="6" /><circle stroke="red" fill="none" stroke-width="1" cx="1158" cy="182" r="6" /><circle stroke="red" fill="none" stroke-width="1" cx="1168" cy="175" r="6" /><circle stroke="red" fill="none" stroke-width="1" cx="1183" cy="166" r="6" /><circle stroke="red" fill="none" stroke-width="1" cx="1199" cy="157" r="6" /><circle stroke="red" fill="none" stroke-width="1" cx="1215" cy="151" r="6" /><circle stroke="red" fill="none" stroke-width="1" cx="1224" cy="147" r="6" /><circle stroke="red" fill="none" stroke-width="1" cx="1224" cy="147" r="6" /></svg>