<svg xmlns="http://www.w3.org/2000/svg" width="800" height="400" viewBox="-10 -5 1010 1010" preserveAspectRatio="none"><line x1="0" y1="1000" x2="1000" y2="1000" stroke="black" stroke-width="2" /><line x1="0" y1="0"    x2="0"    y2="1000" stroke="black" stroke-width="2" /><line y1="1000" y2="1000" x1 ="-5" x2="10" stroke="black" /><line y1="974.6192893401015" y2="974.6192893401015" x1 ="-5" x2="10" stroke="black" /><line y1="949.2385786802031" y2="949.2385786802031" x1 ="-5" x2="10" stroke="black" /><line y1="923.8578680203045" y2="923.8578680203045" x1 ="-5" x2="10" stroke="black" /><line y1="898.4771573604061" y2="898.4771573604061" x1 ="-5" x2="10" stroke="black" /><line y1="873.0964467005076" y2="873.0964467005076" x1 ="-5" x2="10" stroke="black" /><line y1="847.7157360406092" y2="847.7157360406092" x1 ="-5" x2="10" stroke="black" /><line y1="822.3350253807107" y2="822.3350253807107" x1 ="-5" x2="10" stroke="black" /><line y1="796.9543147208121" y2="796.9543147208121" x1 ="-5" x2="10" stroke="black" /><line y1="771.5736040609137" y2="771.5736040609137" x1 ="-5" x2="10" stroke="black" /><line y1="746.1928934010152" y2="746.1928934010152" x1 ="-5" x2="10" stroke="black" /><line y1="720.8121827411168" y2="720.8121827411168" x1 ="-5" x2="10" stroke="black" /><line y1="695.4314720812183" y2="695.4314720812183" x1 ="-5" x2="10" stroke="black" /><line y1="670.0507614213197" y2="670.0507614213197" x1 ="-5" x2="10" stroke="black" /><line y1="644.6700507614213" y2="644.6700507614213" x1 ="-5" x2="10" stroke="black" /><line y1="619.2893401015228" y2="619.2893401015228" x1 ="-5" x2="10" stroke="black" /><line y1="593.9086294416244" y2="593.9086294416244" x1 ="-5" x2="10" stroke="black" /><line y1="568.5279187817259" y2="568.5279187817259" x1 ="-5" x2="10" stroke="black" /><line y1="543.1472081218274" y2="543.1472081218274" x1 ="-5" x2="10" stroke="black" /><line y1="517.7664974619289" y2="517.7664974619289" x1 ="-5" x2="10" stroke="black" /><line y1="492.38578680203045" y2="492.38578680203045" x1 ="-5" x2="10" stroke="black" /><line y1="467.005076142132" y2="467.005076142132" x1 ="-5" x2="10" stroke="black" /><line y1="441.62436548223354" y2="441.62436548223354" x1 ="-5" x2="10" stroke="black" /><line y1="416.243654822335" y2="416.243654822335" x1 ="-5" x2="10" stroke="black" /><line y1="390.8629441624365" y2="390.8629441624365" x1 ="-5" x2="10" stroke="black" /><line y1="365.48223350253807" y2="365.48223350253807" x1 ="-5" x2="10" stroke="black" /><line y1="340.1015228426396" y2="340.1015228426396" x1 ="-5" x2="10" stroke="black" /><line y1="314.72081218274116" y2="314.72081218274116" x1 ="-5" x2="10" stroke="black" /><line y1="289.3401015228426" y2="289.3401015228426" x1 ="-5" x2="10" stroke="black" /><line y1="263.95939086294413" y2="263.95939086294413" x1 ="-5" x2="10" stroke="black" /><line y1="238.57868020304568" y2="238.57868020304568" x1 ="-5" x2="10" stroke="black" /><line y1="213.19796954314722" y2="213.19796954314722" x1 ="-5" x2="10" stroke="black" /><line y1="187.81725888324877" y2="187.81725888324877" x1 ="-5" x2="10" stroke="black" /><line y1="162.4365482233502" y2="162.4365482233502" x1 ="-5" x2="10" stroke="black" /><line y1="137.05583756345175" y2="137.05583756345175" x1 ="-5" x2="10" stroke="black" /><line y1="111.67512690355329" y2="111.67512690355329" x1 ="-5" x2="10" stroke="black" /><line y1="86.29441624365484" y2="86.29441624365484" x1 ="-5" x2="10" stroke="black" /><line y1="60.91370558375638" y2="60.91370558375638" x1 ="-5" x2="10" stroke="black" /><line y1="35.532994923857814" y2="35.532994923857814" x1 ="-5" x2="10" stroke="black" /><line y1="10.15228426395936" y2="10.15228426395936" x1 ="-5" x2="10" stroke="black" /><line y1="0" y2="1000" x1 ="-8.7388364946243" x2="-8.7388364946243" stroke="#aaa"  stroke-width="2" /><line y1="0" y2="1000" x1 ="5.0074793570399665" x2="5.0074793570399665" stroke="#aaa"  stroke-width="2" /><line y1="0" y2="1000" x1 ="16.424056293338907" x2="16.424056293338907" stroke="#aaa"  stroke-width="2" /><line y1="0" y2="1000" x1 ="30.458378636872812" x2="30.458378636872812" stroke="#aaa"  stroke-width="2" /><line y1="0" y2="1000" x1 ="41.73531744085891" x2="41.73531744085891" stroke="#aaa"  stroke-width="2" /><line y1="0" y2="1000" x1 ="53.14143501365342" x2="53.14143501365342" stroke="#aaa"  stroke-width="2" /><line y1="0" y2="1000" x1 ="64.56963969707024" x2="64.56963969707024" stroke="#aaa"  stroke-width="2" /><line y1="0" y2="1000" x1 ="76.11219365440111" x2="76.11219365440111" stroke="#aaa"  stroke-width="2" /><line y1="0" y2="1000" x1 ="87.51970341696459" x2="87.51970341696459" stroke="#aaa"  stroke-width="2" /><line y1="0" y2="1000" x1 ="98.92603297323116" x2="98.92603297323116" stroke="#aaa"  stroke-width="2" /><line y1="0" y2="1000" x1 ="110.46874722416118" x2="110.46874722416118" stroke="#aaa"  stroke-width="2" /><line y1="0" y2="1000" x1 ="121.89652835305272" x2="121.89652835305272" stroke="#aaa"  stroke-width="2" /><line y1="0" y2="1000" x1 ="133.30072707675038" x2="133.30072707675038" stroke="#aaa"  stroke-width="2" /><line y1="0" y2="1000" x1 ="144.84709013787645" x2="144.84709013787645" stroke="#aaa"  stroke-width="2" /><line y1="0" y2="1000" x1 ="156.25533290684314" x2="156.25533290684314" stroke="#aaa"  stroke-width="2" /><line y1="0" y2="1000" x1 ="167.65939401999873" x2="167.65939401999873" stroke="#aaa"  stroke-width="2" /><line y1="0" y2="1000" x1 ="179.09588736716205" x2="179.09588736716205" stroke="#aaa"  stroke-width="2" /><line y1="0" y2="1000" x1 ="190.66479051267288" x2="190.66479051267288" stroke="#aaa"  stroke-width="2" /><line y1="0" y2="1000" x1 ="202.0700946573176" x2="202.0700946573176" stroke="#aaa"  stroke-width="2" /><line y1="0" y2="1000" x1 ="213.49031476741737" x2="213.49031476741737" stroke="#aaa"  stroke-width="2" /><line y1="0" y2="1000" x1 ="225.0401204291357" x2="225.0401204291357" stroke="#aaa"  stroke-width="2" /><line y1="0" y2="1000" x1 ="236.46032321762837" x2="236.46032321762837" stroke="#aaa"  stroke-width="2" /><line y1="0" y2="1000" x1 ="247.8862542339578" x2="247.8862542339578" stroke="#aaa"  stroke-width="2" /><line y1="0" y2="1000" x1 ="259.29041281551974" x2="259.29041281551974" stroke="#aaa"  stroke-width="2" /><line y1="0" y2="1000" x1 ="270.85222427529555" x2="270.85222427529555" stroke="#aaa"  stroke-width="2" /><line y1="0" y2="1000" x1 ="282.2654849487523" x2="282.2654849487523" stroke="#aaa"  stroke-width="2" /><line y1="0" y2="1000" x1 ="293.6782985597891" x2="293.6782985597891" stroke="#aaa"  stroke-width="2" /><line y1="0" y2="1000" x1 ="305.1272675879595" x2="305.1272675879595" stroke="#aaa"  stroke-width="2" /><line y1="0" y2="1000" x1 ="316.6694606784853" x2="316.6694606784853" stroke="#aaa"  stroke-width="2" /><line y1="0" y2="1000" x1 ="328.0768673362466" x2="328.0768673362466" stroke="#aaa"  stroke-width="2" /><line y1="0" y2="1000" x1 ="339.4876819513877" x2="339.4876819513877" stroke="#aaa"  stroke-width="2" /><line y1="0" y2="1000" x1 ="351.0301671721843" x2="351.0301671721843" stroke="#aaa"  stroke-width="2" /><line y1="0" y2="1000" x1 ="362.43870770781865" x2="362.43870770781865" stroke="#aaa"  stroke-width="2" /><line y1="0" y2="1000" x1 ="373.84542672528937" x2="373.84542672528937" stroke="#aaa"  stroke-width="2" /><line y1="0" y2="1000" x1 ="385.38726472287783" x2="385.38726472287783" stroke="#aaa"  stroke-width="2" /><line y1="0" y2="1000" x1 ="396.7978959489448" x2="396.7978959489448" stroke="#aaa"  stroke-width="2" /><line y1="0" y2="1000" x1 ="408.3405070950728" x2="408.3405070950728" stroke="#aaa"  stroke-width="2" /><line y1="0" y2="1000" x1 ="419.7463670433354" x2="419.7463670433354" stroke="#aaa"  stroke-width="2" /><line y1="0" y2="1000" x1 ="431.15610483192745" x2="431.15610483192745" stroke="#aaa"  stroke-width="2" /><line y1="0" y2="1000" x1 ="442.74916859436036" x2="442.74916859436036" stroke="#aaa"  stroke-width="2" /><line y1="0" y2="1000" x1 ="454.16218855247337" x2="454.16218855247337" stroke="#aaa"  stroke-width="2" /><line y1="0" y2="1000" x1 ="465.5693601312873" x2="465.5693601312873" stroke="#aaa"  stroke-width="2" /><line y1="0" y2="1000" x1 ="476.9812515729774" x2="476.9812515729774" stroke="#aaa"  stroke-width="2" /><line y1="0" y2="1000" x1 ="488.526320050213" x2="488.526320050213" stroke="#aaa"  stroke-width="2" /><line y1="0" y2="1000" x1 ="499.9384750277759" x2="499.9384750277759" stroke="#aaa"  stroke-width="2" /><line y1="0" y2="1000" x1 ="511.3471759944815" x2="511.3471759944815" stroke="#aaa"  stroke-width="2" /><line y1="0" y2="1000" x1 ="522.892931974535" x2="522.892931974535" stroke="#aaa"  stroke-width="2" /><line y1="0" y2="1000" x1 ="534.3060950421128" x2="534.3060950421128" stroke="#aaa"  stroke-width="2" /><line y1="0" y2="1000" x1 ="545.726223457675" x2="545.726223457675" stroke="#aaa"  stroke-width="2" /><line y1="0" y2="1000" x1 ="557.1435566333267" x2="557.1435566333267" stroke="#aaa"  stroke-width="2" /><line y1="0" y2="1000" x1 ="568.6882126913549" x2="568.6882126913549" stroke="#aaa"  stroke-width="2" /><line y1="0" y2="1000" x1 ="580.0923081727784" x2="580.0923081727784" stroke="#aaa"  stroke-width="2" /><line y1="0" y2="1000" x1 ="591.5043486352747" x2="591.5043486352747" stroke="#aaa"  stroke-width="2" /><line y1="0" y2="1000" x1 ="603.0577229603907" x2="603.0577229603907" stroke="#aaa"  stroke-width="2" /><line y1="0" y2="1000" x1 ="614.470032457683" x2="614.470032457683" stroke="#aaa"  stroke-width="2" /><line y1="0" y2="1000" x1 ="625.8744545751177" x2="625.8744545751177" stroke="#aaa"  stroke-width="2" /><line y1="0" y2="1000" x1 ="637.4205142331805" x2="637.4205142331805" stroke="#aaa"  stroke-width="2" /><line y1="0" y2="1000" x1 ="648.8241572907339" x2="648.8241572907339" stroke="#aaa"  stroke-width="2" /><line y1="0" y2="1000" x1 ="660.4031759796038" x2="660.4031759796038" stroke="#aaa"  stroke-width="2" /><line y1="0" y2="1000" x1 ="671.8128678521908" x2="671.8128678521908" stroke="#aaa"  stroke-width="2" /><line y1="0" y2="1000" x1 ="683.2160355278714" x2="683.2160355278714" stroke="#aaa"  stroke-width="2" /><line y1="0" y2="1000" x1 ="694.624885377911" x2="694.624885377911" stroke="#aaa"  stroke-width="2" /><line y1="0" y2="1000" x1 ="706.1718957997183" x2="706.1718957997183" stroke="#aaa"  stroke-width="2" /><line y1="0" y2="1000" x1 ="717.5769021776958" x2="717.5769021776958" stroke="#aaa"  stroke-width="2" /><line y1="0" y2="1000" x1 ="729.0179838260085" x2="729.0179838260085" stroke="#aaa"  stroke-width="2" /><line y1="0" y2="1000" x1 ="740.5607839976067" x2="740.5607839976067" stroke="#aaa"  stroke-width="2" /><line y1="0" y2="1000" x1 ="751.9695479269776" x2="751.9695479269776" stroke="#aaa"  stroke-width="2" /><line y1="0" y2="1000" x1 ="763.4038590266443" x2="763.4038590266443" stroke="#aaa"  stroke-width="2" /><line y1="0" y2="1000" x1 ="774.8189124863932" x2="774.8189124863932" stroke="#aaa"  stroke-width="2" /><line y1="0" y2="1000" x1 ="786.2903639977329" x2="786.2903639977329" stroke="#aaa"  stroke-width="2" /><line y1="0" y2="1000" x1 ="797.8347797528373" x2="797.8347797528373" stroke="#aaa"  stroke-width="2" /><line y1="0" y2="1000" x1 ="809.2381878689154" x2="809.2381878689154" stroke="#aaa"  stroke-width="2" /><line y1="0" y2="1000" x1 ="820.6474501381615" x2="820.6474501381615" stroke="#aaa"  stroke-width="2" /><line y1="0" y2="1000" x1 ="832.2095655508936" x2="832.2095655508936" stroke="#aaa"  stroke-width="2" /><line y1="0" y2="1000" x1 ="843.6160897690257" x2="843.6160897690257" stroke="#aaa"  stroke-width="2" /><line y1="0" y2="1000" x1 ="855.031257606368" x2="855.031257606368" stroke="#aaa"  stroke-width="2" /><line y1="0" y2="1000" x1 ="866.5741839782432" x2="866.5741839782432" stroke="#aaa"  stroke-width="2" /><line y1="0" y2="1000" x1 ="878.0218987021321" x2="878.0218987021321" stroke="#aaa"  stroke-width="2" /><line y1="0" y2="1000" x1 ="889.4360240811926" x2="889.4360240811926" stroke="#aaa"  stroke-width="2" /><line y1="0" y2="1000" x1 ="900.8446850432351" x2="900.8446850432351" stroke="#aaa"  stroke-width="2" /><line y1="0" y2="1000" x1 ="912.3886421881817" x2="912.3886421881817" stroke="#aaa"  stroke-width="2" /><line y1="0" y2="1000" x1 ="923.7937058924294" x2="923.7937058924294" stroke="#aaa"  stroke-width="2" /><line y1="0" y2="1000" x1 ="935.2062790630682" x2="935.2062790630682" stroke="#aaa"  stroke-width="2" /><line y1="0" y2="1000" x1 ="946.7585247342871" x2="946.7585247342871" stroke="#aaa"  stroke-width="2" /><line y1="0" y2="1000" x1 ="958.1640238157441" x2="958.1640238157441" stroke="#aaa"  stroke-width="2" /><line y1="0" y2="1000" x1 ="969.5960894303028" x2="969.5960894303028" stroke="#aaa"  stroke-width="2" /><line y1="0" y2="1000" x1 ="981.1404133533969" x2="981.1404133533969" stroke="#aaa"  stroke-width="2" /><line y1="0" y2="1000" x1 ="992.5550943986021" x2="992.5550943986021" stroke="#aaa"  stroke-width="2" /><polyline stroke="#368" fill="none" stroke-width="3" points="-10.328168281153301,1000 0,999.8328642203862 1.0821478566395328,999.6657284407726 6.008873333409267,999.4985926611588 13.552988574583722,999.1643211019314 15.95159008722853,998.635791359844 18.40898993124728,998.1072616177566 20.884811303979223,997.3598076883792 23.35841592347358,996.3027482042045 25.849164396977375,994.8078403454496 31.099925307527272,993.1364825493122 31.30413577758376,991.2308414636085 33.34176146809027,989.1906892743744 35.787802599787135,987.1781079766555 38.24476156767404,985.0508168000675 40.716882440335546,982.871632847161 43.1956251157824,980.6924488942544 45.69341344767422,978.3705244373375 48.17276870311614,975.9775042515569 50.630804360078976,973.4317679007371 53.117589072585695,970.9471159108626 55.59483095453887,968.3524708701434 58.072622728767456,965.5959969774739 60.559642107802794,962.8752236059526 63.040183205937836,960.3626218955889 65.51586105678521,957.6832315192976 67.99623636239849,955.0090590454778 70.48675003190105,952.1481553305063 72.95387609554787,949.468764954215 75.43211438230504,946.9395416620947 77.90953387946243,944.1830677694252 80.38611699046923,941.3813615677665 82.87204249629572,938.7867165270472 85.35293305097079,936.3020645371728 87.82759717540813,934.3964234514691 90.3002737142139,932.9015155927141 92.78454954321313,931.6286474173043 95.26921497088912,930.3232752487437 97.75716820448243,929.2530840873567 100.22221498796164,928.2785233965216 102.70480099799641,927.5310694671441 105.1842252649193,926.8625263486891 107.66348910077045,926.0268474506205 110.14199669726884,924.6086533328952 112.62406718329557,922.6595319512248 115.11891125446968,920.337607494308 117.583637313279,917.8529555044336 120.07724412683332,915.1321821329122 122.55751605269826,912.2908738794788 125.0157979239279,909.2824298464316 127.51019520762823,905.9230422525172 129.99057601216413,902.3775569582041 132.4713750097763,898.6402873113167 134.95482022649233,895.0323216970925 137.43186153523752,890.8539272067491 139.9070011790198,886.9413789173032 142.39121390788003,882.5958486473461 144.88733537881117,879.2116070455825 147.34768525741646,875.249396137412 149.82977856397287,872.1811910766754 152.3101879629078,869.0722858651623 154.79245324827266,866.7989934877914 157.2678564279283,864.314341497917 159.7502877807612,861.9388957496263 162.22927653300073,859.989774367956 164.70572794480742,858.343677840948 167.18423554130632,856.9654408946132 172.5312506955968,853.4397077611989 180.23912509376245,847.4112242168865 182.05580874193683,844.7162407484689 184.5161470728049,843.81618703008 186.99118924818083,842.0712382623069 189.47592327491898,839.4285895518701 191.9482390843917,836.3467580507638 194.42480487379194,833.4615471554439 196.92564057120308,830.448464038634 199.38269095868077,827.4353809218242 201.85933703235298,824.255405840883 204.34982774385227,820.7455544689944 206.81227986062845,817.235703097106 209.29250023409307,813.5549193651898 211.79235616094218,810.3749442842486 214.2720667842671,807.181819698222 216.73505724558154,804.3209159832504 219.21125075791008,801.4600122682789 221.6919408768518,799.2616843111517 224.17104991802688,797.1943288916495 226.6437951933674,795.6087396653875 229.12207953360175,794.1807309383912 231.59853658180415,793.2061702475561 234.083179188951,792.4970731886933 236.57333749057003,792.0243418161183 239.03116693792964,791.5229344772771 241.5205980070143,790.9203178539151 243.9855074548977,789.5021237361898 246.47240104607536,787.5530023545195 248.9515500919136,785.2250703210495 251.42880338413084,782.8320501352689 253.90675545195808,780.3028268431485 256.38648325941693,777.4566070765359 258.86386825083434,774.281027263875 261.36161657806355,771.267944147065 263.83046091759974,767.722458852752 266.32506441090277,764.1769735584387 268.7919211648084,760.2042014296467 271.2719411025387,756.1859847627584 273.76425924354396,752.4862765681471 276.2322100081316,748.6676720419174 279.10382761916213,745.1538435000596 281.21731576067305,741.5652861256696 283.6845908451271,738.4117745429344 286.1517169087744,734.834912660948 288.6538755095278,732.1141392894267 291.1036113674262,729.865557345689 293.6105587050637,728.6837289142512 296.0696541419157,726.8150940908075 298.551318120077,724.8588199460846 301.0214111274981,723.0127449213618 303.5168508694801,721.3330511244046 305.97820870062753,718.940030938624 308.46158545575554,716.9909095569537 310.93901636317753,715.2142318491346 313.4182972456895,713.2651104674643 315.89910737862,710.5701269990468 318.3943295007337,707.580311281537 320.85578480028653,704.8801501263703 323.3486643813059,701.9184965659911 325.8229332706698,698.8366650648848 328.3031708282679,695.4565531066385 330.77546354226524,692.4066113335185 333.2624315063739,689.0264993752721 335.7383673941715,685.8333747892455 338.2190001868426,682.3195462473877 340.70698215230755,678.8057177055299 343.1777568886777,675.0684480586425 345.6536526343392,671.8232582263195 348.1305966121516,668.6083373150024 350.6058449971317,665.9133538465849 353.0964274031685,663.1568799539152 355.56815304075656,660.4567187987486 358.0517586885443,658.28395366377 360.5346541504575,656.4153188403263 363.00844765794903,654.9204109815714 365.48804362873466,653.7385825501337 367.9668033508419,653.0294854912711 370.4465941209661,652.1938065932025 372.9242026435938,651.2937528748134 375.40898244886336,649.7528371242604 377.88334303276423,647.7965629795374 380.36485799011933,645.201917938818 382.8437780058241,642.1749602292878 385.3383071261982,638.8155726353734 387.80606322892027,635.4686812568457 390.28597415050643,631.7916941053435 392.76056376454017,628.1109103734273 395.25216594580263,624.234224878191 397.7202716425389,620.7084917447767 400.2055727456863,616.9974751951294 402.6815255426711,612.7363321867795 405.1611617930661,608.557937696436 407.63473190682,604.3795432060926 410.1257611003311,600.4669949166467 412.60333511721876,597.2390668547927 415.08366423188124,593.8755241725939 417.5513517355417,591.4825039868133 420.0358108161413,588.7008102284884 422.511580636472,586.3253644801978 424.99424679330656,584.1980733036098 427.46808607932957,582.5267155074725 432.8157426829594,578.5928064680807 434.92154951674246,576.3629370433785 437.4031732152954,575.1461702013597 439.8604298123763,573.5000736743518 442.3316341520869,571.1070534885712 444.8348470338069,568.600016794365 447.3007587978362,566.1153648044906 449.7692767763063,563.2398521244943 452.2538847402395,560.8293856310465 454.7216866214935,557.8395699135367 457.2591187496448,555.0729804863496 459.6769608555459,552.4303317759129 462.15267898600257,549.7876830654762 467.46285108286827,540.1893734022206 469.59001765726606,536.5085896703043 472.05611830929206,535.3267612388667 474.52774111702473,532.9808987836198 477.02844497776306,529.467070241762 479.48434402828866,526.1076826478478 481.9595695927391,522.6987682411678 484.4307625221847,519.1258133640415 486.9228285375822,515.9108924527245 489.392171216993,513.1091862510657 491.8706904987022,510.56344990024604 494.34314928016704,508.46924458417664 496.8297335569399,506.6613947140907 499.32926326019646,505.2236383740926 501.7858667227268,504.041809942655 504.2528726349117,503.20613104458636 506.7406252952969,502.45867711520884 509.23006213825045,501.79013399675387 511.6978469728442,500.8155733059187 514.1656889962344,499.27465755536554 516.6493977488237,497.25514824646024 519.1264332837002,494.8216145624231 521.6061668650274,491.606693651106 524.0945898440973,488.4135690650793 526.564058586313,484.89974052322157 529.0423715209458,481.21895679130523 531.520174705439,477.5268067418597 536.834213369842,466.0624617831862 538.9818232893774,460.935450854166 541.4395611796731,459.8783913699913 543.9204975128812,457.2357426595546 546.3972638754884,453.7901502937175 551.6816942776659,443.84873203925065 553.851282841573,440.65560745322387 556.319451363502,439.7101447080737 558.8151546413574,438.2919505903484 561.2708533936212,435.9282937274729 563.7522535609634,433.97917234580257 566.2317292428139,432.11053752235887 568.7320894208797,430.2048964366552 571.1897356166384,428.525202639698 573.6724248689484,426.6791276149753 576.1506747034426,424.7228534702524 578.6316110366507,422.4804916821199 581.1156920663104,419.9734549879139 583.5944691100246,417.48880299803943 586.0713043466396,414.5130350436808 588.5608614785276,411.96729869286105 591.0329478454491,408.9542155760512 593.5340239832583,406.23344220453 596.0130814720326,402.82452779785 598.5132012097008,399.4444158396037 600.986479330657,396.2294949282865 603.4273077585251,393.03637034225983 605.9057639400958,389.85639526131865 608.3793971539892,386.3465438894302 610.8602305198682,382.99965251090237 613.3352438259003,379.64026491698814 615.8271034942206,376.395075084665 618.2881408756439,373.272721049541 620.7691003043273,370.199967127803 623.2605588262325,367.4998059726363 625.7258977399836,365.0320757596054 628.2039816444836,362.93787044353587 630.6829705341969,361.1611927357168 633.1601436796153,359.7429986179916 635.6339485973714,358.76843792715636 638.1183618994392,358.0209839977789 640.5964970813936,357.3524408793239 643.0764081404535,356.3778801884888 645.5559012813832,355.1726469417648 648.0306800583598,353.5265504147568 650.5171610928576,351.16289355188144 652.996619453101,348.46791008346383 655.471810511811,345.6070063684924 657.9469500181207,342.59392325168255 660.4432837474701,339.2470318731547 662.9024994732567,336.0670567922135 665.3938837597045,332.3560402425662 667.8635473012584,328.81055494825307 670.342782542711,324.9992727768457 672.8225789492315,321.71557571906806 675.3010982309406,318.01586752445667 677.7745708762892,314.63162592269305 680.2616820873351,311.339432868677 682.7424351689418,308.0430000279024 685.221085874906,304.65875842613866 687.7008138198369,301.6456753093289 690.1835373029415,298.77016262933273 692.6585565203153,296.2631259351267 695.151527520925,293.77847394525224 697.6347724393797,291.87283285954857 700.1074719361887,290.15206468932 702.5950012028375,288.40711592154685 705.0705360816928,287.028878975212 707.550951254496,285.5246569586884 710.0279352369721,283.77970819091524 712.5049307671848,282.13361166390723 714.9863538925302,279.88502972016954 717.4664539770594,277.7446473973955 719.9611548012962,275.10199868695884 722.425800575833,272.63426847392793 724.9012953125526,270.1665382608969 727.4113532533214,267.62080191007726 729.8789832932396,264.85421248289015 732.3420424910881,261.7814585611519 734.818808853695,258.76837544434215 737.302271392018,255.84947453950429 739.7830702521567,253.3202512473839 742.2562909093699,250.12712666135724 744.7260920614658,247.11404354454737 747.2104194428655,244.10096042773762 749.6922092088853,241.25965217430405 752.1744171679804,238.24656905749418 754.6403173842721,235.5515855890768 757.121809521098,232.8566021206592 759.5990684497116,230.21395341022253 762.1014564930172,227.88602137675252 764.5813503679431,225.86651206784722 767.0441573027098,224.0664046310693 769.5142505850775,222.34563646084086 771.9935831574629,220.8047207102877 774.4899280221313,219.26380495973467 776.961584923185,217.958432791174 779.4397660211447,216.68556461576418 781.9290768012937,215.62850513158958 784.3883840841443,214.61185787388285 786.8697556570885,213.59521061617625 789.3465965300992,212.38997736945237 791.8311246221793,211.2081489380147 794.3083549563944,209.56205241100668 796.788546735461,207.33218298630447 799.2663383722165,204.61140961478316 801.7688752988562,201.5983264979733 804.2245737761737,198.418351417032 806.7063232625842,195.07146003850414 809.2024792392555,191.4985051613778 811.6938407051741,187.40112115873887 814.1454552700328,183.58983898733152 816.6249365882785,179.81908392594266 819.1041660558623,176.0483288645538 821.5780111157546,172.13578057510802 824.0661821066888,168.3171760488783 826.5424387191564,164.7286186744882 829.0212212617932,161.80493660198283 831.5015333297949,158.88125452947725 833.980172762967,156.1400239272682 836.461217974845,153.41925055574688 838.9415701849829,151.29195937915904 841.4259546177059,149.3428379974887 843.9046627874127,147.3233286885834 846.383204889651,145.36705454386038 848.9749560641707,143.85357568909512 851.396469800798,142.51648945218528 853.8325210395208,140.81203224884518 856.3107022749535,138.7178269327759 858.7816947686646,136.4445345554053 861.2607180266451,134.08087769252984 863.7504184054721,131.80758531515903 866.2148636068009,129.48566085824223 868.695267231867,127.24329907010986 871.1902145453158,124.91536703663985 873.6508450064553,122.48183335260273 876.1273192387912,119.76105998108142 878.6242942800073,117.06607651266381 881.0866716114338,114.05299339585395 883.5754667301012,111.54595670164792 886.0459725691485,108.5375126686007 888.5148228200262,106.03047597439468 890.9980443680593,103.02203194134745 893.4692258872408,100.34264156505628 895.948570144837,97.45743066973625 898.4195570021524,94.73665729821505 900.9108667781971,92.14201225749582 903.3879307699989,89.74899207171518 905.8682370641312,87.47569969434437 908.3338338773599,85.36158072599494 910.8156982912561,83.03364869252493 913.2914164217128,81.01413938361964 915.7747930393673,79.51923152486484 918.2420164339479,78.17173979065603 920.7304908279453,77.10154862926913 923.203494002763,75.91972019783134 925.6790746601508,75.21062313896869 928.1659395194573,74.68209339688156 930.6537151378449,74.34782183765401 933.1152391739324,73.74520521429213 935.592137373213,72.7706445234569 938.0832295293894,71.34263579646051 940.5614852752258,69.14430783933346 943.0297739486172,66.63170612896977 945.5088315748646,63.95231575267849 947.9908047299585,60.93923263586862 950.4684360731154,58.093012869256086 952.944114198909,55.20780197393617 955.4215162369873,52.157860200816344 957.8968449062397,49.03550616569237 960.3962599569567,45.86432771316845 962.8595597326753,42.57213465915254 965.3319211832074,39.805545231965425 967.8104459638403,36.732791310227185 970.2893489328848,33.74297559271736 972.7632169507798,30.217242459303066 975.240928440736,27.135410958196758 977.7235202246395,24.41463758667544 983.0283022774181,15.89235156997563 985.1719256154272,13.281607232854412 987.638753912407,12.534153303476955 990.1126619349651,10.494001114242792 992.6003344485516,7.570319041737434 995.0627806539854,4.502113981000662 997.5363680893462,1.6460965270080123 1000,1.1368683772161603e-13 " /><polyline stroke="#f60" fill="none" stroke-width="3" points="-10.328168281153301,1000 0,997.4619289340102 1.0821478566395328,994.9238578680203 6.008873333409267,992.3857868020305 13.552988574583722,989.8477157360406 15.95159008722853,987.3096446700507 18.40898993124728,984.7715736040609 20.884811303979223,982.2335025380711 23.35841592347358,979.6954314720812 25.849164396977375,977.1573604060914 31.099925307527272,974.6192893401015 31.30413577758376,972.0812182741116 33.34176146809027,969.5431472081218 35.787802599787135,967.005076142132 38.24476156767404,964.4670050761422 40.716882440335546,961.9289340101523 43.1956251157824,959.3908629441624 45.69341344767422,956.8527918781726 48.17276870311614,954.3147208121827 50.630804360078976,951.7766497461929 53.117589072585695,949.2385786802031 55.59483095453887,946.7005076142132 58.072622728767456,944.1624365482234 60.559642107802794,941.6243654822335 63.040183205937836,939.0862944162436 65.51586105678521,936.5482233502538 67.99623636239849,934.010152284264 70.48675003190105,931.4720812182741 72.95387609554787,928.9340101522843 75.43211438230504,926.3959390862944 77.90953387946243,923.8578680203045 80.38611699046923,921.3197969543147 82.87204249629572,918.7817258883249 85.35293305097079,916.243654822335 87.82759717540813,913.7055837563452 90.3002737142139,911.1675126903554 92.78454954321313,908.6294416243654 95.26921497088912,906.0913705583756 97.75716820448243,903.5532994923858 100.22221498796164,901.0152284263959 102.70480099799641,898.4771573604061 105.1842252649193,895.9390862944163 107.66348910077045,893.4010152284264 110.14199669726884,890.8629441624365 112.62406718329557,888.3248730964467 115.11891125446968,885.7868020304569 117.583637313279,883.248730964467 120.07724412683332,880.7106598984772 122.55751605269826,878.1725888324873 125.0157979239279,875.6345177664974 127.51019520762823,873.0964467005076 129.99057601216413,870.5583756345178 132.4713750097763,868.0203045685279 134.95482022649233,865.4822335025381 137.43186153523752,862.9441624365483 139.9070011790198,860.4060913705584 142.39121390788003,857.8680203045685 144.88733537881117,855.3299492385787 147.34768525741646,852.7918781725889 149.82977856397287,850.253807106599 152.3101879629078,847.7157360406092 154.79245324827266,845.1776649746193 157.2678564279283,842.6395939086294 159.7502877807612,840.1015228426396 162.22927653300073,837.5634517766498 164.70572794480742,835.0253807106599 167.18423554130632,832.4873096446701 172.5312506955968,829.9492385786803 180.23912509376245,827.4111675126903 182.05580874193683,824.8730964467005 184.5161470728049,822.3350253807107 186.99118924818083,819.7969543147208 189.47592327491898,817.258883248731 191.9482390843917,814.7208121827412 194.42480487379194,812.1827411167512 196.92564057120308,809.6446700507614 199.38269095868077,807.1065989847716 201.85933703235298,804.5685279187817 204.34982774385227,802.0304568527919 206.81227986062845,799.4923857868021 209.29250023409307,796.9543147208121 211.79235616094218,794.4162436548223 214.2720667842671,791.8781725888325 216.73505724558154,789.3401015228426 219.21125075791008,786.8020304568528 221.6919408768518,784.263959390863 224.17104991802688,781.725888324873 226.6437951933674,779.1878172588832 229.12207953360175,776.6497461928934 231.59853658180415,774.1116751269035 234.083179188951,771.5736040609137 236.57333749057003,769.0355329949239 239.03116693792964,766.497461928934 241.5205980070143,763.9593908629441 243.9855074548977,761.4213197969543 246.47240104607536,758.8832487309644 248.9515500919136,756.3451776649746 251.42880338413084,753.8071065989848 253.90675545195808,751.269035532995 256.38648325941693,748.730964467005 258.86386825083434,746.1928934010152 261.36161657806355,743.6548223350253 263.83046091759974,741.1167512690356 266.32506441090277,738.5786802030457 268.7919211648084,736.0406091370558 271.2719411025387,733.502538071066 273.76425924354396,730.9644670050761 276.2322100081316,728.4263959390863 279.10382761916213,725.8883248730965 281.21731576067305,723.3502538071066 283.6845908451271,720.8121827411168 286.1517169087744,718.274111675127 288.6538755095278,715.736040609137 291.1036113674262,713.1979695431472 293.6105587050637,710.6598984771574 296.0696541419157,708.1218274111675 298.551318120077,705.5837563451777 301.0214111274981,703.0456852791879 303.5168508694801,700.5076142131979 305.97820870062753,697.9695431472081 308.46158545575554,695.4314720812183 310.93901636317753,692.8934010152284 313.4182972456895,690.3553299492386 315.89910737862,687.8172588832488 318.3943295007337,685.2791878172588 320.85578480028653,682.741116751269 323.3486643813059,680.2030456852792 325.8229332706698,677.6649746192893 328.3031708282679,675.1269035532995 330.77546354226524,672.5888324873097 333.2624315063739,670.0507614213197 335.7383673941715,667.5126903553299 338.2190001868426,664.9746192893401 340.70698215230755,662.4365482233502 343.1777568886777,659.8984771573604 345.6536526343392,657.3604060913706 348.1305966121516,654.8223350253807 350.6058449971317,652.2842639593908 353.0964274031685,649.746192893401 355.56815304075656,647.2081218274111 358.0517586885443,644.6700507614213 360.5346541504575,642.1319796954315 363.00844765794903,639.5939086294416 365.48804362873466,637.0558375634519 367.9668033508419,634.5177664974619 370.4465941209661,631.979695431472 372.9242026435938,629.4416243654823 375.40898244886336,626.9035532994924 377.88334303276423,624.3654822335025 380.36485799011933,621.8274111675128 382.8437780058241,619.2893401015228 385.3383071261982,616.7512690355329 387.80606322892027,614.2131979695432 390.28597415050643,611.6751269035533 392.76056376454017,609.1370558375635 395.25216594580263,606.5989847715737 397.7202716425389,604.0609137055837 400.2055727456863,601.5228426395939 402.6815255426711,598.9847715736041 405.1611617930661,596.4467005076142 407.63473190682,593.9086294416244 410.1257611003311,591.3705583756346 412.60333511721876,588.8324873096446 415.08366423188124,586.2944162436548 417.5513517355417,583.756345177665 420.0358108161413,581.2182741116751 422.511580636472,578.6802030456853 424.99424679330656,576.1421319796955 427.46808607932957,573.6040609137056 432.8157426829594,571.0659898477157 434.92154951674246,568.5279187817259 437.4031732152954,565.989847715736 439.8604298123763,563.4517766497462 442.3316341520869,560.9137055837564 444.8348470338069,558.3756345177665 447.3007587978362,555.8375634517766 449.7692767763063,553.2994923857868 452.2538847402395,550.7614213197969 454.7216866214935,548.2233502538071 457.2591187496448,545.6852791878173 459.6769608555459,543.1472081218274 462.15267898600257,540.6091370558376 467.46285108286827,538.0710659898477 469.59001765726606,535.5329949238578 472.05611830929206,532.994923857868 474.52774111702473,530.4568527918782 477.02844497776306,527.9187817258883 479.48434402828866,525.3807106598985 481.9595695927391,522.8426395939086 484.4307625221847,520.3045685279187 486.9228285375822,517.7664974619289 489.392171216993,515.2284263959391 491.8706904987022,512.6903553299492 494.34314928016704,510.1522842639594 496.8297335569399,507.61421319796955 499.32926326019646,505.0761421319797 501.7858667227268,502.53807106598987 504.2528726349117,500 506.7406252952969,497.46192893401013 509.23006213825045,494.9238578680203 511.6978469728442,492.38578680203045 514.1656889962344,489.8477157360406 516.6493977488237,487.3096446700507 519.1264332837002,484.7715736040609 521.6061668650274,482.2335025380711 524.0945898440973,479.69543147208117 526.564058586313,477.15736040609136 529.0423715209458,474.61928934010155 531.520174705439,472.0812182741116 536.834213369842,469.5431472081218 538.9818232893774,467.005076142132 541.4395611796731,464.4670050761422 543.9204975128812,461.92893401015226 546.3972638754884,459.39086294416245 551.6816942776659,456.85279187817264 553.851282841573,454.3147208121827 556.319451363502,451.7766497461929 558.8151546413574,449.2385786802031 561.2708533936212,446.70050761421317 563.7522535609634,444.16243654822335 566.2317292428139,441.62436548223354 568.7320894208797,439.0862944162436 571.1897356166384,436.5482233502538 573.6724248689484,434.010152284264 576.1506747034426,431.47208121827407 578.6316110366507,428.93401015228426 581.1156920663104,426.39593908629445 583.5944691100246,423.8578680203045 586.0713043466396,421.3197969543147 588.5608614785276,418.7817258883249 591.0329478454491,416.243654822335 593.5340239832583,413.70558375634516 596.0130814720326,411.16751269035535 598.5132012097008,408.6294416243654 600.986479330657,406.0913705583756 603.4273077585251,403.5532994923858 605.9057639400958,401.015228426396 608.3793971539892,398.47715736040607 610.8602305198682,395.93908629441626 613.3352438259003,393.40101522842644 615.8271034942206,390.8629441624365 618.2881408756439,388.3248730964467 620.7691003043273,385.7868020304569 623.2605588262325,383.248730964467 625.7258977399836,380.71065989847716 628.2039816444836,378.17258883248735 630.6829705341969,375.6345177664974 633.1601436796153,373.0964467005076 635.6339485973714,370.5583756345178 638.1183618994392,368.0203045685279 640.5964970813936,365.48223350253807 643.0764081404535,362.94416243654825 645.5559012813832,360.40609137055833 648.0306800583598,357.8680203045685 650.5171610928576,355.3299492385787 652.996619453101,352.7918781725888 655.471810511811,350.25380710659897 657.9469500181207,347.71573604060916 660.4432837474701,345.17766497461923 662.9024994732567,342.6395939086294 665.3938837597045,340.1015228426396 667.8635473012584,337.5634517766498 670.342782542711,335.0253807106599 672.8225789492315,332.48730964467006 675.3010982309406,329.94923857868025 677.7745708762892,327.4111675126903 680.2616820873351,324.8730964467005 682.7424351689418,322.3350253807107 685.221085874906,319.7969543147208 687.7008138198369,317.25888324873097 690.1835373029415,314.72081218274116 692.6585565203153,312.18274111675123 695.151527520925,309.6446700507614 697.6347724393797,307.1065989847716 700.1074719361887,304.5685279187817 702.5950012028375,302.0304568527919 705.0705360816928,299.49238578680206 707.550951254496,296.95431472081214 710.0279352369721,294.4162436548223 712.5049307671848,291.8781725888325 714.9863538925302,289.3401015228426 717.4664539770594,286.8020304568528 719.9611548012962,284.26395939086296 722.425800575833,281.72588832487304 724.9012953125526,279.18781725888323 727.4113532533214,276.6497461928934 729.8789832932396,274.1116751269036 732.3420424910881,271.5736040609137 734.818808853695,269.03553299492387 737.302271392018,266.49746192893406 739.7830702521567,263.95939086294413 742.2562909093699,261.4213197969543 744.7260920614658,258.8832487309645 747.2104194428655,256.3451776649746 749.6922092088853,253.80710659898477 752.1744171679804,251.26903553299496 754.6403173842721,248.73096446700504 757.121809521098,246.19289340101523 759.5990684497116,243.65482233502541 762.1014564930172,241.1167512690355 764.5813503679431,238.57868020304568 767.0441573027098,236.04060913705587 769.5142505850775,233.50253807106594 771.9935831574629,230.96446700507613 774.4899280221313,228.42639593908632 776.961584923185,225.8883248730964 779.4397660211447,223.35025380710658 781.9290768012937,220.81218274111677 784.3883840841443,218.27411167512696 786.8697556570885,215.73604060913704 789.3465965300992,213.19796954314722 791.8311246221793,210.6598984771574 794.3083549563944,208.1218274111675 796.788546735461,205.58375634517768 799.2663383722165,203.04568527918786 801.7688752988562,200.50761421319794 804.2245737761737,197.96954314720813 806.7063232625842,195.43147208121832 809.2024792392555,192.8934010152284 811.6938407051741,190.35532994923858 814.1454552700328,187.81725888324877 816.6249365882785,185.27918781725884 819.1041660558623,182.74111675126903 821.5780111157546,180.20304568527922 824.0661821066888,177.6649746192893 826.5424387191564,175.12690355329948 829.0212212617932,172.58883248730967 831.5015333297949,170.05076142131975 833.980172762967,167.51269035532994 836.461217974845,164.97461928934013 838.9415701849829,162.4365482233502 841.4259546177059,159.8984771573604 843.9046627874127,157.36040609137058 846.383204889651,154.82233502538077 848.9749560641707,152.28426395939084 851.396469800798,149.74619289340103 853.8325210395208,147.20812182741122 856.3107022749535,144.6700507614213 858.7816947686646,142.13197969543148 861.2607180266451,139.59390862944167 863.7504184054721,137.05583756345175 866.2148636068009,134.51776649746193 868.695267231867,131.97969543147212 871.1902145453158,129.4416243654822 873.6508450064553,126.90355329949239 876.1273192387912,124.36548223350258 878.6242942800073,121.82741116751265 881.0866716114338,119.28934010152284 883.5754667301012,116.75126903553303 886.0459725691485,114.2131979695431 888.5148228200262,111.67512690355329 890.9980443680593,109.13705583756348 893.4692258872408,106.59898477157356 895.948570144837,104.06091370558374 898.4195570021524,101.52284263959393 900.9108667781971,98.98477157360401 903.3879307699989,96.4467005076142 905.8682370641312,93.90862944162438 908.3338338773599,91.37055837563457 910.8156982912561,88.83248730964465 913.2914164217128,86.29441624365484 915.7747930393673,83.75634517766503 918.2420164339479,81.2182741116751 920.7304908279453,78.68020304568529 923.203494002763,76.14213197969548 925.6790746601508,73.60406091370555 928.1659395194573,71.06598984771574 930.6537151378449,68.52791878172593 933.1152391739324,65.989847715736 935.592137373213,63.45177664974619 938.0832295293894,60.91370558375638 940.5614852752258,58.37563451776646 943.0297739486172,55.837563451776646 945.5088315748646,53.299492385786834 947.9908047299585,50.76142131979691 950.4684360731154,48.2233502538071 952.944114198909,45.68527918781729 955.4215162369873,43.14720812182736 957.8968449062397,40.60913705583755 960.3962599569567,38.07106598984774 962.8595597326753,35.532994923857814 965.3319211832074,32.994923857868 967.8104459638403,30.45685279187819 970.2893489328848,27.91878172588838 972.7632169507798,25.380710659898455 975.240928440736,22.842639593908643 977.7235202246395,20.304568527918832 983.0283022774181,17.766497461928907 985.1719256154272,15.228426395939096 987.638753912407,12.690355329949284 990.1126619349651,10.15228426395936 992.6003344485516,7.614213197969548 995.0627806539854,5.076142131979736 997.5363680893462,2.5380710659898114 1000,0 " /></svg>