<svg xmlns="http://www.w3.org/2000/svg" width="1143" height="393" viewBox="82 186 1143 393" preserveAspectRatio="xMidYMid meet"><polyline stroke="black" fill="none" stroke-width="3" points="93,197 92,197 92,196 92,197 93,197 95,198 98,199 102,202 106,206 111,210 116,214 122,218 128,223 134,227 148,241 156,249 163,256 167,263 170,271 175,280 188,304 193,316 197,328 201,339 203,353 207,379 207,391 207,404 208,417 209,430 209,442 209,454 207,468 203,481 200,493 197,504 188,527 182,537 177,546 171,553 165,559 159,563 154,566 150,568 146,569 143,569 140,568 135,564 130,558 126,550 121,540 117,529 114,517 113,488 113,471 114,455 115,437 118,420 123,402 128,384 143,329 147,310 148,307 153,296 160,282 168,267 173,255 178,244 184,235 191,226 198,217 205,209 212,204 218,201 234,197 246,203 252,208 269,226 285,249 297,270 301,282 305,295 308,308 310,323 316,355 319,370 320,385 319,400 319,415 320,430 322,473 318,492 318,500 317,512 315,524 312,534 309,541 309,546 308,549 306,553 304,555 302,557 300,558 297,557 292,553 286,547 279,539 274,529 269,518 260,490 255,462 254,444 254,427 256,409 259,392 262,373 273,334 281,317 289,298 297,283 307,266 316,253 326,240 335,229 352,211 365,202 369,200 375,200 382,200 392,203 401,208 411,215 420,221 428,230 443,249 459,274 467,289 472,302 477,316 480,329 481,343 484,407 483,421 483,436 480,454 478,469 474,483 473,494 471,506 464,526 461,534 453,547 450,551 447,553 443,555 437,556 430,555 424,551 419,546 413,538 409,528 406,517 405,504 405,472 407,455 414,402 417,384 421,365 426,348 433,330 438,314 449,282 456,266 464,252 470,241 477,232 482,224 502,204 508,201 515,199 522,198 530,198 538,200 566,218 575,227 593,244 602,253 614,274 625,299 630,311 636,335 641,359 642,372 644,386 645,412 645,423 646,436 643,459 642,470 640,481 637,491 631,512 628,521 624,530 620,539 615,547 611,553 606,558 601,561 597,563 594,564 591,563 587,562 583,558 577,552 572,544 567,534 564,524 562,512 558,484 557,469 558,438 559,422 563,404 569,385 575,366 581,352 585,336 590,322 596,306 602,293 608,279 615,265 625,252 632,241 645,226 660,212 668,207 676,204 682,202 688,201 694,201 700,203 709,207 717,213 729,223 735,232 744,250 754,273 765,306 770,332 774,358 775,370 774,386 772,414 771,426 767,451 761,475 758,486 747,515 737,532 728,544 723,550 720,552 717,553 715,553 713,552 711,550 707,546 704,540 701,531 699,521 696,494 697,477 699,438 702,416 706,396 712,377 715,360 721,341 727,324 734,308 741,294 747,281 754,267 768,243 775,235 792,217 808,205 828,199 841,197 850,198 860,199 871,203 879,208 894,222 901,231 911,251 919,274 927,300 933,327 938,354 940,367 943,394 943,406 944,419 943,432 942,446 940,458 938,470 936,481 931,501 927,511 923,520 919,528 910,542 906,548 901,552 895,555 890,557 882,558 874,557 867,555 860,551 852,545 844,536 839,527 834,517 830,490 831,472 832,455 835,435 840,415 846,396 853,376 864,339 871,322 879,303 887,286 895,268 902,254 917,230 926,219 934,210 943,204 949,200 963,197 970,196 977,197 994,202 1003,208 1031,231 1045,250 1052,261 1062,285 1071,311 1076,325 1081,350 1083,362 1084,375 1085,388 1088,412 1089,437 1088,450 1088,462 1085,476 1082,489 1077,502 1072,514 1068,524 1056,545 1043,560 1038,564 1031,567 1023,566 1018,562 1013,556 1009,548 1005,539 1000,516 999,491 1000,462 1003,447 1011,418 1023,389 1031,375 1037,362 1044,350 1057,327 1065,316 1072,306 1080,296 1086,286 1103,265 1113,255 1123,246 1133,239 1143,232 1155,223 1168,215 1181,207 1200,201 1209,201 1215,201 1215,201 " /><circle stroke="red" fill="none" stroke-width="1" cx="93" cy="197" r="6" /><circle stroke="red" fill="none" stroke-width="1" cx="92" cy="197" r="6" /><circle stroke="red" fill="none" stroke-width="1" cx="92" cy="196" r="6" /><circle stroke="red" fill="none" stroke-width="1" cx="92" cy="197" r="6" /><circle stroke="red" fill="none" stroke-width="1" cx="93" cy="197" r="6" /><circle stroke="red" fill="none" stroke-width="1" cx="95" cy="198" r="6" /><circle stroke="red" fill="none" stroke-width="1" cx="98" cy="199" r="6" /><circle stroke="red" fill="none" stroke-width="1" cx="102" cy="202" r="6" /><circle stroke="red" fill="none" stroke-width="1" cx="106" cy="206" r="6" /><circle stroke="red" fill="none" stroke-width="1" cx="111" cy="210" r="6" /><circle stroke="red" fill="none" stroke-width="1" cx="116" cy="214" r="6" /><circle stroke="red" fill="none" stroke-width="1" cx="122" cy="218" r="6" /><circle stroke="red" fill="none" stroke-width="1" cx="128" cy="223" r="6" /><circle stroke="red" fill="none" stroke-width="1" cx="134" cy="227" r="6" /><circle stroke="red" fill="none" stroke-width="1" cx="148" cy="241" r="6" /><circle stroke="red" fill="none" stroke-width="1" cx="156" cy="249" r="6" /><circle stroke="red" fill="none" stroke-width="1" cx="163" cy="256" r="6" /><circle stroke="red" fill="none" stroke-width="1" cx="167" cy="263" r="6" /><circle stroke="red" fill="none" stroke-width="1" cx="170" cy="271" r="6" /><circle stroke="red" fill="none" stroke-width="1" cx="175" cy="280" r="6" /><circle stroke="red" fill="none" stroke-width="1" cx="188" cy="304" r="6" /><circle stroke="red" fill="none" stroke-width="1" cx="193" cy="316" r="6" /><circle stroke="red" fill="none" stroke-width="1" cx="197" cy="328" r="6" /><circle stroke="red" fill="none" stroke-width="1" cx="201" cy="339" r="6" /><circle stroke="red" fill="none" stroke-width="1" cx="203" cy="353" r="6" /><circle stroke="red" fill="none" stroke-width="1" cx="207" cy="379" r="6" /><circle stroke="red" fill="none" stroke-width="1" cx="207" cy="391" r="6" /><circle stroke="red" fill="none" stroke-width="1" cx="207" cy="404" r="6" /><circle stroke="red" fill="none" stroke-width="1" cx="208" cy="417" r="6" /><circle stroke="red" fill="none" stroke-width="1" cx="209" cy="430" r="6" /><circle stroke="red" fill="none" stroke-width="1" cx="209" cy="442" r="6" /><circle stroke="red" fill="none" stroke-width="1" cx="209" cy="454" r="6" /><circle stroke="red" fill="none" stroke-width="1" cx="207" cy="468" r="6" /><circle stroke="red" fill="none" stroke-width="1" cx="203" cy="481" r="6" /><circle stroke="red" fill="none" stroke-width="1" cx="200" cy="493" r="6" /><circle stroke="red" fill="none" stroke-width="1" cx="197" cy="504" r="6" /><circle stroke="red" fill="none" stroke-width="1" cx="188" cy="527" r="6" /><circle stroke="red" fill="none" stroke-width="1" cx="182" cy="537" r="6" /><circle stroke="red" fill="none" stroke-width="1" cx="177" cy="546" r="6" /><circle stroke="red" fill="none" stroke-width="1" cx="171" cy="553" r="6" /><circle stroke="red" fill="none" stroke-width="1" cx="165" cy="559" r="6" /><circle stroke="red" fill="none" stroke-width="1" cx="159" cy="563" r="6" /><circle stroke="red" fill="none" stroke-width="1" cx="154" cy="566" r="6" /><circle stroke="red" fill="none" stroke-width="1" cx="150" cy="568" r="6" /><circle stroke="red" fill="none" stroke-width="1" cx="146" cy="569" r="6" /><circle stroke="red" fill="none" stroke-width="1" cx="143" cy="569" r="6" /><circle stroke="red" fill="none" stroke-width="1" cx="140" cy="568" r="6" /><circle stroke="red" fill="none" stroke-width="1" cx="135" cy="564" r="6" /><circle stroke="red" fill="none" stroke-width="1" cx="130" cy="558" r="6" /><circle stroke="red" fill="none" stroke-width="1" cx="126" cy="550" r="6" /><circle stroke="red" fill="none" stroke-width="1" cx="121" cy="540" r="6" /><circle stroke="red" fill="none" stroke-width="1" cx="117" cy="529" r="6" /><circle stroke="red" fill="none" stroke-width="1" cx="114" cy="517" r="6" /><circle stroke="red" fill="none" stroke-width="1" cx="113" cy="488" r="6" /><circle stroke="red" fill="none" stroke-width="1" cx="113" cy="471" r="6" /><circle stroke="red" fill="none" stroke-width="1" cx="114" cy="455" r="6" /><circle stroke="red" fill="none" stroke-width="1" cx="115" cy="437" r="6" /><circle stroke="red" fill="none" stroke-width="1" cx="118" cy="420" r="6" /><circle stroke="red" fill="none" stroke-width="1" cx="123" cy="402" r="6" /><circle stroke="red" fill="none" stroke-width="1" cx="128" cy="384" r="6" /><circle stroke="red" fill="none" stroke-width="1" cx="143" cy="329" r="6" /><circle stroke="red" fill="none" stroke-width="1" cx="147" cy="310" r="6" /><circle stroke="red" fill="none" stroke-width="1" cx="148" cy="307" r="6" /><circle stroke="red" fill="none" stroke-width="1" cx="153" cy="296" r="6" /><circle stroke="red" fill="none" stroke-width="1" cx="160" cy="282" r="6" /><circle stroke="red" fill="none" stroke-width="1" cx="168" cy="267" r="6" /><circle stroke="red" fill="none" stroke-width="1" cx="173" cy="255" r="6" /><circle stroke="red" fill="none" stroke-width="1" cx="178" cy="244" r="6" /><circle stroke="red" fill="none" stroke-width="1" cx="184" cy="235" r="6" /><circle stroke="red" fill="none" stroke-width="1" cx="191" cy="226" r="6" /><circle stroke="red" fill="none" stroke-width="1" cx="198" cy="217" r="6" /><circle stroke="red" fill="none" stroke-width="1" cx="205" cy="209" r="6" /><circle stroke="red" fill="none" stroke-width="1" cx="212" cy="204" r="6" /><circle stroke="red" fill="none" stroke-width="1" cx="218" cy="201" r="6" /><circle stroke="red" fill="none" stroke-width="1" cx="234" cy="197" r="6" /><circle stroke="red" fill="none" stroke-width="1" cx="246" cy="203" r="6" /><circle stroke="red" fill="none" stroke-width="1" cx="252" cy="208" r="6" /><circle stroke="red" fill="none" stroke-width="1" cx="269" cy="226" r="6" /><circle stroke="red" fill="none" stroke-width="1" cx="285" cy="249" r="6" /><circle stroke="red" fill="none" stroke-width="1" cx="297" cy="270" r="6" /><circle stroke="red" fill="none" stroke-width="1" cx="301" cy="282" r="6" /><circle stroke="red" fill="none" stroke-width="1" cx="305" cy="295" r="6" /><circle stroke="red" fill="none" stroke-width="1" cx="308" cy="308" r="6" /><circle stroke="red" fill="none" stroke-width="1" cx="310" cy="323" r="6" /><circle stroke="red" fill="none" stroke-width="1" cx="316" cy="355" r="6" /><circle stroke="red" fill="none" stroke-width="1" cx="319" cy="370" r="6" /><circle stroke="red" fill="none" stroke-width="1" cx="320" cy="385" r="6" /><circle stroke="red" fill="none" stroke-width="1" cx="319" cy="400" r="6" /><circle stroke="red" fill="none" stroke-width="1" cx="319" cy="415" r="6" /><circle stroke="red" fill="none" stroke-width="1" cx="320" cy="430" r="6" /><circle stroke="red" fill="none" stroke-width="1" cx="322" cy="473" r="6" /><circle stroke="red" fill="none" stroke-width="1" cx="318" cy="492" r="6" /><circle stroke="red" fill="none" stroke-width="1" cx="318" cy="500" r="6" /><circle stroke="red" fill="none" stroke-width="1" cx="317" cy="512" r="6" /><circle stroke="red" fill="none" stroke-width="1" cx="315" cy="524" r="6" /><circle stroke="red" fill="none" stroke-width="1" cx="312" cy="534" r="6" /><circle stroke="red" fill="none" stroke-width="1" cx="309" cy="541" r="6" /><circle stroke="red" fill="none" stroke-width="1" cx="309" cy="546" r="6" /><circle stroke="red" fill="none" stroke-width="1" cx="308" cy="549" r="6" /><circle stroke="red" fill="none" stroke-width="1" cx="306" cy="553" r="6" /><circle stroke="red" fill="none" stroke-width="1" cx="304" cy="555" r="6" /><circle stroke="red" fill="none" stroke-width="1" cx="302" cy="557" r="6" /><circle stroke="red" fill="none" stroke-width="1" cx="300" cy="558" r="6" /><circle stroke="red" fill="none" stroke-width="1" cx="297" cy="557" r="6" /><circle stroke="red" fill="none" stroke-width="1" cx="292" cy="553" r="6" /><circle stroke="red" fill="none" stroke-width="1" cx="286" cy="547" r="6" /><circle stroke="red" fill="none" stroke-width="1" cx="279" cy="539" r="6" /><circle stroke="red" fill="none" stroke-width="1" cx="274" cy="529" r="6" /><circle stroke="red" fill="none" stroke-width="1" cx="269" cy="518" r="6" /><circle stroke="red" fill="none" stroke-width="1" cx="260" cy="490" r="6" /><circle stroke="red" fill="none" stroke-width="1" cx="255" cy="462" r="6" /><circle stroke="red" fill="none" stroke-width="1" cx="254" cy="444" r="6" /><circle stroke="red" fill="none" stroke-width="1" cx="254" cy="427" r="6" /><circle stroke="red" fill="none" stroke-width="1" cx="256" cy="409" r="6" /><circle stroke="red" fill="none" stroke-width="1" cx="259" cy="392" r="6" /><circle stroke="red" fill="none" stroke-width="1" cx="262" cy="373" r="6" /><circle stroke="red" fill="none" stroke-width="1" cx="273" cy="334" r="6" /><circle stroke="red" fill="none" stroke-width="1" cx="281" cy="317" r="6" /><circle stroke="red" fill="none" stroke-width="1" cx="289" cy="298" r="6" /><circle stroke="red" fill="none" stroke-width="1" cx="297" cy="283" r="6" /><circle stroke="red" fill="none" stroke-width="1" cx="307" cy="266" r="6" /><circle stroke="red" fill="none" stroke-width="1" cx="316" cy="253" r="6" /><circle stroke="red" fill="none" stroke-width="1" cx="326" cy="240" r="6" /><circle stroke="red" fill="none" stroke-width="1" cx="335" cy="229" r="6" /><circle stroke="red" fill="none" stroke-width="1" cx="352" cy="211" r="6" /><circle stroke="red" fill="none" stroke-width="1" cx="365" cy="202" r="6" /><circle stroke="red" fill="none" stroke-width="1" cx="369" cy="200" r="6" /><circle stroke="red" fill="none" stroke-width="1" cx="375" cy="200" r="6" /><circle stroke="red" fill="none" stroke-width="1" cx="382" cy="200" r="6" /><circle stroke="red" fill="none" stroke-width="1" cx="392" cy="203" r="6" /><circle stroke="red" fill="none" stroke-width="1" cx="401" cy="208" r="6" /><circle stroke="red" fill="none" stroke-width="1" cx="411" cy="215" r="6" /><circle stroke="red" fill="none" stroke-width="1" cx="420" cy="221" r="6" /><circle stroke="red" fill="none" stroke-width="1" cx="428" cy="230" r="6" /><circle stroke="red" fill="none" stroke-width="1" cx="443" cy="249" r="6" /><circle stroke="red" fill="none" stroke-width="1" cx="459" cy="274" r="6" /><circle stroke="red" fill="none" stroke-width="1" cx="467" cy="289" r="6" /><circle stroke="red" fill="none" stroke-width="1" cx="472" cy="302" r="6" /><circle stroke="red" fill="none" stroke-width="1" cx="477" cy="316" r="6" /><circle stroke="red" fill="none" stroke-width="1" cx="480" cy="329" r="6" /><circle stroke="red" fill="none" stroke-width="1" cx="481" cy="343" r="6" /><circle stroke="red" fill="none" stroke-width="1" cx="484" cy="407" r="6" /><circle stroke="red" fill="none" stroke-width="1" cx="483" cy="421" r="6" /><circle stroke="red" fill="none" stroke-width="1" cx="483" cy="436" r="6" /><circle stroke="red" fill="none" stroke-width="1" cx="480" cy="454" r="6" /><circle stroke="red" fill="none" stroke-width="1" cx="478" cy="469" r="6" /><circle stroke="red" fill="none" stroke-width="1" cx="474" cy="483" r="6" /><circle stroke="red" fill="none" stroke-width="1" cx="473" cy="494" r="6" /><circle stroke="red" fill="none" stroke-width="1" cx="471" cy="506" r="6" /><circle stroke="red" fill="none" stroke-width="1" cx="464" cy="526" r="6" /><circle stroke="red" fill="none" stroke-width="1" cx="461" cy="534" r="6" /><circle stroke="red" fill="none" stroke-width="1" cx="453" cy="547" r="6" /><circle stroke="red" fill="none" stroke-width="1" cx="450" cy="551" r="6" /><circle stroke="red" fill="none" stroke-width="1" cx="447" cy="553" r="6" /><circle stroke="red" fill="none" stroke-width="1" cx="443" cy="555" r="6" /><circle stroke="red" fill="none" stroke-width="1" cx="437" cy="556" r="6" /><circle stroke="red" fill="none" stroke-width="1" cx="430" cy="555" r="6" /><circle stroke="red" fill="none" stroke-width="1" cx="424" cy="551" r="6" /><circle stroke="red" fill="none" stroke-width="1" cx="419" cy="546" r="6" /><circle stroke="red" fill="none" stroke-width="1" cx="413" cy="538" r="6" /><circle stroke="red" fill="none" stroke-width="1" cx="409" cy="528" r="6" /><circle stroke="red" fill="none" stroke-width="1" cx="406" cy="517" r="6" /><circle stroke="red" fill="none" stroke-width="1" cx="405" cy="504" r="6" /><circle stroke="red" fill="none" stroke-width="1" cx="405" cy="472" r="6" /><circle stroke="red" fill="none" stroke-width="1" cx="407" cy="455" r="6" /><circle stroke="red" fill="none" stroke-width="1" cx="414" cy="402" r="6" /><circle stroke="red" fill="none" stroke-width="1" cx="417" cy="384" r="6" /><circle stroke="red" fill="none" stroke-width="1" cx="421" cy="365" r="6" /><circle stroke="red" fill="none" stroke-width="1" cx="426" cy="348" r="6" /><circle stroke="red" fill="none" stroke-width="1" cx="433" cy="330" r="6" /><circle stroke="red" fill="none" stroke-width="1" cx="438" cy="314" r="6" /><circle stroke="red" fill="none" stroke-width="1" cx="449" cy="282" r="6" /><circle stroke="red" fill="none" stroke-width="1" cx="456" cy="266" r="6" /><circle stroke="red" fill="none" stroke-width="1" cx="464" cy="252" r="6" /><circle stroke="red" fill="none" stroke-width="1" cx="470" cy="241" r="6" /><circle stroke="red" fill="none" stroke-width="1" cx="477" cy="232" r="6" /><circle stroke="red" fill="none" stroke-width="1" cx="482" cy="224" r="6" /><circle stroke="red" fill="none" stroke-width="1" cx="502" cy="204" r="6" /><circle stroke="red" fill="none" stroke-width="1" cx="508" cy="201" r="6" /><circle stroke="red" fill="none" stroke-width="1" cx="515" cy="199" r="6" /><circle stroke="red" fill="none" stroke-width="1" cx="522" cy="198" r="6" /><circle stroke="red" fill="none" stroke-width="1" cx="530" cy="198" r="6" /><circle stroke="red" fill="none" stroke-width="1" cx="538" cy="200" r="6" /><circle stroke="red" fill="none" stroke-width="1" cx="566" cy="218" r="6" /><circle stroke="red" fill="none" stroke-width="1" cx="575" cy="227" r="6" /><circle stroke="red" fill="none" stroke-width="1" cx="593" cy="244" r="6" /><circle stroke="red" fill="none" stroke-width="1" cx="602" cy="253" r="6" /><circle stroke="red" fill="none" stroke-width="1" cx="614" cy="274" r="6" /><circle stroke="red" fill="none" stroke-width="1" cx="625" cy="299" r="6" /><circle stroke="red" fill="none" stroke-width="1" cx="630" cy="311" r="6" /><circle stroke="red" fill="none" stroke-width="1" cx="636" cy="335" r="6" /><circle stroke="red" fill="none" stroke-width="1" cx="641" cy="359" r="6" /><circle stroke="red" fill="none" stroke-width="1" cx="642" cy="372" r="6" /><circle stroke="red" fill="none" stroke-width="1" cx="644" cy="386" r="6" /><circle stroke="red" fill="none" stroke-width="1" cx="645" cy="412" r="6" /><circle stroke="red" fill="none" stroke-width="1" cx="645" cy="423" r="6" /><circle stroke="red" fill="none" stroke-width="1" cx="646" cy="436" r="6" /><circle stroke="red" fill="none" stroke-width="1" cx="643" cy="459" r="6" /><circle stroke="red" fill="none" stroke-width="1" cx="642" cy="470" r="6" /><circle stroke="red" fill="none" stroke-width="1" cx="640" cy="481" r="6" /><circle stroke="red" fill="none" stroke-width="1" cx="637" cy="491" r="6" /><circle stroke="red" fill="none" stroke-width="1" cx="631" cy="512" r="6" /><circle stroke="red" fill="none" stroke-width="1" cx="628" cy="521" r="6" /><circle stroke="red" fill="none" stroke-width="1" cx="624" cy="530" r="6" /><circle stroke="red" fill="none" stroke-width="1" cx="620" cy="539" r="6" /><circle stroke="red" fill="none" stroke-width="1" cx="615" cy="547" r="6" /><circle stroke="red" fill="none" stroke-width="1" cx="611" cy="553" r="6" /><circle stroke="red" fill="none" stroke-width="1" cx="606" cy="558" r="6" /><circle stroke="red" fill="none" stroke-width="1" cx="601" cy="561" r="6" /><circle stroke="red" fill="none" stroke-width="1" cx="597" cy="563" r="6" /><circle stroke="red" fill="none" stroke-width="1" cx="594" cy="564" r="6" /><circle stroke="red" fill="none" stroke-width="1" cx="591" cy="563" r="6" /><circle stroke="red" fill="none" stroke-width="1" cx="587" cy="562" r="6" /><circle stroke="red" fill="none" stroke-width="1" cx="583" cy="558" r="6" /><circle stroke="red" fill="none" stroke-width="1" cx="577" cy="552" r="6" /><circle stroke="red" fill="none" stroke-width="1" cx="572" cy="544" r="6" /><circle stroke="red" fill="none" stroke-width="1" cx="567" cy="534" r="6" /><circle stroke="red" fill="none" stroke-width="1" cx="564" cy="524" r="6" /><circle stroke="red" fill="none" stroke-width="1" cx="562" cy="512" r="6" /><circle stroke="red" fill="none" stroke-width="1" cx="558" cy="484" r="6" /><circle stroke="red" fill="none" stroke-width="1" cx="557" cy="469" r="6" /><circle stroke="red" fill="none" stroke-width="1" cx="558" cy="438" r="6" /><circle stroke="red" fill="none" stroke-width="1" cx="559" cy="422" r="6" /><circle stroke="red" fill="none" stroke-width="1" cx="563" cy="404" r="6" /><circle stroke="red" fill="none" stroke-width="1" cx="569" cy="385" r="6" /><circle stroke="red" fill="none" stroke-width="1" cx="575" cy="366" r="6" /><circle stroke="red" fill="none" stroke-width="1" cx="581" cy="352" r="6" /><circle stroke="red" fill="none" stroke-width="1" cx="585" cy="336" r="6" /><circle stroke="red" fill="none" stroke-width="1" cx="590" cy="322" r="6" /><circle stroke="red" fill="none" stroke-width="1" cx="596" cy="306" r="6" /><circle stroke="red" fill="none" stroke-width="1" cx="602" cy="293" r="6" /><circle stroke="red" fill="none" stroke-width="1" cx="608" cy="279" r="6" /><circle stroke="red" fill="none" stroke-width="1" cx="615" cy="265" r="6" /><circle stroke="red" fill="none" stroke-width="1" cx="625" cy="252" r="6" /><circle stroke="red" fill="none" stroke-width="1" cx="632" cy="241" r="6" /><circle stroke="red" fill="none" stroke-width="1" cx="645" cy="226" r="6" /><circle stroke="red" fill="none" stroke-width="1" cx="660" cy="212" r="6" /><circle stroke="red" fill="none" stroke-width="1" cx="668" cy="207" r="6" /><circle stroke="red" fill="none" stroke-width="1" cx="676" cy="204" r="6" /><circle stroke="red" fill="none" stroke-width="1" cx="682" cy="202" r="6" /><circle stroke="red" fill="none" stroke-width="1" cx="688" cy="201" r="6" /><circle stroke="red" fill="none" stroke-width="1" cx="694" cy="201" r="6" /><circle stroke="red" fill="none" stroke-width="1" cx="700" cy="203" r="6" /><circle stroke="red" fill="none" stroke-width="1" cx="709" cy="207" r="6" /><circle stroke="red" fill="none" stroke-width="1" cx="717" cy="213" r="6" /><circle stroke="red" fill="none" stroke-width="1" cx="729" cy="223" r="6" /><circle stroke="red" fill="none" stroke-width="1" cx="735" cy="232" r="6" /><circle stroke="red" fill="none" stroke-width="1" cx="744" cy="250" r="6" /><circle stroke="red" fill="none" stroke-width="1" cx="754" cy="273" r="6" /><circle stroke="red" fill="none" stroke-width="1" cx="765" cy="306" r="6" /><circle stroke="red" fill="none" stroke-width="1" cx="770" cy="332" r="6" /><circle stroke="red" fill="none" stroke-width="1" cx="774" cy="358" r="6" /><circle stroke="red" fill="none" stroke-width="1" cx="775" cy="370" r="6" /><circle stroke="red" fill="none" stroke-width="1" cx="774" cy="386" r="6" /><circle stroke="red" fill="none" stroke-width="1" cx="772" cy="414" r="6" /><circle stroke="red" fill="none" stroke-width="1" cx="771" cy="426" r="6" /><circle stroke="red" fill="none" stroke-width="1" cx="767" cy="451" r="6" /><circle stroke="red" fill="none" stroke-width="1" cx="761" cy="475" r="6" /><circle stroke="red" fill="none" stroke-width="1" cx="758" cy="486" r="6" /><circle stroke="red" fill="none" stroke-width="1" cx="747" cy="515" r="6" /><circle stroke="red" fill="none" stroke-width="1" cx="737" cy="532" r="6" /><circle stroke="red" fill="none" stroke-width="1" cx="728" cy="544" r="6" /><circle stroke="red" fill="none" stroke-width="1" cx="723" cy="550" r="6" /><circle stroke="red" fill="none" stroke-width="1" cx="720" cy="552" r="6" /><circle stroke="red" fill="none" stroke-width="1" cx="717" cy="553" r="6" /><circle stroke="red" fill="none" stroke-width="1" cx="715" cy="553" r="6" /><circle stroke="red" fill="none" stroke-width="1" cx="713" cy="552" r="6" /><circle stroke="red" fill="none" stroke-width="1" cx="711" cy="550" r="6" /><circle stroke="red" fill="none" stroke-width="1" cx="707" cy="546" r="6" /><circle stroke="red" fill="none" stroke-width="1" cx="704" cy="540" r="6" /><circle stroke="red" fill="none" stroke-width="1" cx="701" cy="531" r="6" /><circle stroke="red" fill="none" stroke-width="1" cx="699" cy="521" r="6" /><circle stroke="red" fill="none" stroke-width="1" cx="696" cy="494" r="6" /><circle stroke="red" fill="none" stroke-width="1" cx="697" cy="477" r="6" /><circle stroke="red" fill="none" stroke-width="1" cx="699" cy="438" r="6" /><circle stroke="red" fill="none" stroke-width="1" cx="702" cy="416" r="6" /><circle stroke="red" fill="none" stroke-width="1" cx="706" cy="396" r="6" /><circle stroke="red" fill="none" stroke-width="1" cx="712" cy="377" r="6" /><circle stroke="red" fill="none" stroke-width="1" cx="715" cy="360" r="6" /><circle stroke="red" fill="none" stroke-width="1" cx="721" cy="341" r="6" /><circle stroke="red" fill="none" stroke-width="1" cx="727" cy="324" r="6" /><circle stroke="red" fill="none" stroke-width="1" cx="734" cy="308" r="6" /><circle stroke="red" fill="none" stroke-width="1" cx="741" cy="294" r="6" /><circle stroke="red" fill="none" stroke-width="1" cx="747" cy="281" r="6" /><circle stroke="red" fill="none" stroke-width="1" cx="754" cy="267" r="6" /><circle stroke="red" fill="none" stroke-width="1" cx="768" cy="243" r="6" /><circle stroke="red" fill="none" stroke-width="1" cx="775" cy="235" r="6" /><circle stroke="red" fill="none" stroke-width="1" cx="792" cy="217" r="6" /><circle stroke="red" fill="none" stroke-width="1" cx="808" cy="205" r="6" /><circle stroke="red" fill="none" stroke-width="1" cx="828" cy="199" r="6" /><circle stroke="red" fill="none" stroke-width="1" cx="841" cy="197" r="6" /><circle stroke="red" fill="none" stroke-width="1" cx="850" cy="198" r="6" /><circle stroke="red" fill="none" stroke-width="1" cx="860" cy="199" r="6" /><circle stroke="red" fill="none" stroke-width="1" cx="871" cy="203" r="6" /><circle stroke="red" fill="none" stroke-width="1" cx="879" cy="208" r="6" /><circle stroke="red" fill="none" stroke-width="1" cx="894" cy="222" r="6" /><circle stroke="red" fill="none" stroke-width="1" cx="901" cy="231" r="6" /><circle stroke="red" fill="none" stroke-width="1" cx="911" cy="251" r="6" /><circle stroke="red" fill="none" stroke-width="1" cx="919" cy="274" r="6" /><circle stroke="red" fill="none" stroke-width="1" cx="927" cy="300" r="6" /><circle stroke="red" fill="none" stroke-width="1" cx="933" cy="327" r="6" /><circle stroke="red" fill="none" stroke-width="1" cx="938" cy="354" r="6" /><circle stroke="red" fill="none" stroke-width="1" cx="940" cy="367" r="6" /><circle stroke="red" fill="none" stroke-width="1" cx="943" cy="394" r="6" /><circle stroke="red" fill="none" stroke-width="1" cx="943" cy="406" r="6" /><circle stroke="red" fill="none" stroke-width="1" cx="944" cy="419" r="6" /><circle stroke="red" fill="none" stroke-width="1" cx="943" cy="432" r="6" /><circle stroke="red" fill="none" stroke-width="1" cx="942" cy="446" r="6" /><circle stroke="red" fill="none" stroke-width="1" cx="940" cy="458" r="6" /><circle stroke="red" fill="none" stroke-width="1" cx="938" cy="470" r="6" /><circle stroke="red" fill="none" stroke-width="1" cx="936" cy="481" r="6" /><circle stroke="red" fill="none" stroke-width="1" cx="931" cy="501" r="6" /><circle stroke="red" fill="none" stroke-width="1" cx="927" cy="511" r="6" /><circle stroke="red" fill="none" stroke-width="1" cx="923" cy="520" r="6" /><circle stroke="red" fill="none" stroke-width="1" cx="919" cy="528" r="6" /><circle stroke="red" fill="none" stroke-width="1" cx="910" cy="542" r="6" /><circle stroke="red" fill="none" stroke-width="1" cx="906" cy="548" r="6" /><circle stroke="red" fill="none" stroke-width="1" cx="901" cy="552" r="6" /><circle stroke="red" fill="none" stroke-width="1" cx="895" cy="555" r="6" /><circle stroke="red" fill="none" stroke-width="1" cx="890" cy="557" r="6" /><circle stroke="red" fill="none" stroke-width="1" cx="882" cy="558" r="6" /><circle stroke="red" fill="none" stroke-width="1" cx="874" cy="557" r="6" /><circle stroke="red" fill="none" stroke-width="1" cx="867" cy="555" r="6" /><circle stroke="red" fill="none" stroke-width="1" cx="860" cy="551" r="6" /><circle stroke="red" fill="none" stroke-width="1" cx="852" cy="545" r="6" /><circle stroke="red" fill="none" stroke-width="1" cx="844" cy="536" r="6" /><circle stroke="red" fill="none" stroke-width="1" cx="839" cy="527" r="6" /><circle stroke="red" fill="none" stroke-width="1" cx="834" cy="517" r="6" /><circle stroke="red" fill="none" stroke-width="1" cx="830" cy="490" r="6" /><circle stroke="red" fill="none" stroke-width="1" cx="831" cy="472" r="6" /><circle stroke="red" fill="none" stroke-width="1" cx="832" cy="455" r="6" /><circle stroke="red" fill="none" stroke-width="1" cx="835" cy="435" r="6" /><circle stroke="red" fill="none" stroke-width="1" cx="840" cy="415" r="6" /><circle stroke="red" fill="none" stroke-width="1" cx="846" cy="396" r="6" /><circle stroke="red" fill="none" stroke-width="1" cx="853" cy="376" r="6" /><circle stroke="red" fill="none" stroke-width="1" cx="864" cy="339" r="6" /><circle stroke="red" fill="none" stroke-width="1" cx="871" cy="322" r="6" /><circle stroke="red" fill="none" stroke-width="1" cx="879" cy="303" r="6" /><circle stroke="red" fill="none" stroke-width="1" cx="887" cy="286" r="6" /><circle stroke="red" fill="none" stroke-width="1" cx="895" cy="268" r="6" /><circle stroke="red" fill="none" stroke-width="1" cx="902" cy="254" r="6" /><circle stroke="red" fill="none" stroke-width="1" cx="917" cy="230" r="6" /><circle stroke="red" fill="none" stroke-width="1" cx="926" cy="219" r="6" /><circle stroke="red" fill="none" stroke-width="1" cx="934" cy="210" r="6" /><circle stroke="red" fill="none" stroke-width="1" cx="943" cy="204" r="6" /><circle stroke="red" fill="none" stroke-width="1" cx="949" cy="200" r="6" /><circle stroke="red" fill="none" stroke-width="1" cx="963" cy="197" r="6" /><circle stroke="red" fill="none" stroke-width="1" cx="970" cy="196" r="6" /><circle stroke="red" fill="none" stroke-width="1" cx="977" cy="197" r="6" /><circle stroke="red" fill="none" stroke-width="1" cx="994" cy="202" r="6" /><circle stroke="red" fill="none" stroke-width="1" cx="1003" cy="208" r="6" /><circle stroke="red" fill="none" stroke-width="1" cx="1031" cy="231" r="6" /><circle stroke="red" fill="none" stroke-width="1" cx="1045" cy="250" r="6" /><circle stroke="red" fill="none" stroke-width="1" cx="1052" cy="261" r="6" /><circle stroke="red" fill="none" stroke-width="1" cx="1062" cy="285" r="6" /><circle stroke="red" fill="none" stroke-width="1" cx="1071" cy="311" r="6" /><circle stroke="red" fill="none" stroke-width="1" cx="1076" cy="325" r="6" /><circle stroke="red" fill="none" stroke-width="1" cx="1081" cy="350" r="6" /><circle stroke="red" fill="none" stroke-width="1" cx="1083" cy="362" r="6" /><circle stroke="red" fill="none" stroke-width="1" cx="1084" cy="375" r="6" /><circle stroke="red" fill="none" stroke-width="1" cx="1085" cy="388" r="6" /><circle stroke="red" fill="none" stroke-width="1" cx="1088" cy="412" r="6" /><circle stroke="red" fill="none" stroke-width="1" cx="1089" cy="437" r="6" /><circle stroke="red" fill="none" stroke-width="1" cx="1088" cy="450" r="6" /><circle stroke="red" fill="none" stroke-width="1" cx="1088" cy="462" r="6" /><circle stroke="red" fill="none" stroke-width="1" cx="1085" cy="476" r="6" /><circle stroke="red" fill="none" stroke-width="1" cx="1082" cy="489" r="6" /><circle stroke="red" fill="none" stroke-width="1" cx="1077" cy="502" r="6" /><circle stroke="red" fill="none" stroke-width="1" cx="1072" cy="514" r="6" /><circle stroke="red" fill="none" stroke-width="1" cx="1068" cy="524" r="6" /><circle stroke="red" fill="none" stroke-width="1" cx="1056" cy="545" r="6" /><circle stroke="red" fill="none" stroke-width="1" cx="1043" cy="560" r="6" /><circle stroke="red" fill="none" stroke-width="1" cx="1038" cy="564" r="6" /><circle stroke="red" fill="none" stroke-width="1" cx="1031" cy="567" r="6" /><circle stroke="red" fill="none" stroke-width="1" cx="1023" cy="566" r="6" /><circle stroke="red" fill="none" stroke-width="1" cx="1018" cy="562" r="6" /><circle stroke="red" fill="none" stroke-width="1" cx="1013" cy="556" r="6" /><circle stroke="red" fill="none" stroke-width="1" cx="1009" cy="548" r="6" /><circle stroke="red" fill="none" stroke-width="1" cx="1005" cy="539" r="6" /><circle stroke="red" fill="none" stroke-width="1" cx="1000" cy="516" r="6" /><circle stroke="red" fill="none" stroke-width="1" cx="999" cy="491" r="6" /><circle stroke="red" fill="none" stroke-width="1" cx="1000" cy="462" r="6" /><circle stroke="red" fill="none" stroke-width="1" cx="1003" cy="447" r="6" /><circle stroke="red" fill="none" stroke-width="1" cx="1011" cy="418" r="6" /><circle stroke="red" fill="none" stroke-width="1" cx="1023" cy="389" r="6" /><circle stroke="red" fill="none" stroke-width="1" cx="1031" cy="375" r="6" /><circle stroke="red" fill="none" stroke-width="1" cx="1037" cy="362" r="6" /><circle stroke="red" fill="none" stroke-width="1" cx="1044" cy="350" r="6" /><circle stroke="red" fill="none" stroke-width="1" cx="1057" cy="327" r="6" /><circle stroke="red" fill="none" stroke-width="1" cx="1065" cy="316" r="6" /><circle stroke="red" fill="none" stroke-width="1" cx="1072" cy="306" r="6" /><circle stroke="red" fill="none" stroke-width="1" cx="1080" cy="296" r="6" /><circle stroke="red" fill="none" stroke-width="1" cx="1086" cy="286" r="6" /><circle stroke="red" fill="none" stroke-width="1" cx="1103" cy="265" r="6" /><circle stroke="red" fill="none" stroke-width="1" cx="1113" cy="255" r="6" /><circle stroke="red" fill="none" stroke-width="1" cx="1123" cy="246" r="6" /><circle stroke="red" fill="none" stroke-width="1" cx="1133" cy="239" r="6" /><circle stroke="red" fill="none" stroke-width="1" cx="1143" cy="232" r="6" /><circle stroke="red" fill="none" stroke-width="1" cx="1155" cy="223" r="6" /><circle stroke="red" fill="none" stroke-width="1" cx="1168" cy="215" r="6" /><circle stroke="red" fill="none" stroke-width="1" cx="1181" cy="207" r="6" /><circle stroke="red" fill="none" stroke-width="1" cx="1200" cy="201" r="6" /><circle stroke="red" fill="none" stroke-width="1" cx="1209" cy="201" r="6" /><circle stroke="red" fill="none" stroke-width="1" cx="1215" cy="201" r="6" /><circle stroke="red" fill="none" stroke-width="1" cx="1215" cy="201" r="6" /></svg>