<svg xmlns="http://www.w3.org/2000/svg" width="800" height="400" viewBox="-10 -5 1010 1010" preserveAspectRatio="none"><line x1="0" y1="1000" x2="1000" y2="1000" stroke="black" stroke-width="2" /><line x1="0" y1="0"    x2="0"    y2="1000" stroke="black" stroke-width="2" /><line y1="1000" y2="1000" x1 ="-5" x2="10" stroke="black" /><line y1="975.1861042183623" y2="975.1861042183623" x1 ="-5" x2="10" stroke="black" /><line y1="950.3722084367246" y2="950.3722084367246" x1 ="-5" x2="10" stroke="black" /><line y1="925.5583126550869" y2="925.5583126550869" x1 ="-5" x2="10" stroke="black" /><line y1="900.7444168734492" y2="900.7444168734492" x1 ="-5" x2="10" stroke="black" /><line y1="875.9305210918114" y2="875.9305210918114" x1 ="-5" x2="10" stroke="black" /><line y1="851.1166253101737" y2="851.1166253101737" x1 ="-5" x2="10" stroke="black" /><line y1="826.302729528536" y2="826.302729528536" x1 ="-5" x2="10" stroke="black" /><line y1="801.4888337468983" y2="801.4888337468983" x1 ="-5" x2="10" stroke="black" /><line y1="776.6749379652606" y2="776.6749379652606" x1 ="-5" x2="10" stroke="black" /><line y1="751.8610421836229" y2="751.8610421836229" x1 ="-5" x2="10" stroke="black" /><line y1="727.0471464019852" y2="727.0471464019852" x1 ="-5" x2="10" stroke="black" /><line y1="702.2332506203475" y2="702.2332506203475" x1 ="-5" x2="10" stroke="black" /><line y1="677.4193548387098" y2="677.4193548387098" x1 ="-5" x2="10" stroke="black" /><line y1="652.605459057072" y2="652.605459057072" x1 ="-5" x2="10" stroke="black" /><line y1="627.7915632754343" y2="627.7915632754343" x1 ="-5" x2="10" stroke="black" /><line y1="602.9776674937965" y2="602.9776674937965" x1 ="-5" x2="10" stroke="black" /><line y1="578.1637717121588" y2="578.1637717121588" x1 ="-5" x2="10" stroke="black" /><line y1="553.3498759305211" y2="553.3498759305211" x1 ="-5" x2="10" stroke="black" /><line y1="528.5359801488834" y2="528.5359801488834" x1 ="-5" x2="10" stroke="black" /><line y1="503.72208436724566" y2="503.72208436724566" x1 ="-5" x2="10" stroke="black" /><line y1="478.90818858560795" y2="478.90818858560795" x1 ="-5" x2="10" stroke="black" /><line y1="454.09429280397023" y2="454.09429280397023" x1 ="-5" x2="10" stroke="black" /><line y1="429.2803970223325" y2="429.2803970223325" x1 ="-5" x2="10" stroke="black" /><line y1="404.4665012406948" y2="404.4665012406948" x1 ="-5" x2="10" stroke="black" /><line y1="379.6526054590571" y2="379.6526054590571" x1 ="-5" x2="10" stroke="black" /><line y1="354.8387096774194" y2="354.8387096774194" x1 ="-5" x2="10" stroke="black" /><line y1="330.0248138957817" y2="330.0248138957817" x1 ="-5" x2="10" stroke="black" /><line y1="305.21091811414396" y2="305.21091811414396" x1 ="-5" x2="10" stroke="black" /><line y1="280.39702233250625" y2="280.39702233250625" x1 ="-5" x2="10" stroke="black" /><line y1="255.58312655086854" y2="255.58312655086854" x1 ="-5" x2="10" stroke="black" /><line y1="230.76923076923072" y2="230.76923076923072" x1 ="-5" x2="10" stroke="black" /><line y1="205.955334987593" y2="205.955334987593" x1 ="-5" x2="10" stroke="black" /><line y1="181.1414392059553" y2="181.1414392059553" x1 ="-5" x2="10" stroke="black" /><line y1="156.32754342431758" y2="156.32754342431758" x1 ="-5" x2="10" stroke="black" /><line y1="131.51364764267987" y2="131.51364764267987" x1 ="-5" x2="10" stroke="black" /><line y1="106.69975186104216" y2="106.69975186104216" x1 ="-5" x2="10" stroke="black" /><line y1="81.88585607940445" y2="81.88585607940445" x1 ="-5" x2="10" stroke="black" /><line y1="57.071960297766736" y2="57.071960297766736" x1 ="-5" x2="10" stroke="black" /><line y1="32.258064516129025" y2="32.258064516129025" x1 ="-5" x2="10" stroke="black" /><line y1="7.444168734491313" y2="7.444168734491313" x1 ="-5" x2="10" stroke="black" /><line y1="0" y2="1000" x1 ="-8.177248202313805" x2="-8.177248202313805" stroke="#aaa"  stroke-width="2" /><line y1="0" y2="1000" x1 ="0.9074105356814711" x2="0.9074105356814711" stroke="#aaa"  stroke-width="2" /><line y1="0" y2="1000" x1 ="10.221179482453595" x2="10.221179482453595" stroke="#aaa"  stroke-width="2" /><line y1="0" y2="1000" x1 ="19.14270547649803" x2="19.14270547649803" stroke="#aaa"  stroke-width="2" /><line y1="0" y2="1000" x1 ="29.142885479847926" x2="29.142885479847926" stroke="#aaa"  stroke-width="2" /><line y1="0" y2="1000" x1 ="40.60222158213412" x2="40.60222158213412" stroke="#aaa"  stroke-width="2" /><line y1="0" y2="1000" x1 ="52.719788398752875" x2="52.719788398752875" stroke="#aaa"  stroke-width="2" /><line y1="0" y2="1000" x1 ="62.82493898697254" x2="62.82493898697254" stroke="#aaa"  stroke-width="2" /><line y1="0" y2="1000" x1 ="73.0416148375352" x2="73.0416148375352" stroke="#aaa"  stroke-width="2" /><line y1="0" y2="1000" x1 ="86.06489552195974" x2="86.06489552195974" stroke="#aaa"  stroke-width="2" /><line y1="0" y2="1000" x1 ="93.76874860444254" x2="93.76874860444254" stroke="#aaa"  stroke-width="2" /><line y1="0" y2="1000" x1 ="102.94257503978085" x2="102.94257503978085" stroke="#aaa"  stroke-width="2" /><line y1="0" y2="1000" x1 ="111.97792822282443" x2="111.97792822282443" stroke="#aaa"  stroke-width="2" /><line y1="0" y2="1000" x1 ="121.48613087573798" x2="121.48613087573798" stroke="#aaa"  stroke-width="2" /><line y1="0" y2="1000" x1 ="130.11362501466192" x2="130.11362501466192" stroke="#aaa"  stroke-width="2" /><line y1="0" y2="1000" x1 ="139.46022335488775" x2="139.46022335488775" stroke="#aaa"  stroke-width="2" /><line y1="0" y2="1000" x1 ="151.0723661195095" x2="151.0723661195095" stroke="#aaa"  stroke-width="2" /><line y1="0" y2="1000" x1 ="161.17526947707736" x2="161.17526947707736" stroke="#aaa"  stroke-width="2" /><line y1="0" y2="1000" x1 ="177.732933699127" x2="177.732933699127" stroke="#aaa"  stroke-width="2" /><line y1="0" y2="1000" x1 ="194.00168794839394" x2="194.00168794839394" stroke="#aaa"  stroke-width="2" /><line y1="0" y2="1000" x1 ="205.2602536868682" x2="205.2602536868682" stroke="#aaa"  stroke-width="2" /><line y1="0" y2="1000" x1 ="216.81633577622208" x2="216.81633577622208" stroke="#aaa"  stroke-width="2" /><line y1="0" y2="1000" x1 ="227.80682558846453" x2="227.80682558846453" stroke="#aaa"  stroke-width="2" /><line y1="0" y2="1000" x1 ="237.62822924470896" x2="237.62822924470896" stroke="#aaa"  stroke-width="2" /><line y1="0" y2="1000" x1 ="249.94348226919752" x2="249.94348226919752" stroke="#aaa"  stroke-width="2" /><line y1="0" y2="1000" x1 ="266.3307535896216" x2="266.3307535896216" stroke="#aaa"  stroke-width="2" /><line y1="0" y2="1000" x1 ="278.0038653681662" x2="278.0038653681662" stroke="#aaa"  stroke-width="2" /><line y1="0" y2="1000" x1 ="292.1247552297301" x2="292.1247552297301" stroke="#aaa"  stroke-width="2" /><line y1="0" y2="1000" x1 ="305.27960382317514" x2="305.27960382317514" stroke="#aaa"  stroke-width="2" /><line y1="0" y2="1000" x1 ="320.72792259028245" x2="320.72792259028245" stroke="#aaa"  stroke-width="2" /><line y1="0" y2="1000" x1 ="334.15064677629016" x2="334.15064677629016" stroke="#aaa"  stroke-width="2" /><line y1="0" y2="1000" x1 ="347.42145603043065" x2="347.42145603043065" stroke="#aaa"  stroke-width="2" /><line y1="0" y2="1000" x1 ="358.7823627969598" x2="358.7823627969598" stroke="#aaa"  stroke-width="2" /><line y1="0" y2="1000" x1 ="366.8225253442184" x2="366.8225253442184" stroke="#aaa"  stroke-width="2" /><line y1="0" y2="1000" x1 ="375.79857921532084" x2="375.79857921532084" stroke="#aaa"  stroke-width="2" /><line y1="0" y2="1000" x1 ="388.26070716958543" x2="388.26070716958543" stroke="#aaa"  stroke-width="2" /><line y1="0" y2="1000" x1 ="400.1866924419741" x2="400.1866924419741" stroke="#aaa"  stroke-width="2" /><line y1="0" y2="1000" x1 ="415.9218558345331" x2="415.9218558345331" stroke="#aaa"  stroke-width="2" /><line y1="0" y2="1000" x1 ="430.412216660605" x2="430.412216660605" stroke="#aaa"  stroke-width="2" /><line y1="0" y2="1000" x1 ="448.27013919315004" x2="448.27013919315004" stroke="#aaa"  stroke-width="2" /><line y1="0" y2="1000" x1 ="463.28777692638135" x2="463.28777692638135" stroke="#aaa"  stroke-width="2" /><line y1="0" y2="1000" x1 ="473.64824376912486" x2="473.64824376912486" stroke="#aaa"  stroke-width="2" /><line y1="0" y2="1000" x1 ="482.7236046230509" x2="482.7236046230509" stroke="#aaa"  stroke-width="2" /><line y1="0" y2="1000" x1 ="494.08461172017445" x2="494.08461172017445" stroke="#aaa"  stroke-width="2" /><line y1="0" y2="1000" x1 ="505.28680279993" x2="505.28680279993" stroke="#aaa"  stroke-width="2" /><line y1="0" y2="1000" x1 ="517.4960209055215" x2="517.4960209055215" stroke="#aaa"  stroke-width="2" /><line y1="0" y2="1000" x1 ="530.9535352439464" x2="530.9535352439464" stroke="#aaa"  stroke-width="2" /><line y1="0" y2="1000" x1 ="542.5990487942098" x2="542.5990487942098" stroke="#aaa"  stroke-width="2" /><line y1="0" y2="1000" x1 ="556.0104372605792" x2="556.0104372605792" stroke="#aaa"  stroke-width="2" /><line y1="0" y2="1000" x1 ="571.6524437501973" x2="571.6524437501973" stroke="#aaa"  stroke-width="2" /><line y1="0" y2="1000" x1 ="586.531048934465" x2="586.531048934465" stroke="#aaa"  stroke-width="2" /><line y1="0" y2="1000" x1 ="606.6530875723897" x2="606.6530875723897" stroke="#aaa"  stroke-width="2" /><line y1="0" y2="1000" x1 ="624.2717059146734" x2="624.2717059146734" stroke="#aaa"  stroke-width="2" /><line y1="0" y2="1000" x1 ="643.6475926857922" x2="643.6475926857922" stroke="#aaa"  stroke-width="2" /><line y1="0" y2="1000" x1 ="654.1522278248918" x2="654.1522278248918" stroke="#aaa"  stroke-width="2" /><line y1="0" y2="1000" x1 ="668.6547115127028" x2="668.6547115127028" stroke="#aaa"  stroke-width="2" /><line y1="0" y2="1000" x1 ="680.5841994036788" x2="680.5841994036788" stroke="#aaa"  stroke-width="2" /><line y1="0" y2="1000" x1 ="698.2217002041376" x2="698.2217002041376" stroke="#aaa"  stroke-width="2" /><line y1="0" y2="1000" x1 ="715.7542215766598" x2="715.7542215766598" stroke="#aaa"  stroke-width="2" /><line y1="0" y2="1000" x1 ="732.5580859433104" x2="732.5580859433104" stroke="#aaa"  stroke-width="2" /><line y1="0" y2="1000" x1 ="749.6436275276586" x2="749.6436275276586" stroke="#aaa"  stroke-width="2" /><line y1="0" y2="1000" x1 ="757.9587986378388" x2="757.9587986378388" stroke="#aaa"  stroke-width="2" /><line y1="0" y2="1000" x1 ="769.426204420501" x2="769.426204420501" stroke="#aaa"  stroke-width="2" /><line y1="0" y2="1000" x1 ="782.8926527671814" x2="782.8926527671814" stroke="#aaa"  stroke-width="2" /><line y1="0" y2="1000" x1 ="795.4229551970393" x2="795.4229551970393" stroke="#aaa"  stroke-width="2" /><line y1="0" y2="1000" x1 ="810.9418319191211" x2="810.9418319191211" stroke="#aaa"  stroke-width="2" /><line y1="0" y2="1000" x1 ="821.3939500508371" x2="821.3939500508371" stroke="#aaa"  stroke-width="2" /><line y1="0" y2="1000" x1 ="830.5801948810168" x2="830.5801948810168" stroke="#aaa"  stroke-width="2" /><line y1="0" y2="1000" x1 ="841.3167240480923" x2="841.3167240480923" stroke="#aaa"  stroke-width="2" /><line y1="0" y2="1000" x1 ="856.2032259816556" x2="856.2032259816556" stroke="#aaa"  stroke-width="2" /><line y1="0" y2="1000" x1 ="877.8112547311665" x2="877.8112547311665" stroke="#aaa"  stroke-width="2" /><line y1="0" y2="1000" x1 ="887.7751117838893" x2="887.7751117838893" stroke="#aaa"  stroke-width="2" /><line y1="0" y2="1000" x1 ="902.6156652525973" x2="902.6156652525973" stroke="#aaa"  stroke-width="2" /><line y1="0" y2="1000" x1 ="919.0947244382446" x2="919.0947244382446" stroke="#aaa"  stroke-width="2" /><line y1="0" y2="1000" x1 ="934.4257088124713" x2="934.4257088124713" stroke="#aaa"  stroke-width="2" /><line y1="0" y2="1000" x1 ="955.9316330040783" x2="955.9316330040783" stroke="#aaa"  stroke-width="2" /><line y1="0" y2="1000" x1 ="971.7987873535969" x2="971.7987873535969" stroke="#aaa"  stroke-width="2" /><line y1="0" y2="1000" x1 ="990.9179340272955" x2="990.9179340272955" stroke="#aaa"  stroke-width="2" /><polyline stroke="#368" fill="none" stroke-width="3" points="-8.755877670581109,1000 0,999.8322679364683 2.3101237423604783,999.6645358729367 7.83651283729387,999.4968038094049 10.172442503931745,999.3290717458733 12.001879090077466,998.9540114498102 13.980619938318764,998.42359609241 17.293881394818317,997.5849357747517 18.57781365759971,996.6360999383863 21.108149846137167,995.5620906969921 22.73166678354456,994.4880814555977 24.679525023067246,993.2785483443921 26.65112405788307,991.9685190495546 28.703971005103543,990.7589859383489 31.592587857827805,987.4380605110705 34.46857692062783,985.5403888383399 35.4430700861122,983.8799261247007 37.5732620965058,982.5276269958543 40.16015471790881,981.0945236168299 42.821549301987986,979.3676163279232 45.67554434808135,974.7894219647749 48.54577002410813,972.6089051388632 49.286540611957626,970.4872437092625 52.222461429721065,968.5239902402185 54.25547971064032,966.1519006493053 57.381726684698236,961.739558954182 59.06620346544092,959.726774191802 61.0288137959969,957.5462573658901 63.07365471108567,955.3592988218795 66.78497239944956,953.1723402778689 66.95932273713724,951.1595555154888 69.0372659798339,949.1467707531087 71.03358367843066,946.7746811621955 72.92552688035018,944.4932784467001 75.99630904898578,942.4185474024683 78.80748542075648,940.5061076340686 81.27159402760955,936.3634312608381 83.65200289996426,934.4073560734854 86.04818736643018,932.6804487845787 87.787487557333,931.1340355679349 89.87552488761419,929.710781813387 91.77014732036486,928.5012487021813 93.51315483047067,927.5232111085049 95.42041869985331,926.7730905163787 97.15404644564306,926.0815135016348 99.0396666365994,925.5783173110398 100.81371593062262,925.0479019536397 102.65882810780558,923.9738927122453 104.54893348030454,922.6638634174079 106.41249153018993,921.1636222331554 108.35145211628645,919.2883207528396 110.40384872215219,917.3250672837956 113.97660232573449,915.2503362395639 116.53658822482956,910.3832153241754 119.0827044835985,907.531770244137 121.4694545989177,904.8428207094478 123.09518230297405,901.8189879314336 124.93454921621156,898.9234835797351 126.6144681057532,895.7899900417377 128.34157720137813,892.6564965037404 132.2099594340565,883.0942976617412 135.0881003097281,879.8375300899769 137.30958868551994,879.3071147325767 139.08516630163277,877.2804004976775 140.9398357595058,874.6549784252356 142.7700639638722,871.8035333451971 145.39453066606515,869.6230165192853 145.79088105946587,867.5963022843862 148.0414915095084,865.7820026175776 150.644505478009,863.8695628491778 153.30215627888214,861.957123080778 153.68058854506108,860.1741067879655 155.9550535493524,858.7312210197537 157.8942097746507,857.6060401315642 161.66800209090525,854.8397320725886 166.1858947916903,852.5893702962098 169.14752142148328,851.2793410013724 171.98028688484942,847.1264902132111 177.24286677859615,842.4269981734022 181.35608907039835,838.3701007868632 184.81275930208938,836.2484393572626 185.36440464392243,833.9670366417671 188.27880460362903,831.7292117973448 190.21345293926316,829.19096509218 193.5235210661587,823.7300047512886 196.8575891666204,821.164197556279 196.91490981511737,818.6426317330512 198.9273034445686,816.1210659098235 200.90015786732,813.6050849568484 202.85413441719,811.0835191336206 206.9455947954904,803.8632431251768 211.07034407918613,800.6064755534126 213.7230411251608,799.2646190451591 216.34677079596372,797.2448575382464 216.56402638268767,795.2043089158863 219.0282306256684,793.4531347612435 221.64681090237107,792.175725422808 223.5607935372404,791.3370651051496 225.45719004199324,790.8066497477495 227.3732014510173,790.0565291556231 229.32411196777304,789.5821112374405 231.27947142041512,789.1076933192578 233.2370735184157,788.7326330231947 235.21949886856476,788.2022176657946 237.2433375004898,787.1282084244003 239.27179319574068,785.7049546698523 241.31433229334704,783.9219383770397 243.36713830044403,782.0466368967241 245.40625218358926,780.0199226618249 249.48399303534828,775.0867746766988 253.62878027125456,770.3159841221361 254.11156891128292,767.292151344122 257.73571143080267,764.4407062640835 257.9334568107971,761.4029493934958 260.54196123191696,758.5074450417972 263.2299668960282,755.2810543803088 265.9043804392614,748.4842829324604 268.62038456229755,745.3328835713482 270.6769752927236,741.8749984976287 272.7451838475303,739.0235534175903 274.7783158874052,735.7153600196561 277.5103777092942,733.0632832326553 277.62605626524794,730.3122728470436 280.40709612110385,727.9283523119602 284.01227419302865,723.775501523799 287.5908140006794,721.1234247367981 289.6326480547787,720.3733041446719 291.6485806576467,719.3669117634818 295.06809996566085,718.1927873187601 295.5381335192752,716.4416131641174 297.39380824822484,714.7147058752107 299.34431853433665,712.6672751131695 302.6213889219922,710.8529754463609 304.7855611254071,708.8332139394483 308.26001749336314,704.7728505997895 311.80419478182955,699.7942871759354 314.60316641161484,696.9428420958969 315.20020528858134,694.6066047884945 318.1625007162255,692.113088400903 320.27869568063016,689.8752635564807 322.6317292573209,687.5210318576225 327.94479290817657,676.7743926022218 330.8942103198639,674.4201609033636 333.69800829888436,671.9041799503884 336.5225538589159,668.8433570168481 336.71921656370756,666.3051103116834 338.71481098679556,663.8628946027507 341.3979538376686,662.0102334068854 344.1801764809753,659.9696847845253 346.97449905955193,656.4155060796301 349.8177496705585,654.9824027006056 352.62090166902306,652.4220838695171 354.7059047357253,651.5834235518587 356.97029836055367,650.978656996256 358.9383674833668,650.2285364041296 361.28330856238625,649.2082620929496 363.14520619005117,648.022217297493 364.98301748778357,646.8126841862872 366.8071591513384,645.6266393908307 368.6242182827658,643.949318755514 370.482949983416,642.1427891443964 373.0045749871414,640.2303493759964 375.59557526756464,638.0433908319859 378.25111999933046,632.6759647989722 380.627466628908,629.8048543474183 386.2422589872054,620.8378536782768 387.9555258450934,617.7770307447365 389.9291855327735,614.5202631729722 391.95059494155265,611.548043434647 393.9942713011925,608.3085992175088 396.08305461510406,605.4968974759681 400.1619463756044,599.8212052995548 401.83091591109616,596.8918907437823 404.6562848588843,594.1872924860895 407.5528940970321,592.0856157539431 407.6381268480877,590.1731759855434 410.46727134861715,588.5907948629446 415.8853827701211,583.8466156811181 419.20385268367164,582.7214347929288 419.60783617197524,581.5003269384624 421.9913109682706,580.3142821430058 425.2441584497431,578.9724256347524 425.3324435872053,577.5892716052646 429.5452914305754,572.0060358041053 433.7911233664777,569.8711551722835 437.27581924133494,565.7183043841221 440.2559236225396,563.5834237523004 443.9723633024142,559.5265263657614 447.77205259378036,554.9452604193335 450.06127864134464,552.7647435934217 453.7195607474319,548.6152815049584 457.42869496256253,544.5032794223844 459.6869475689217,542.3163208783737 463.27262908082434,539.9442312874605 465.1059869665497,535.5799732110545 466.9380028896266,533.7349205122061 468.79838573273565,531.5479619681956 473.62003143899733,527.6574457706342 475.5120609972828,525.8047845747691 477.65189664473314,523.9294830944534 480.19450122350065,522.1783089398107 482.6895287939015,518.5149853764115 485.25320836549184,516.923739304211 486.3869176698149,515.2717700616859 489.1736892520824,513.6198008191604 491.4060358219163,512.0374196965618 493.619490981335,510.8278865853561 495.83002563613104,509.6418417898995 498.05948827451857,508.66380419622317 498.1850652788549,507.91368360409695 500.30648693231205,507.3832682466968 502.55445909164655,506.85285288929657 504.81398990323675,506.16127587455264 507.08348750592205,505.21244003818737 509.3739782211835,503.7891862836394 511.70158798141256,502.2068051610407 512.0146342856651,500.33150368072495 514.039742061407,498.58032952608227 517.0176810922062,496.5397809037221 520.0223631939941,491.79560172189576 523.0087176581551,489.274035898668 525.9510343057137,484.07163727674333 528.3897737921095,481.38268774205426 530.5028527218627,478.2898613087667 532.7963547742344,474.9478236190888 535.1177825758716,471.6057859294108 537.4718033008113,469.05096725253975 537.5683356350228,466.28465919356404 539.7921257191241,463.79114280597264 542.1294201657063,460.92493604792367 544.5355439115048,458.52337837570303 546.9225122649739,455.9685596988319 549.2700052783346,453.3431376263899 549.3849016050024,450.59212724077815 552.4648269586296,448.40516869676753 555.548728198667,445.07578229927356 559.4777154602801,441.6342080951475 562.5841428294511,440.0518269725487 564.9408654933432,438.61872359352435 565.1353266020736,437.5578928787239 568.7794023762624,436.53761856754386 569.1436012354749,435.5312261863538 571.1791578040279,434.4703954715534 573.9283051947947,432.8184262290282 575.9753295831173,431.1411055937115 579.7728079986608,428.52104700403663 582.2431441986963,426.7067473372282 586.0078841624463,423.33120467265996 589.9995006418548,419.1245059205602 595.0058499516614,413.2899369891584 599.8708557244339,408.8489950124206 603.0658411652208,404.4366533172973 606.1575392606542,402.41689181038464 606.604782703221,399.72794227569557 610.6395092414559,395.01947887797905 613.7638228591389,392.9997173710665 616.977331358407,388.7530807098301 621.1537015520719,384.60361862136665 623.8956162969263,382.6911788529668 628.2825051890007,377.48878023104214 632.8661249102315,374.180586833108 637.5615476316005,371.66460588013285 640.7204192984964,370.3545765852956 643.1619563599724,369.74981002969275 645.5268625723701,369.21939467229254 646.03206369175,368.8839305452292 647.9693685500936,368.5088702491661 650.4170511061591,368.0344523309834 652.9093675670197,367.0856164946182 653.805883444656,365.96043560642875 656.0358191325197,364.3691895342283 658.4705647188505,362.6586514042219 661.8587647234995,358.1020160983404 664.9952921445821,355.2456419825054 668.1401441665411,348.69549550831834 670.5307198361386,344.9712393070963 672.8873288502492,341.5501630470834 675.2896543351845,338.2081253574055 675.4222548086973,335.312621005707 677.7118903666666,331.9705833160291 680.0835971156235,328.94675053801484 682.4929370083206,326.0174359822423 684.9069123055186,323.3920139098003 685.4154295748724,320.9904562375797 688.1443344219869,318.3650341651378 692.8378329575688,313.70461756944053 693.1317603334945,311.9216012766278 697.6567447369944,307.7687504884666 702.4958582291233,304.414109217833 706.4162388942918,300.91176090854765 710.2790805636406,298.7055900609861 712.7849572666702,297.1867116256923 712.85261764349,295.5010252495249 715.2520863812208,293.53777178048085 717.6949152946353,291.95539065788205 721.5656901772827,288.5138164537559 724.0647936371683,286.6013766853563 728.021793004414,282.8507737247247 732.0308818549839,278.7662310617085 735.2615033257186,274.2034256307177 739.1475943997091,269.5641859807863 743.1112442989025,264.95842111130037 745.5587585091815,262.7522502637388 749.6042795932141,258.1956149578572 751.6276996533201,256.1828301954771 753.6341523796243,253.9958716514667 755.7098393302556,251.80891310745608 757.7816188463619,249.4546814085977 759.9802307547394,247.41413278623747 761.9805151691596,245.37358416387747 764.0139747300195,243.4982826835618 766.7436801475948,240.04039760984222 769.5314887704744,238.23386799872458 770.0995875656841,236.58189875619928 773.2598830754758,235.08165757194683 776.5749140186833,232.29003967136714 779.7654368768759,231.08050656016144 779.8221525941143,230.00649731876717 782.3999201533536,228.88131643057773 784.9619803520201,227.9780516250189 787.4638268001554,226.6257524961727 787.6768563836101,225.2734533673264 789.9360688448028,224.05234551286003 792.418018283925,222.7000463840136 794.9185910029496,221.02272574869687 797.4372774883979,219.00296424178418 797.5124526158717,217.27605695287764 800.7730104871994,215.40075547256185 803.9900352517626,210.82256110941375 807.3697561748038,207.7987283313995 807.9536350402456,204.94235421556448 810.918436985988,201.55018316137705 812.9577691072827,198.09229808765747 815.0228662127319,194.75026039797967 817.1632477284901,191.19608169308447 819.342704244539,184.7215371335401 821.4895906545805,181.63782066535282 823.6273702344604,178.17993559163324 825.6729343158843,175.02853623052124 827.7826926195439,171.72459774547076 830.6614337320075,169.09917567302875 833.5667222762585,164.35203230523257 836.5240958277136,161.96811177014922 837.0113105863333,159.94835026323653 840.8381294234503,158.13405059642798 840.8916836897937,156.9245174852224 844.9469939393737,154.52295981300176 847.5868357866865,153.33691501754515 850.2187990075314,152.15087022208854 852.785358034448,149.17865048376314 855.6813804641647,147.36435081695458 861.1159680471671,141.28652215333227 866.2452332533068,137.32790331072044 866.4631984688319,135.14094476670982 872.1263455886614,130.77991111488632 875.7379240756758,126.16499267916049 877.9061539365736,123.67147629156887 881.4789893112281,119.39513096655298 883.6467461226507,117.35458234419275 884.2510632801198,115.16762380018235 887.1901228406564,112.98066525617173 891.3600790816977,108.92376786963257 894.040938456263,104.72711298085426 896.7266468881857,102.54015443684364 899.3584099937085,100.52736967446356 900.0176186857027,98.12581200224304 902.0801912593989,95.88798715782082 905.4470841680205,93.55174985041833 905.9481549202582,91.37123302450652 908.8929870381554,89.56470341338877 912.3734160787943,85.50780602684983 915.8508610757381,82.17841962935574 918.5718008308447,81.10441038796137 922.0297628053006,79.82700104952585 925.5578097944289,78.47470192067954 929.0991850316947,77.40069267928527 929.5252443077775,76.09066338444791 932.8646846257824,74.59042220019535 933.4701390452852,72.93845295767005 937.3201345773858,68.99050906170692 942.2095452488352,64.7938541729286 947.0498096497057,59.926733257540036 947.1535883857109,57.36092606253044 952.0037419552024,52.315005844312736 955.4035963574078,47.05078373088077 958.837744826912,44.34618547318814 958.9339996416761,41.94462780096751 962.2896658951465,39.61441950311894 965.7210532535735,35.18299044407445 968.5465494978512,32.901587728579216 968.7853895908765,30.854156966537857 971.2959699319459,28.706138483749214 974.0350415763033,26.750063296396547 978.2014860281696,22.21819249619557 978.7479320835397,19.846102905282464 982.4829768113151,17.589498781887528 982.6134347517176,15.542068019846283 986.0727387979963,13.494637257805039 986.6281187524477,10.978656304829883 990.3370209735474,8.41833747374153 990.4339444769889,5.8580186426530645 994.530490491971,2.5159809529751556 997.3143779244441,1.0063923811900395 1000,0 " /><polyline stroke="#f60" fill="none" stroke-width="3" points="-8.755877670581109,1000 0,997.5186104218362 2.3101237423604783,995.0372208436725 7.83651283729387,992.5558312655087 10.172442503931745,990.0744416873449 12.001879090077466,987.5930521091811 13.980619938318764,985.1116625310174 17.293881394818317,982.6302729528536 18.57781365759971,980.1488833746898 21.108149846137167,977.6674937965261 22.73166678354456,975.1861042183623 24.679525023067246,972.7047146401985 26.65112405788307,970.2233250620347 28.703971005103543,967.741935483871 31.592587857827805,965.2605459057072 34.46857692062783,962.7791563275434 35.4430700861122,960.2977667493797 37.5732620965058,957.8163771712159 40.16015471790881,955.3349875930521 42.821549301987986,952.8535980148883 45.67554434808135,950.3722084367246 48.54577002410813,947.8908188585608 49.286540611957626,945.409429280397 52.222461429721065,942.9280397022333 54.25547971064032,940.4466501240695 57.381726684698236,937.9652605459057 59.06620346544092,935.483870967742 61.0288137959969,933.0024813895782 63.07365471108567,930.5210918114144 66.78497239944956,928.0397022332506 66.95932273713724,925.5583126550869 69.0372659798339,923.0769230769231 71.03358367843066,920.5955334987593 72.92552688035018,918.1141439205956 75.99630904898578,915.6327543424318 78.80748542075648,913.151364764268 81.27159402760955,910.6699751861042 83.65200289996426,908.1885856079405 86.04818736643018,905.7071960297767 87.787487557333,903.2258064516129 89.87552488761419,900.7444168734492 91.77014732036486,898.2630272952854 93.51315483047067,895.7816377171216 95.42041869985331,893.3002481389578 97.15404644564306,890.8188585607941 99.0396666365994,888.3374689826303 100.81371593062262,885.8560794044665 102.65882810780558,883.3746898263028 104.54893348030454,880.893300248139 106.41249153018993,878.4119106699752 108.35145211628645,875.9305210918114 110.40384872215219,873.4491315136477 113.97660232573449,870.9677419354839 116.53658822482956,868.4863523573201 119.0827044835985,866.0049627791564 121.4694545989177,863.5235732009926 123.09518230297405,861.0421836228288 124.93454921621156,858.560794044665 126.6144681057532,856.0794044665013 128.34157720137813,853.5980148883375 132.2099594340565,851.1166253101737 135.0881003097281,848.63523573201 137.30958868551994,846.1538461538462 139.08516630163277,843.6724565756824 140.9398357595058,841.1910669975186 142.7700639638722,838.7096774193549 145.39453066606515,836.2282878411911 145.79088105946587,833.7468982630273 148.0414915095084,831.2655086848636 150.644505478009,828.7841191066998 153.30215627888214,826.302729528536 153.68058854506108,823.8213399503722 155.9550535493524,821.3399503722085 157.8942097746507,818.8585607940447 161.66800209090525,816.3771712158809 166.1858947916903,813.8957816377172 169.14752142148328,811.4143920595534 171.98028688484942,808.9330024813896 177.24286677859615,806.4516129032259 181.35608907039835,803.9702233250621 184.81275930208938,801.4888337468983 185.36440464392243,799.0074441687345 188.27880460362903,796.5260545905708 190.21345293926316,794.044665012407 193.5235210661587,791.5632754342432 196.8575891666204,789.0818858560795 196.91490981511737,786.6004962779157 198.9273034445686,784.1191066997519 200.90015786732,781.6377171215881 202.85413441719,779.1563275434244 206.9455947954904,776.6749379652606 211.07034407918613,774.1935483870968 213.7230411251608,771.712158808933 216.34677079596372,769.2307692307693 216.56402638268767,766.7493796526055 219.0282306256684,764.2679900744417 221.64681090237107,761.786600496278 223.5607935372404,759.3052109181142 225.45719004199324,756.8238213399504 227.3732014510173,754.3424317617867 229.32411196777304,751.8610421836229 231.27947142041512,749.3796526054591 233.2370735184157,746.8982630272953 235.21949886856476,744.4168734491316 237.2433375004898,741.9354838709678 239.27179319574068,739.454094292804 241.31433229334704,736.9727047146403 243.36713830044403,734.4913151364765 245.40625218358926,732.0099255583127 249.48399303534828,729.528535980149 253.62878027125456,727.0471464019852 254.11156891128292,724.5657568238214 257.73571143080267,722.0843672456576 257.9334568107971,719.6029776674939 260.54196123191696,717.1215880893301 263.2299668960282,714.6401985111663 265.9043804392614,712.1588089330025 268.62038456229755,709.6774193548388 270.6769752927236,707.196029776675 272.7451838475303,704.7146401985112 274.7783158874052,702.2332506203475 277.5103777092942,699.7518610421837 277.62605626524794,697.2704714640199 280.40709612110385,694.7890818858561 284.01227419302865,692.3076923076924 287.5908140006794,689.8263027295286 289.6326480547787,687.3449131513648 291.6485806576467,684.8635235732011 295.06809996566085,682.3821339950373 295.5381335192752,679.9007444168735 297.39380824822484,677.4193548387098 299.34431853433665,674.937965260546 302.6213889219922,672.4565756823822 304.7855611254071,669.9751861042184 308.26001749336314,667.4937965260547 311.80419478182955,665.0124069478909 314.60316641161484,662.5310173697271 315.20020528858134,660.0496277915634 318.1625007162255,657.5682382133996 320.27869568063016,655.0868486352358 322.6317292573209,652.605459057072 327.94479290817657,650.1240694789083 330.8942103198639,647.6426799007445 333.69800829888436,645.1612903225807 336.5225538589159,642.679900744417 336.71921656370756,640.1985111662532 338.71481098679556,637.7171215880894 341.3979538376686,635.2357320099256 344.1801764809753,632.7543424317619 346.97449905955193,630.2729528535981 349.8177496705585,627.7915632754343 352.62090166902306,625.3101736972706 354.7059047357253,622.8287841191067 356.97029836055367,620.3473945409429 358.9383674833668,617.8660049627791 361.28330856238625,615.3846153846154 363.14520619005117,612.9032258064516 364.98301748778357,610.4218362282878 366.8071591513384,607.940446650124 368.6242182827658,605.4590570719603 370.482949983416,602.9776674937965 373.0045749871414,600.4962779156327 375.59557526756464,598.014888337469 378.25111999933046,595.5334987593052 380.627466628908,593.0521091811414 386.2422589872054,590.5707196029776 387.9555258450934,588.0893300248139 389.9291855327735,585.6079404466501 391.95059494155265,583.1265508684863 393.9942713011925,580.6451612903226 396.08305461510406,578.1637717121588 400.1619463756044,575.682382133995 401.83091591109616,573.2009925558312 404.6562848588843,570.7196029776675 407.5528940970321,568.2382133995037 407.6381268480877,565.7568238213399 410.46727134861715,563.2754342431762 415.8853827701211,560.7940446650124 419.20385268367164,558.3126550868486 419.60783617197524,555.8312655086849 421.9913109682706,553.3498759305211 425.2441584497431,550.8684863523573 425.3324435872053,548.3870967741935 429.5452914305754,545.9057071960298 433.7911233664777,543.424317617866 437.27581924133494,540.9429280397022 440.2559236225396,538.4615384615385 443.9723633024142,535.9801488833747 447.77205259378036,533.4987593052109 450.06127864134464,531.0173697270471 453.7195607474319,528.5359801488834 457.42869496256253,526.0545905707196 459.6869475689217,523.5732009925558 463.27262908082434,521.091811414392 465.1059869665497,518.6104218362283 466.9380028896266,516.1290322580645 468.79838573273565,513.6476426799007 473.62003143899733,511.16625310173697 475.5120609972828,508.6848635235732 477.65189664473314,506.2034739454094 480.19450122350065,503.72208436724566 482.6895287939015,501.2406947890819 485.25320836549184,498.7593052109181 486.3869176698149,496.27791563275434 489.1736892520824,493.7965260545906 491.4060358219163,491.3151364764268 493.619490981335,488.83374689826303 495.83002563613104,486.35235732009926 498.05948827451857,483.8709677419355 498.1850652788549,481.3895781637717 500.30648693231205,478.90818858560795 502.55445909164655,476.4267990074442 504.81398990323675,473.9454094292804 507.08348750592205,471.46401985111663 509.3739782211835,468.98263027295286 511.70158798141256,466.5012406947891 512.0146342856651,464.0198511166253 514.039742061407,461.53846153846155 517.0176810922062,459.0570719602978 520.0223631939941,456.575682382134 523.0087176581551,454.09429280397023 525.9510343057137,451.61290322580646 528.3897737921095,449.1315136476427 530.5028527218627,446.6501240694789 532.7963547742344,444.16873449131515 535.1177825758716,441.6873449131514 537.4718033008113,439.2059553349876 537.5683356350228,436.72456575682384 539.7921257191241,434.24317617866006 542.1294201657063,431.7617866004963 544.5355439115048,429.2803970223325 546.9225122649739,426.79900744416875 549.2700052783346,424.317617866005 549.3849016050024,421.8362282878412 552.4648269586296,419.35483870967744 555.548728198667,416.87344913151367 559.4777154602801,414.3920595533499 562.5841428294511,411.9106699751861 564.9408654933432,409.42928039702235 565.1353266020736,406.9478908188586 568.7794023762624,404.4665012406948 569.1436012354749,401.98511166253104 571.1791578040279,399.50372208436727 573.9283051947947,397.0223325062035 575.9753295831173,394.5409429280397 579.7728079986608,392.05955334987596 582.2431441986963,389.5781637717122 586.0078841624463,387.0967741935484 589.9995006418548,384.61538461538464 595.0058499516614,382.13399503722087 599.8708557244339,379.6526054590571 603.0658411652208,377.1712158808933 606.1575392606542,374.68982630272956 606.604782703221,372.2084367245658 610.6395092414559,369.727047146402 613.7638228591389,367.24565756823824 616.977331358407,364.7642679900745 621.1537015520719,362.2828784119107 623.8956162969263,359.80148883374693 628.2825051890007,357.32009925558316 632.8661249102315,354.8387096774194 637.5615476316005,352.3573200992556 640.7204192984964,349.87593052109185 643.1619563599724,347.3945409429281 645.5268625723701,344.9131513647643 646.03206369175,342.43176178660053 647.9693685500936,339.95037220843676 650.4170511061591,337.468982630273 652.9093675670197,334.9875930521092 653.805883444656,332.50620347394545 656.0358191325197,330.0248138957817 658.4705647188505,327.5434243176179 661.8587647234995,325.06203473945413 664.9952921445821,322.58064516129036 668.1401441665411,320.0992555831266 670.5307198361386,317.6178660049628 672.8873288502492,315.13647642679905 675.2896543351845,312.6550868486353 675.4222548086973,310.1736972704715 677.7118903666666,307.69230769230774 680.0835971156235,305.21091811414396 682.4929370083206,302.7295285359802 684.9069123055186,300.2481389578164 685.4154295748724,297.76674937965265 688.1443344219869,295.2853598014889 692.8378329575688,292.8039702233251 693.1317603334945,290.32258064516134 697.6567447369944,287.84119106699757 702.4958582291233,285.3598014888338 706.4162388942918,282.87841191067 710.2790805636406,280.39702233250625 712.7849572666702,277.9156327543425 712.85261764349,275.4342431761787 715.2520863812208,272.95285359801494 717.6949152946353,270.47146401985117 721.5656901772827,267.9900744416874 724.0647936371683,265.5086848635236 728.021793004414,263.02729528535986 732.0308818549839,260.5459057071961 735.2615033257186,258.0645161290323 739.1475943997091,255.58312655086854 743.1112442989025,253.10173697270477 745.5587585091815,250.620347394541 749.6042795932141,248.13895781637711 751.6276996533201,245.65756823821334 753.6341523796243,243.17617866004957 755.7098393302556,240.6947890818858 757.7816188463619,238.21339950372203 759.9802307547394,235.73200992555826 761.9805151691596,233.2506203473945 764.0139747300195,230.76923076923072 766.7436801475948,228.28784119106695 769.5314887704744,225.80645161290317 770.0995875656841,223.3250620347394 773.2598830754758,220.84367245657563 776.5749140186833,218.36228287841186 779.7654368768759,215.8808933002481 779.8221525941143,213.39950372208432 782.3999201533536,210.91811414392055 784.9619803520201,208.43672456575678 787.4638268001554,205.955334987593 787.6768563836101,203.47394540942923 789.9360688448028,200.99255583126546 792.418018283925,198.5111662531017 794.9185910029496,196.02977667493792 797.4372774883979,193.54838709677415 797.5124526158717,191.06699751861038 800.7730104871994,188.5856079404466 803.9900352517626,186.10421836228284 807.3697561748038,183.62282878411906 807.9536350402456,181.1414392059553 810.918436985988,178.66004962779152 812.9577691072827,176.17866004962775 815.0228662127319,173.69727047146398 817.1632477284901,171.2158808933002 819.342704244539,168.73449131513644 821.4895906545805,166.25310173697267 823.6273702344604,163.7717121588089 825.6729343158843,161.29032258064512 827.7826926195439,158.80893300248135 830.6614337320075,156.32754342431758 833.5667222762585,153.8461538461538 836.5240958277136,151.36476426799004 837.0113105863333,148.88337468982627 840.8381294234503,146.4019851116625 840.8916836897937,143.92059553349873 844.9469939393737,141.43920595533496 847.5868357866865,138.95781637717118 850.2187990075314,136.4764267990074 852.785358034448,133.99503722084364 855.6813804641647,131.51364764267987 861.1159680471671,129.0322580645161 866.2452332533068,126.55086848635233 866.4631984688319,124.06947890818856 872.1263455886614,121.58808933002479 875.7379240756758,119.10669975186102 877.9061539365736,116.62531017369724 881.4789893112281,114.14392059553347 883.6467461226507,111.6625310173697 884.2510632801198,109.18114143920593 887.1901228406564,106.69975186104216 891.3600790816977,104.21836228287839 894.040938456263,101.73697270471462 896.7266468881857,99.25558312655085 899.3584099937085,96.77419354838707 900.0176186857027,94.2928039702233 902.0801912593989,91.81141439205953 905.4470841680205,89.33002481389576 905.9481549202582,86.84863523573199 908.8929870381554,84.36724565756822 912.3734160787943,81.88585607940445 915.8508610757381,79.40446650124068 918.5718008308447,76.9230769230769 922.0297628053006,74.44168734491313 925.5578097944289,71.96029776674936 929.0991850316947,69.47890818858559 929.5252443077775,66.99751861042182 932.8646846257824,64.51612903225805 933.4701390452852,62.03473945409428 937.3201345773858,59.55334987593051 942.2095452488352,57.071960297766736 947.0498096497057,54.590570719602965 947.1535883857109,52.109181141439194 952.0037419552024,49.62779156327542 955.4035963574078,47.14640198511165 958.837744826912,44.66501240694788 958.9339996416761,42.18362282878411 962.2896658951465,39.70223325062034 965.7210532535735,37.22084367245657 968.5465494978512,34.739454094292796 968.7853895908765,32.258064516129025 971.2959699319459,29.776674937965254 974.0350415763033,27.295285359801483 978.2014860281696,24.81389578163771 978.7479320835397,22.33250620347394 982.4829768113151,19.85111662531017 982.6134347517176,17.369727047146398 986.0727387979963,14.888337468982627 986.6281187524477,12.406947890818856 990.3370209735474,9.925558312655085 990.4339444769889,7.444168734491313 994.530490491971,4.962779156327542 997.3143779244441,2.481389578163771 1000,0 " /></svg>